<svg xmlns="http://www.w3.org/2000/svg" width="1100" height="560" viewBox="0 0 1100 560">
  <defs>
    <marker id="arrow" markerWidth="10" markerHeight="10" refX="8" refY="5" orient="auto" markerUnits="strokeWidth">
      <path d="M1,1 L8,5 L1,9" fill="none" stroke="#1f2937" stroke-width="1.6" stroke-linecap="round" stroke-linejoin="round" />
    </marker>
    <style>
      .page { fill: #ffffff; }
      .box { stroke: #1f2937; stroke-width: 2; }
      .subbox { stroke: #1f2937; stroke-width: 1.35; }
      .proc { fill: #dbeafe; }
      .pipe-r { fill: #dcfce7; }
      .pipe-w { fill: #fee2e2; }
      .ring { fill: #fef3c7; }
      .note { fill: #f8fafc; }
      .arrow { stroke: #1f2937; stroke-width: 2; fill: none; marker-end: url(#arrow); }
      .dash { stroke-dasharray: 7 7; }
      .title {
        font-family: Arial, "Noto Sans CJK SC", "Microsoft YaHei", sans-serif;
        font-size: 26px;
        font-weight: 700;
        fill: #111827;
      }
      .head {
        font-family: Arial, "Noto Sans CJK SC", "Microsoft YaHei", sans-serif;
        font-size: 18px;
        font-weight: 700;
        fill: #111827;
      }
      .text {
        font-family: Arial, "Noto Sans CJK SC", "Microsoft YaHei", sans-serif;
        font-size: 15px;
        fill: #1f2937;
      }
      .small {
        font-family: Arial, "Noto Sans CJK SC", "Microsoft YaHei", sans-serif;
        font-size: 14px;
        fill: #374151;
      }
    </style>
  </defs>
  <rect class="page" x="0" y="0" width="1100" height="560" />
  <g data-text="Kairix Pipe 通信核心结构" fill="#111827">
    <path d="M188 1493H573V948L1128 1493H1575L856 786L1649 0H1167L573 588V0H188Z" transform="translate(388.2871 42) scale(0.0127 -0.0127)" />
    <path d="M674 504Q562 504 505.5 466.0Q449 428 449 354Q449 286 494.5 247.5Q540 209 621 209Q722 209 791.0 281.5Q860 354 860 463V504ZM1221 639V0H860V166Q788 64 698.0 17.5Q608 -29 479 -29Q305 -29 196.5 72.5Q88 174 88 336Q88 533 223.5 625.0Q359 717 649 717H860V745Q860 830 793.0 869.5Q726 909 584 909Q469 909 370.0 886.0Q271 863 186 817V1090Q301 1118 417.0 1132.5Q533 1147 649 1147Q952 1147 1086.5 1027.5Q1221 908 1221 639Z" transform="translate(408.4346 42) scale(0.0127 -0.0127)" />
    <path d="M172 1120H530V0H172ZM172 1556H530V1264H172Z" transform="translate(425.9795 42) scale(0.0127 -0.0127)" />
    <path d="M1004 815Q957 837 910.5 847.5Q864 858 817 858Q679 858 604.5 769.5Q530 681 530 516V0H172V1120H530V936Q599 1046 688.5 1096.5Q778 1147 903 1147Q921 1147 942.0 1145.5Q963 1144 1003 1139Z" transform="translate(434.8916 42) scale(0.0127 -0.0127)" />
    <path d="M172 1120H530V0H172ZM172 1556H530V1264H172Z" transform="translate(447.7139 42) scale(0.0127 -0.0127)" />
    <path d="M455 573 51 1120H430L659 788L891 1120H1270L866 575L1290 0H911L659 354L410 0H31Z" transform="translate(456.626 42) scale(0.0127 -0.0127)" />
    <path d="M188 1493H827Q1112 1493 1264.5 1366.5Q1417 1240 1417 1006Q1417 771 1264.5 644.5Q1112 518 827 518H573V0H188ZM573 1214V797H786Q898 797 959.0 851.5Q1020 906 1020 1006Q1020 1106 959.0 1160.0Q898 1214 786 1214Z" transform="translate(482.4482 42) scale(0.0127 -0.0127)" />
    <path d="M172 1120H530V0H172ZM172 1556H530V1264H172Z" transform="translate(501.5039 42) scale(0.0127 -0.0127)" />
    <path d="M530 162V-426H172V1120H530V956Q604 1054 694.0 1100.5Q784 1147 901 1147Q1108 1147 1241.0 982.5Q1374 818 1374 559Q1374 300 1241.0 135.5Q1108 -29 901 -29Q784 -29 694.0 17.5Q604 64 530 162ZM768 887Q653 887 591.5 802.5Q530 718 530 559Q530 400 591.5 315.5Q653 231 768 231Q883 231 943.5 315.0Q1004 399 1004 559Q1004 719 943.5 803.0Q883 887 768 887Z" transform="translate(510.416 42) scale(0.0127 -0.0127)" />
    <path d="M1290 563V461H453Q466 335 544.0 272.0Q622 209 762 209Q875 209 993.5 242.5Q1112 276 1237 344V68Q1110 20 983.0 -4.5Q856 -29 729 -29Q425 -29 256.5 125.5Q88 280 88 559Q88 833 253.5 990.0Q419 1147 709 1147Q973 1147 1131.5 988.0Q1290 829 1290 563ZM922 682Q922 784 862.5 846.5Q803 909 707 909Q603 909 538.0 850.5Q473 792 457 682Z" transform="translate(529.0273 42) scale(0.0127 -0.0127)" />
    <path d="M46 742C105 690 185 617 221 570L307 652C268 697 186 766 127 814ZM274 467H33V356H159V117C116 97 69 60 25 16L98 -85C141 -24 189 36 221 36C242 36 275 5 315 -18C385 -58 467 -69 591 -69C698 -69 865 -63 943 -59C945 -28 962 26 975 56C870 42 703 33 595 33C486 33 396 39 331 78C307 92 289 105 274 115ZM370 818V727H727C701 707 673 688 645 672C599 691 552 709 513 723L436 659C480 642 531 620 579 598H361V80H473V231H588V84H695V231H814V186C814 175 810 171 799 171C788 171 753 170 722 172C734 146 747 106 752 77C812 77 856 78 887 94C919 110 928 135 928 184V598H794L796 600L743 627C810 668 875 718 925 767L854 824L831 818ZM814 512V458H695V512ZM473 374H588V318H473ZM473 458V512H588V458ZM814 374V318H695V374Z" transform="translate(555.7129 42) scale(0.026 -0.026)" />
    <path d="M383 543V449H887V543ZM383 397V304H887V397ZM368 247V-88H470V-57H794V-85H900V247ZM470 39V152H794V39ZM539 813C561 777 586 729 601 693H313V596H961V693H655L714 719C699 755 668 811 641 852ZM235 846C188 704 108 561 24 470C43 442 75 379 85 352C110 380 134 412 158 446V-92H268V637C296 695 321 755 342 813Z" transform="translate(581.7129 42) scale(0.026 -0.026)" />
    <path d="M839 373C757 214 569 76 333 10C355 -15 388 -62 403 -90C524 -52 633 3 726 72C786 21 852 -39 886 -81L978 -3C941 38 873 96 812 143C872 199 923 262 963 329ZM595 825C609 797 621 762 630 731H395V622H562C531 572 492 512 476 494C457 474 421 466 397 461C406 436 421 380 425 352C447 360 480 367 630 378C560 316 475 261 383 224C404 202 435 159 450 133C641 217 799 364 893 527L780 565C765 537 747 508 726 480L593 474C624 520 658 575 687 622H965V731H759C751 768 728 820 707 859ZM165 850V663H43V552H163C134 431 81 290 20 212C40 180 66 125 77 91C109 139 139 207 165 282V-89H279V368C298 328 316 288 326 260L395 341C379 369 306 484 279 519V552H380V663H279V850Z" transform="translate(607.7129 42) scale(0.026 -0.026)" />
    <path d="M294 563V98C294 -30 331 -70 461 -70C487 -70 601 -70 629 -70C752 -70 785 -10 799 180C766 188 714 210 686 231C679 74 670 42 619 42C593 42 499 42 476 42C428 42 420 49 420 98V563ZM113 505C101 370 72 220 36 114L158 64C192 178 217 352 231 482ZM737 491C790 373 841 214 857 112L979 162C958 266 906 418 849 537ZM329 753C422 690 546 594 601 532L689 626C629 688 502 777 410 834Z" transform="translate(633.7129 42) scale(0.026 -0.026)" />
    <path d="M26 73 45 -50C152 -27 292 0 423 29L413 141C273 115 125 88 26 73ZM57 419C74 426 99 433 189 443C155 398 126 363 110 348C76 312 54 291 26 285C40 252 60 194 66 170C95 185 140 197 412 245C408 271 405 317 406 349L233 323C304 402 373 494 429 586L323 655C305 620 284 584 263 550L178 544C234 619 288 711 328 800L204 851C167 739 100 622 78 592C56 562 38 542 16 536C31 503 51 444 57 419ZM622 850V727H411V612H622V502H438V388H932V502H747V612H956V727H747V850ZM462 314V-89H579V-46H791V-85H914V314ZM579 62V206H791V62Z" transform="translate(659.7129 42) scale(0.026 -0.026)" />
    <path d="M171 850V663H40V552H164C135 431 81 290 20 212C40 180 66 125 77 91C112 143 144 217 171 298V-89H288V368C309 325 329 281 341 251L413 335C396 364 314 486 288 519V552H377C365 535 353 519 340 504C367 486 415 449 436 428C469 470 500 522 529 580H827C817 220 803 76 777 44C765 30 755 26 737 26C714 26 669 26 618 31C639 -3 654 -55 655 -88C708 -90 760 -90 794 -84C831 -78 857 -66 883 -29C921 22 934 182 947 634C947 650 948 691 948 691H577C593 734 607 779 619 823L503 850C478 745 435 641 383 561V663H288V850ZM608 353 643 267 535 249C577 324 617 414 645 500L531 533C506 423 454 304 437 274C420 242 404 222 386 216C398 188 417 135 422 114C445 126 480 138 675 177C682 154 688 133 692 115L787 153C770 213 730 311 697 384Z" transform="translate(685.7129 42) scale(0.026 -0.026)" />
  </g>
  <!-- Processes -->
  <rect class="box proc" x="72" y="115" width="210" height="118" rx="10" />
  <g data-text="Reader Process" fill="#111827">
    <path d="M735 831Q856 831 908.5 876.0Q961 921 961 1024Q961 1126 908.5 1170.0Q856 1214 735 1214H573V831ZM573 565V0H188V1493H776Q1071 1493 1208.5 1394.0Q1346 1295 1346 1081Q1346 933 1274.5 838.0Q1203 743 1059 698Q1138 680 1200.5 616.5Q1263 553 1327 424L1536 0H1126L944 371Q889 483 832.5 524.0Q776 565 682 565Z" transform="translate(98.4038 148) scale(0.0088 -0.0088)" />
    <path d="M1290 563V461H453Q466 335 544.0 272.0Q622 209 762 209Q875 209 993.5 242.5Q1112 276 1237 344V68Q1110 20 983.0 -4.5Q856 -29 729 -29Q425 -29 256.5 125.5Q88 280 88 559Q88 833 253.5 990.0Q419 1147 709 1147Q973 1147 1131.5 988.0Q1290 829 1290 563ZM922 682Q922 784 862.5 846.5Q803 909 707 909Q603 909 538.0 850.5Q473 792 457 682Z" transform="translate(112.2642 148) scale(0.0088 -0.0088)" />
    <path d="M674 504Q562 504 505.5 466.0Q449 428 449 354Q449 286 494.5 247.5Q540 209 621 209Q722 209 791.0 281.5Q860 354 860 463V504ZM1221 639V0H860V166Q788 64 698.0 17.5Q608 -29 479 -29Q305 -29 196.5 72.5Q88 174 88 336Q88 533 223.5 625.0Q359 717 649 717H860V745Q860 830 793.0 869.5Q726 909 584 909Q469 909 370.0 886.0Q271 863 186 817V1090Q301 1118 417.0 1132.5Q533 1147 649 1147Q952 1147 1086.5 1027.5Q1221 908 1221 639Z" transform="translate(124.4722 148) scale(0.0088 -0.0088)" />
    <path d="M934 956V1556H1294V0H934V162Q860 63 771.0 17.0Q682 -29 565 -29Q358 -29 225.0 135.5Q92 300 92 559Q92 818 225.0 982.5Q358 1147 565 1147Q681 1147 770.5 1100.5Q860 1054 934 956ZM698 231Q813 231 873.5 315.0Q934 399 934 559Q934 719 873.5 803.0Q813 887 698 887Q584 887 523.5 803.0Q463 719 463 559Q463 399 523.5 315.0Q584 231 698 231Z" transform="translate(136.6187 148) scale(0.0088 -0.0088)" />
    <path d="M1290 563V461H453Q466 335 544.0 272.0Q622 209 762 209Q875 209 993.5 242.5Q1112 276 1237 344V68Q1110 20 983.0 -4.5Q856 -29 729 -29Q425 -29 256.5 125.5Q88 280 88 559Q88 833 253.5 990.0Q419 1147 709 1147Q973 1147 1131.5 988.0Q1290 829 1290 563ZM922 682Q922 784 862.5 846.5Q803 909 707 909Q603 909 538.0 850.5Q473 792 457 682Z" transform="translate(149.5034 148) scale(0.0088 -0.0088)" />
    <path d="M1004 815Q957 837 910.5 847.5Q864 858 817 858Q679 858 604.5 769.5Q530 681 530 516V0H172V1120H530V936Q599 1046 688.5 1096.5Q778 1147 903 1147Q921 1147 942.0 1145.5Q963 1144 1003 1139Z" transform="translate(161.7114 148) scale(0.0088 -0.0088)" />
    <path d="M188 1493H827Q1112 1493 1264.5 1366.5Q1417 1240 1417 1006Q1417 771 1264.5 644.5Q1112 518 827 518H573V0H188ZM573 1214V797H786Q898 797 959.0 851.5Q1020 906 1020 1006Q1020 1106 959.0 1160.0Q898 1214 786 1214Z" transform="translate(176.855 148) scale(0.0088 -0.0088)" />
    <path d="M1004 815Q957 837 910.5 847.5Q864 858 817 858Q679 858 604.5 769.5Q530 681 530 516V0H172V1120H530V936Q599 1046 688.5 1096.5Q778 1147 903 1147Q921 1147 942.0 1145.5Q963 1144 1003 1139Z" transform="translate(190.0474 148) scale(0.0088 -0.0088)" />
    <path d="M705 891Q586 891 523.5 805.5Q461 720 461 559Q461 398 523.5 312.5Q586 227 705 227Q822 227 884.0 312.5Q946 398 946 559Q946 720 884.0 805.5Q822 891 705 891ZM705 1147Q994 1147 1156.5 991.0Q1319 835 1319 559Q1319 283 1156.5 127.0Q994 -29 705 -29Q415 -29 251.5 127.0Q88 283 88 559Q88 835 251.5 991.0Q415 1147 705 1147Z" transform="translate(198.9243 148) scale(0.0088 -0.0088)" />
    <path d="M1077 1085V793Q1004 843 930.5 867.0Q857 891 778 891Q628 891 544.5 803.5Q461 716 461 559Q461 402 544.5 314.5Q628 227 778 227Q862 227 937.5 252.0Q1013 277 1077 326V33Q993 2 906.5 -13.5Q820 -29 733 -29Q430 -29 259.0 126.5Q88 282 88 559Q88 836 259.0 991.5Q430 1147 733 1147Q821 1147 906.5 1131.5Q992 1116 1077 1085Z" transform="translate(211.2905 148) scale(0.0088 -0.0088)" />
    <path d="M1290 563V461H453Q466 335 544.0 272.0Q622 209 762 209Q875 209 993.5 242.5Q1112 276 1237 344V68Q1110 20 983.0 -4.5Q856 -29 729 -29Q425 -29 256.5 125.5Q88 280 88 559Q88 833 253.5 990.0Q419 1147 709 1147Q973 1147 1131.5 988.0Q1290 829 1290 563ZM922 682Q922 784 862.5 846.5Q803 909 707 909Q603 909 538.0 850.5Q473 792 457 682Z" transform="translate(221.9604 148) scale(0.0088 -0.0088)" />
    <path d="M1047 1085V813Q932 861 825.0 885.0Q718 909 623 909Q521 909 471.5 883.5Q422 858 422 805Q422 762 459.5 739.0Q497 716 594 705L657 696Q932 661 1027.0 581.0Q1122 501 1122 330Q1122 151 990.0 61.0Q858 -29 596 -29Q485 -29 366.5 -11.5Q248 6 123 41V313Q230 261 342.5 235.0Q455 209 571 209Q676 209 729.0 238.0Q782 267 782 324Q782 372 745.5 395.5Q709 419 600 432L537 440Q298 470 202.0 551.0Q106 632 106 797Q106 975 228.0 1061.0Q350 1147 602 1147Q701 1147 810.0 1132.0Q919 1117 1047 1085Z" transform="translate(234.1685 148) scale(0.0088 -0.0088)" />
    <path d="M1047 1085V813Q932 861 825.0 885.0Q718 909 623 909Q521 909 471.5 883.5Q422 858 422 805Q422 762 459.5 739.0Q497 716 594 705L657 696Q932 661 1027.0 581.0Q1122 501 1122 330Q1122 151 990.0 61.0Q858 -29 596 -29Q485 -29 366.5 -11.5Q248 6 123 41V313Q230 261 342.5 235.0Q455 209 571 209Q676 209 729.0 238.0Q782 267 782 324Q782 372 745.5 395.5Q709 419 600 432L537 440Q298 470 202.0 551.0Q106 632 106 797Q106 975 228.0 1061.0Q350 1147 602 1147Q701 1147 810.0 1132.0Q919 1117 1047 1085Z" transform="translate(244.8823 148) scale(0.0088 -0.0088)" />
  </g>
  <g data-text="fd_table[read_fd]" fill="#1f2937">
    <path d="M909 1556V1321H711Q635 1321 605.0 1293.5Q575 1266 575 1198V1120H881V864H575V0H217V864H39V1120H217V1198Q217 1381 319.0 1468.5Q421 1556 635 1556Z" transform="translate(104.4939 176) scale(0.0073 -0.0073)" />
    <path d="M934 956V1556H1294V0H934V162Q860 63 771.0 17.0Q682 -29 565 -29Q358 -29 225.0 135.5Q92 300 92 559Q92 818 225.0 982.5Q358 1147 565 1147Q681 1147 770.5 1100.5Q860 1054 934 956ZM698 231Q813 231 873.5 315.0Q934 399 934 559Q934 719 873.5 803.0Q813 887 698 887Q584 887 523.5 803.0Q463 719 463 559Q463 399 523.5 315.0Q584 231 698 231Z" transform="translate(111.0198 176) scale(0.0073 -0.0073)" />
    <path d="M1024 -293V-483H0V-293Z" transform="translate(121.7571 176) scale(0.0073 -0.0073)" />
    <path d="M563 1438V1120H932V864H563V389Q563 311 594.0 283.5Q625 256 717 256H901V0H594Q382 0 293.5 88.5Q205 177 205 389V864H27V1120H205V1438Z" transform="translate(129.2571 176) scale(0.0073 -0.0073)" />
    <path d="M674 504Q562 504 505.5 466.0Q449 428 449 354Q449 286 494.5 247.5Q540 209 621 209Q722 209 791.0 281.5Q860 354 860 463V504ZM1221 639V0H860V166Q788 64 698.0 17.5Q608 -29 479 -29Q305 -29 196.5 72.5Q88 174 88 336Q88 533 223.5 625.0Q359 717 649 717H860V745Q860 830 793.0 869.5Q726 909 584 909Q469 909 370.0 886.0Q271 863 186 817V1090Q301 1118 417.0 1132.5Q533 1147 649 1147Q952 1147 1086.5 1027.5Q1221 908 1221 639Z" transform="translate(136.4275 176) scale(0.0073 -0.0073)" />
    <path d="M768 231Q883 231 943.5 315.0Q1004 399 1004 559Q1004 719 943.5 803.0Q883 887 768 887Q653 887 591.5 802.5Q530 718 530 559Q530 400 591.5 315.5Q653 231 768 231ZM530 956Q604 1054 694.0 1100.5Q784 1147 901 1147Q1108 1147 1241.0 982.5Q1374 818 1374 559Q1374 300 1241.0 135.5Q1108 -29 901 -29Q784 -29 694.0 17.5Q604 64 530 162V0H172V1556H530Z" transform="translate(146.5496 176) scale(0.0073 -0.0073)" />
    <path d="M172 1556H530V0H172Z" transform="translate(157.2869 176) scale(0.0073 -0.0073)" />
    <path d="M1290 563V461H453Q466 335 544.0 272.0Q622 209 762 209Q875 209 993.5 242.5Q1112 276 1237 344V68Q1110 20 983.0 -4.5Q856 -29 729 -29Q425 -29 256.5 125.5Q88 280 88 559Q88 833 253.5 990.0Q419 1147 709 1147Q973 1147 1131.5 988.0Q1290 829 1290 563ZM922 682Q922 784 862.5 846.5Q803 909 707 909Q603 909 538.0 850.5Q473 792 457 682Z" transform="translate(162.4285 176) scale(0.0073 -0.0073)" />
    <path d="M176 1556H797V1331H516V-45H797V-270H176Z" transform="translate(172.6018 176) scale(0.0073 -0.0073)" />
    <path d="M1004 815Q957 837 910.5 847.5Q864 858 817 858Q679 858 604.5 769.5Q530 681 530 516V0H172V1120H530V936Q599 1046 688.5 1096.5Q778 1147 903 1147Q921 1147 942.0 1145.5Q963 1144 1003 1139Z" transform="translate(179.4573 176) scale(0.0073 -0.0073)" />
    <path d="M1290 563V461H453Q466 335 544.0 272.0Q622 209 762 209Q875 209 993.5 242.5Q1112 276 1237 344V68Q1110 20 983.0 -4.5Q856 -29 729 -29Q425 -29 256.5 125.5Q88 280 88 559Q88 833 253.5 990.0Q419 1147 709 1147Q973 1147 1131.5 988.0Q1290 829 1290 563ZM922 682Q922 784 862.5 846.5Q803 909 707 909Q603 909 538.0 850.5Q473 792 457 682Z" transform="translate(186.8547 176) scale(0.0073 -0.0073)" />
    <path d="M674 504Q562 504 505.5 466.0Q449 428 449 354Q449 286 494.5 247.5Q540 209 621 209Q722 209 791.0 281.5Q860 354 860 463V504ZM1221 639V0H860V166Q788 64 698.0 17.5Q608 -29 479 -29Q305 -29 196.5 72.5Q88 174 88 336Q88 533 223.5 625.0Q359 717 649 717H860V745Q860 830 793.0 869.5Q726 909 584 909Q469 909 370.0 886.0Q271 863 186 817V1090Q301 1118 417.0 1132.5Q533 1147 649 1147Q952 1147 1086.5 1027.5Q1221 908 1221 639Z" transform="translate(197.0281 176) scale(0.0073 -0.0073)" />
    <path d="M934 956V1556H1294V0H934V162Q860 63 771.0 17.0Q682 -29 565 -29Q358 -29 225.0 135.5Q92 300 92 559Q92 818 225.0 982.5Q358 1147 565 1147Q681 1147 770.5 1100.5Q860 1054 934 956ZM698 231Q813 231 873.5 315.0Q934 399 934 559Q934 719 873.5 803.0Q813 887 698 887Q584 887 523.5 803.0Q463 719 463 559Q463 399 523.5 315.0Q584 231 698 231Z" transform="translate(207.1501 176) scale(0.0073 -0.0073)" />
    <path d="M1024 -293V-483H0V-293Z" transform="translate(217.8875 176) scale(0.0073 -0.0073)" />
    <path d="M909 1556V1321H711Q635 1321 605.0 1293.5Q575 1266 575 1198V1120H881V864H575V0H217V864H39V1120H217V1198Q217 1381 319.0 1468.5Q421 1556 635 1556Z" transform="translate(225.3875 176) scale(0.0073 -0.0073)" />
    <path d="M934 956V1556H1294V0H934V162Q860 63 771.0 17.0Q682 -29 565 -29Q358 -29 225.0 135.5Q92 300 92 559Q92 818 225.0 982.5Q358 1147 565 1147Q681 1147 770.5 1100.5Q860 1054 934 956ZM698 231Q813 231 873.5 315.0Q934 399 934 559Q934 719 873.5 803.0Q813 887 698 887Q584 887 523.5 803.0Q463 719 463 559Q463 399 523.5 315.0Q584 231 698 231Z" transform="translate(231.9133 176) scale(0.0073 -0.0073)" />
    <path d="M760 -270H139V-45H420V1331H139V1556H760Z" transform="translate(242.6506 176) scale(0.0073 -0.0073)" />
  </g>
  <g data-text="Arc&lt;dyn File&gt;" fill="#374151">
    <path d="M1094 272H492L397 0H10L563 1493H1022L1575 0H1188ZM588 549H997L793 1143Z" transform="translate(120.9282 202) scale(0.0068 -0.0068)" />
    <path d="M1004 815Q957 837 910.5 847.5Q864 858 817 858Q679 858 604.5 769.5Q530 681 530 516V0H172V1120H530V936Q599 1046 688.5 1096.5Q778 1147 903 1147Q921 1147 942.0 1145.5Q963 1144 1003 1139Z" transform="translate(131.7632 202) scale(0.0068 -0.0068)" />
    <path d="M1077 1085V793Q1004 843 930.5 867.0Q857 891 778 891Q628 891 544.5 803.5Q461 716 461 559Q461 402 544.5 314.5Q628 227 778 227Q862 227 937.5 252.0Q1013 277 1077 326V33Q993 2 906.5 -13.5Q820 -29 733 -29Q430 -29 259.0 126.5Q88 282 88 559Q88 836 259.0 991.5Q430 1147 733 1147Q821 1147 906.5 1131.5Q992 1116 1077 1085Z" transform="translate(138.6675 202) scale(0.0068 -0.0068)" />
    <path d="M1499 973 535 641 1499 311V61L217 524V760L1499 1223Z" transform="translate(146.9663 202) scale(0.0068 -0.0068)" />
    <path d="M934 956V1556H1294V0H934V162Q860 63 771.0 17.0Q682 -29 565 -29Q358 -29 225.0 135.5Q92 300 92 559Q92 818 225.0 982.5Q358 1147 565 1147Q681 1147 770.5 1100.5Q860 1054 934 956ZM698 231Q813 231 873.5 315.0Q934 399 934 559Q934 719 873.5 803.0Q813 887 698 887Q584 887 523.5 803.0Q463 719 463 559Q463 399 523.5 315.0Q584 231 698 231Z" transform="translate(158.6968 202) scale(0.0068 -0.0068)" />
    <path d="M25 1120H383L684 360L940 1120H1298L827 -106Q756 -293 661.5 -367.5Q567 -442 412 -442H205V-207H317Q408 -207 449.5 -178.0Q491 -149 514 -74L524 -43Z" transform="translate(168.7183 202) scale(0.0068 -0.0068)" />
    <path d="M1298 682V0H938V111V522Q938 667 931.5 722.0Q925 777 909 803Q888 838 852.0 857.5Q816 877 770 877Q658 877 594.0 790.5Q530 704 530 551V0H172V1120H530V956Q611 1054 702.0 1100.5Q793 1147 903 1147Q1097 1147 1197.5 1028.0Q1298 909 1298 682Z" transform="translate(177.8442 202) scale(0.0068 -0.0068)" />
    <path d="M188 1493H1227V1202H573V924H1188V633H573V0H188Z" transform="translate(192.6851 202) scale(0.0068 -0.0068)" />
    <path d="M172 1120H530V0H172ZM172 1556H530V1264H172Z" transform="translate(202.2485 202) scale(0.0068 -0.0068)" />
    <path d="M172 1556H530V0H172Z" transform="translate(207.0474 202) scale(0.0068 -0.0068)" />
    <path d="M1290 563V461H453Q466 335 544.0 272.0Q622 209 762 209Q875 209 993.5 242.5Q1112 276 1237 344V68Q1110 20 983.0 -4.5Q856 -29 729 -29Q425 -29 256.5 125.5Q88 280 88 559Q88 833 253.5 990.0Q419 1147 709 1147Q973 1147 1131.5 988.0Q1290 829 1290 563ZM922 682Q922 784 862.5 846.5Q803 909 707 909Q603 909 538.0 850.5Q473 792 457 682Z" transform="translate(211.8462 202) scale(0.0068 -0.0068)" />
    <path d="M217 973V1223L1499 760V524L217 61V311L1182 641Z" transform="translate(221.3413 202) scale(0.0068 -0.0068)" />
  </g>
  <rect class="box proc" x="818" y="115" width="210" height="118" rx="10" />
  <g data-text="Writer Process" fill="#111827">
    <path d="M61 1493H430L688 408L944 1493H1315L1571 408L1829 1493H2195L1843 0H1399L1128 1135L860 0H416Z" transform="translate(848.2007 148) scale(0.0088 -0.0088)" />
    <path d="M1004 815Q957 837 910.5 847.5Q864 858 817 858Q679 858 604.5 769.5Q530 681 530 516V0H172V1120H530V936Q599 1046 688.5 1096.5Q778 1147 903 1147Q921 1147 942.0 1145.5Q963 1144 1003 1139Z" transform="translate(868.0552 148) scale(0.0088 -0.0088)" />
    <path d="M172 1120H530V0H172ZM172 1556H530V1264H172Z" transform="translate(876.9321 148) scale(0.0088 -0.0088)" />
    <path d="M563 1438V1120H932V864H563V389Q563 311 594.0 283.5Q625 256 717 256H901V0H594Q382 0 293.5 88.5Q205 177 205 389V864H27V1120H205V1438Z" transform="translate(883.1021 148) scale(0.0088 -0.0088)" />
    <path d="M1290 563V461H453Q466 335 544.0 272.0Q622 209 762 209Q875 209 993.5 242.5Q1112 276 1237 344V68Q1110 20 983.0 -4.5Q856 -29 729 -29Q425 -29 256.5 125.5Q88 280 88 559Q88 833 253.5 990.0Q419 1147 709 1147Q973 1147 1131.5 988.0Q1290 829 1290 563ZM922 682Q922 784 862.5 846.5Q803 909 707 909Q603 909 538.0 850.5Q473 792 457 682Z" transform="translate(891.7065 148) scale(0.0088 -0.0088)" />
    <path d="M1004 815Q957 837 910.5 847.5Q864 858 817 858Q679 858 604.5 769.5Q530 681 530 516V0H172V1120H530V936Q599 1046 688.5 1096.5Q778 1147 903 1147Q921 1147 942.0 1145.5Q963 1144 1003 1139Z" transform="translate(903.9146 148) scale(0.0088 -0.0088)" />
    <path d="M188 1493H827Q1112 1493 1264.5 1366.5Q1417 1240 1417 1006Q1417 771 1264.5 644.5Q1112 518 827 518H573V0H188ZM573 1214V797H786Q898 797 959.0 851.5Q1020 906 1020 1006Q1020 1106 959.0 1160.0Q898 1214 786 1214Z" transform="translate(919.0581 148) scale(0.0088 -0.0088)" />
    <path d="M1004 815Q957 837 910.5 847.5Q864 858 817 858Q679 858 604.5 769.5Q530 681 530 516V0H172V1120H530V936Q599 1046 688.5 1096.5Q778 1147 903 1147Q921 1147 942.0 1145.5Q963 1144 1003 1139Z" transform="translate(932.2505 148) scale(0.0088 -0.0088)" />
    <path d="M705 891Q586 891 523.5 805.5Q461 720 461 559Q461 398 523.5 312.5Q586 227 705 227Q822 227 884.0 312.5Q946 398 946 559Q946 720 884.0 805.5Q822 891 705 891ZM705 1147Q994 1147 1156.5 991.0Q1319 835 1319 559Q1319 283 1156.5 127.0Q994 -29 705 -29Q415 -29 251.5 127.0Q88 283 88 559Q88 835 251.5 991.0Q415 1147 705 1147Z" transform="translate(941.1274 148) scale(0.0088 -0.0088)" />
    <path d="M1077 1085V793Q1004 843 930.5 867.0Q857 891 778 891Q628 891 544.5 803.5Q461 716 461 559Q461 402 544.5 314.5Q628 227 778 227Q862 227 937.5 252.0Q1013 277 1077 326V33Q993 2 906.5 -13.5Q820 -29 733 -29Q430 -29 259.0 126.5Q88 282 88 559Q88 836 259.0 991.5Q430 1147 733 1147Q821 1147 906.5 1131.5Q992 1116 1077 1085Z" transform="translate(953.4937 148) scale(0.0088 -0.0088)" />
    <path d="M1290 563V461H453Q466 335 544.0 272.0Q622 209 762 209Q875 209 993.5 242.5Q1112 276 1237 344V68Q1110 20 983.0 -4.5Q856 -29 729 -29Q425 -29 256.5 125.5Q88 280 88 559Q88 833 253.5 990.0Q419 1147 709 1147Q973 1147 1131.5 988.0Q1290 829 1290 563ZM922 682Q922 784 862.5 846.5Q803 909 707 909Q603 909 538.0 850.5Q473 792 457 682Z" transform="translate(964.1636 148) scale(0.0088 -0.0088)" />
    <path d="M1047 1085V813Q932 861 825.0 885.0Q718 909 623 909Q521 909 471.5 883.5Q422 858 422 805Q422 762 459.5 739.0Q497 716 594 705L657 696Q932 661 1027.0 581.0Q1122 501 1122 330Q1122 151 990.0 61.0Q858 -29 596 -29Q485 -29 366.5 -11.5Q248 6 123 41V313Q230 261 342.5 235.0Q455 209 571 209Q676 209 729.0 238.0Q782 267 782 324Q782 372 745.5 395.5Q709 419 600 432L537 440Q298 470 202.0 551.0Q106 632 106 797Q106 975 228.0 1061.0Q350 1147 602 1147Q701 1147 810.0 1132.0Q919 1117 1047 1085Z" transform="translate(976.3716 148) scale(0.0088 -0.0088)" />
    <path d="M1047 1085V813Q932 861 825.0 885.0Q718 909 623 909Q521 909 471.5 883.5Q422 858 422 805Q422 762 459.5 739.0Q497 716 594 705L657 696Q932 661 1027.0 581.0Q1122 501 1122 330Q1122 151 990.0 61.0Q858 -29 596 -29Q485 -29 366.5 -11.5Q248 6 123 41V313Q230 261 342.5 235.0Q455 209 571 209Q676 209 729.0 238.0Q782 267 782 324Q782 372 745.5 395.5Q709 419 600 432L537 440Q298 470 202.0 551.0Q106 632 106 797Q106 975 228.0 1061.0Q350 1147 602 1147Q701 1147 810.0 1132.0Q919 1117 1047 1085Z" transform="translate(987.0854 148) scale(0.0088 -0.0088)" />
  </g>
  <g data-text="fd_table[write_fd]" fill="#1f2937">
    <path d="M909 1556V1321H711Q635 1321 605.0 1293.5Q575 1266 575 1198V1120H881V864H575V0H217V864H39V1120H217V1198Q217 1381 319.0 1468.5Q421 1556 635 1556Z" transform="translate(847.8389 176) scale(0.0073 -0.0073)" />
    <path d="M934 956V1556H1294V0H934V162Q860 63 771.0 17.0Q682 -29 565 -29Q358 -29 225.0 135.5Q92 300 92 559Q92 818 225.0 982.5Q358 1147 565 1147Q681 1147 770.5 1100.5Q860 1054 934 956ZM698 231Q813 231 873.5 315.0Q934 399 934 559Q934 719 873.5 803.0Q813 887 698 887Q584 887 523.5 803.0Q463 719 463 559Q463 399 523.5 315.0Q584 231 698 231Z" transform="translate(854.3647 176) scale(0.0073 -0.0073)" />
    <path d="M1024 -293V-483H0V-293Z" transform="translate(865.1021 176) scale(0.0073 -0.0073)" />
    <path d="M563 1438V1120H932V864H563V389Q563 311 594.0 283.5Q625 256 717 256H901V0H594Q382 0 293.5 88.5Q205 177 205 389V864H27V1120H205V1438Z" transform="translate(872.6021 176) scale(0.0073 -0.0073)" />
    <path d="M674 504Q562 504 505.5 466.0Q449 428 449 354Q449 286 494.5 247.5Q540 209 621 209Q722 209 791.0 281.5Q860 354 860 463V504ZM1221 639V0H860V166Q788 64 698.0 17.5Q608 -29 479 -29Q305 -29 196.5 72.5Q88 174 88 336Q88 533 223.5 625.0Q359 717 649 717H860V745Q860 830 793.0 869.5Q726 909 584 909Q469 909 370.0 886.0Q271 863 186 817V1090Q301 1118 417.0 1132.5Q533 1147 649 1147Q952 1147 1086.5 1027.5Q1221 908 1221 639Z" transform="translate(879.7725 176) scale(0.0073 -0.0073)" />
    <path d="M768 231Q883 231 943.5 315.0Q1004 399 1004 559Q1004 719 943.5 803.0Q883 887 768 887Q653 887 591.5 802.5Q530 718 530 559Q530 400 591.5 315.5Q653 231 768 231ZM530 956Q604 1054 694.0 1100.5Q784 1147 901 1147Q1108 1147 1241.0 982.5Q1374 818 1374 559Q1374 300 1241.0 135.5Q1108 -29 901 -29Q784 -29 694.0 17.5Q604 64 530 162V0H172V1556H530Z" transform="translate(889.8945 176) scale(0.0073 -0.0073)" />
    <path d="M172 1556H530V0H172Z" transform="translate(900.6318 176) scale(0.0073 -0.0073)" />
    <path d="M1290 563V461H453Q466 335 544.0 272.0Q622 209 762 209Q875 209 993.5 242.5Q1112 276 1237 344V68Q1110 20 983.0 -4.5Q856 -29 729 -29Q425 -29 256.5 125.5Q88 280 88 559Q88 833 253.5 990.0Q419 1147 709 1147Q973 1147 1131.5 988.0Q1290 829 1290 563ZM922 682Q922 784 862.5 846.5Q803 909 707 909Q603 909 538.0 850.5Q473 792 457 682Z" transform="translate(905.7734 176) scale(0.0073 -0.0073)" />
    <path d="M176 1556H797V1331H516V-45H797V-270H176Z" transform="translate(915.9468 176) scale(0.0073 -0.0073)" />
    <path d="M72 1120H420L608 348L797 1120H1096L1284 356L1473 1120H1821L1526 0H1135L946 770L758 0H367Z" transform="translate(922.8022 176) scale(0.0073 -0.0073)" />
    <path d="M1004 815Q957 837 910.5 847.5Q864 858 817 858Q679 858 604.5 769.5Q530 681 530 516V0H172V1120H530V936Q599 1046 688.5 1096.5Q778 1147 903 1147Q921 1147 942.0 1145.5Q963 1144 1003 1139Z" transform="translate(936.6597 176) scale(0.0073 -0.0073)" />
    <path d="M172 1120H530V0H172ZM172 1556H530V1264H172Z" transform="translate(944.0571 176) scale(0.0073 -0.0073)" />
    <path d="M563 1438V1120H932V864H563V389Q563 311 594.0 283.5Q625 256 717 256H901V0H594Q382 0 293.5 88.5Q205 177 205 389V864H27V1120H205V1438Z" transform="translate(949.1987 176) scale(0.0073 -0.0073)" />
    <path d="M1290 563V461H453Q466 335 544.0 272.0Q622 209 762 209Q875 209 993.5 242.5Q1112 276 1237 344V68Q1110 20 983.0 -4.5Q856 -29 729 -29Q425 -29 256.5 125.5Q88 280 88 559Q88 833 253.5 990.0Q419 1147 709 1147Q973 1147 1131.5 988.0Q1290 829 1290 563ZM922 682Q922 784 862.5 846.5Q803 909 707 909Q603 909 538.0 850.5Q473 792 457 682Z" transform="translate(956.3691 176) scale(0.0073 -0.0073)" />
    <path d="M1024 -293V-483H0V-293Z" transform="translate(966.5425 176) scale(0.0073 -0.0073)" />
    <path d="M909 1556V1321H711Q635 1321 605.0 1293.5Q575 1266 575 1198V1120H881V864H575V0H217V864H39V1120H217V1198Q217 1381 319.0 1468.5Q421 1556 635 1556Z" transform="translate(974.0425 176) scale(0.0073 -0.0073)" />
    <path d="M934 956V1556H1294V0H934V162Q860 63 771.0 17.0Q682 -29 565 -29Q358 -29 225.0 135.5Q92 300 92 559Q92 818 225.0 982.5Q358 1147 565 1147Q681 1147 770.5 1100.5Q860 1054 934 956ZM698 231Q813 231 873.5 315.0Q934 399 934 559Q934 719 873.5 803.0Q813 887 698 887Q584 887 523.5 803.0Q463 719 463 559Q463 399 523.5 315.0Q584 231 698 231Z" transform="translate(980.5684 176) scale(0.0073 -0.0073)" />
    <path d="M760 -270H139V-45H420V1331H139V1556H760Z" transform="translate(991.3057 176) scale(0.0073 -0.0073)" />
  </g>
  <g data-text="Arc&lt;dyn File&gt;" fill="#374151">
    <path d="M1094 272H492L397 0H10L563 1493H1022L1575 0H1188ZM588 549H997L793 1143Z" transform="translate(866.9282 202) scale(0.0068 -0.0068)" />
    <path d="M1004 815Q957 837 910.5 847.5Q864 858 817 858Q679 858 604.5 769.5Q530 681 530 516V0H172V1120H530V936Q599 1046 688.5 1096.5Q778 1147 903 1147Q921 1147 942.0 1145.5Q963 1144 1003 1139Z" transform="translate(877.7632 202) scale(0.0068 -0.0068)" />
    <path d="M1077 1085V793Q1004 843 930.5 867.0Q857 891 778 891Q628 891 544.5 803.5Q461 716 461 559Q461 402 544.5 314.5Q628 227 778 227Q862 227 937.5 252.0Q1013 277 1077 326V33Q993 2 906.5 -13.5Q820 -29 733 -29Q430 -29 259.0 126.5Q88 282 88 559Q88 836 259.0 991.5Q430 1147 733 1147Q821 1147 906.5 1131.5Q992 1116 1077 1085Z" transform="translate(884.6675 202) scale(0.0068 -0.0068)" />
    <path d="M1499 973 535 641 1499 311V61L217 524V760L1499 1223Z" transform="translate(892.9663 202) scale(0.0068 -0.0068)" />
    <path d="M934 956V1556H1294V0H934V162Q860 63 771.0 17.0Q682 -29 565 -29Q358 -29 225.0 135.5Q92 300 92 559Q92 818 225.0 982.5Q358 1147 565 1147Q681 1147 770.5 1100.5Q860 1054 934 956ZM698 231Q813 231 873.5 315.0Q934 399 934 559Q934 719 873.5 803.0Q813 887 698 887Q584 887 523.5 803.0Q463 719 463 559Q463 399 523.5 315.0Q584 231 698 231Z" transform="translate(904.6968 202) scale(0.0068 -0.0068)" />
    <path d="M25 1120H383L684 360L940 1120H1298L827 -106Q756 -293 661.5 -367.5Q567 -442 412 -442H205V-207H317Q408 -207 449.5 -178.0Q491 -149 514 -74L524 -43Z" transform="translate(914.7183 202) scale(0.0068 -0.0068)" />
    <path d="M1298 682V0H938V111V522Q938 667 931.5 722.0Q925 777 909 803Q888 838 852.0 857.5Q816 877 770 877Q658 877 594.0 790.5Q530 704 530 551V0H172V1120H530V956Q611 1054 702.0 1100.5Q793 1147 903 1147Q1097 1147 1197.5 1028.0Q1298 909 1298 682Z" transform="translate(923.8442 202) scale(0.0068 -0.0068)" />
    <path d="M188 1493H1227V1202H573V924H1188V633H573V0H188Z" transform="translate(938.6851 202) scale(0.0068 -0.0068)" />
    <path d="M172 1120H530V0H172ZM172 1556H530V1264H172Z" transform="translate(948.2485 202) scale(0.0068 -0.0068)" />
    <path d="M172 1556H530V0H172Z" transform="translate(953.0474 202) scale(0.0068 -0.0068)" />
    <path d="M1290 563V461H453Q466 335 544.0 272.0Q622 209 762 209Q875 209 993.5 242.5Q1112 276 1237 344V68Q1110 20 983.0 -4.5Q856 -29 729 -29Q425 -29 256.5 125.5Q88 280 88 559Q88 833 253.5 990.0Q419 1147 709 1147Q973 1147 1131.5 988.0Q1290 829 1290 563ZM922 682Q922 784 862.5 846.5Q803 909 707 909Q603 909 538.0 850.5Q473 792 457 682Z" transform="translate(957.8462 202) scale(0.0068 -0.0068)" />
    <path d="M217 973V1223L1499 760V524L217 61V311L1182 641Z" transform="translate(967.3413 202) scale(0.0068 -0.0068)" />
  </g>
  <!-- Pipe endpoints -->
  <rect class="box pipe-r" x="355" y="105" width="150" height="92" rx="10" />
  <g data-text="Pipe" fill="#111827">
    <path d="M188 1493H827Q1112 1493 1264.5 1366.5Q1417 1240 1417 1006Q1417 771 1264.5 644.5Q1112 518 827 518H573V0H188ZM573 1214V797H786Q898 797 959.0 851.5Q1020 906 1020 1006Q1020 1106 959.0 1160.0Q898 1214 786 1214Z" transform="translate(407.7725 138) scale(0.0088 -0.0088)" />
    <path d="M172 1120H530V0H172ZM172 1556H530V1264H172Z" transform="translate(420.9648 138) scale(0.0088 -0.0088)" />
    <path d="M530 162V-426H172V1120H530V956Q604 1054 694.0 1100.5Q784 1147 901 1147Q1108 1147 1241.0 982.5Q1374 818 1374 559Q1374 300 1241.0 135.5Q1108 -29 901 -29Q784 -29 694.0 17.5Q604 64 530 162ZM768 887Q653 887 591.5 802.5Q530 718 530 559Q530 400 591.5 315.5Q653 231 768 231Q883 231 943.5 315.0Q1004 399 1004 559Q1004 719 943.5 803.0Q883 887 768 887Z" transform="translate(427.1348 138) scale(0.0088 -0.0088)" />
    <path d="M1290 563V461H453Q466 335 544.0 272.0Q622 209 762 209Q875 209 993.5 242.5Q1112 276 1237 344V68Q1110 20 983.0 -4.5Q856 -29 729 -29Q425 -29 256.5 125.5Q88 280 88 559Q88 833 253.5 990.0Q419 1147 709 1147Q973 1147 1131.5 988.0Q1290 829 1290 563ZM922 682Q922 784 862.5 846.5Q803 909 707 909Q603 909 538.0 850.5Q473 792 457 682Z" transform="translate(440.0195 138) scale(0.0088 -0.0088)" />
  </g>
  <g data-text="read end" fill="#1f2937">
    <path d="M1004 815Q957 837 910.5 847.5Q864 858 817 858Q679 858 604.5 769.5Q530 681 530 516V0H172V1120H530V936Q599 1046 688.5 1096.5Q778 1147 903 1147Q921 1147 942.0 1145.5Q963 1144 1003 1139Z" transform="translate(392.3792 164) scale(0.0073 -0.0073)" />
    <path d="M1290 563V461H453Q466 335 544.0 272.0Q622 209 762 209Q875 209 993.5 242.5Q1112 276 1237 344V68Q1110 20 983.0 -4.5Q856 -29 729 -29Q425 -29 256.5 125.5Q88 280 88 559Q88 833 253.5 990.0Q419 1147 709 1147Q973 1147 1131.5 988.0Q1290 829 1290 563ZM922 682Q922 784 862.5 846.5Q803 909 707 909Q603 909 538.0 850.5Q473 792 457 682Z" transform="translate(399.7766 164) scale(0.0073 -0.0073)" />
    <path d="M674 504Q562 504 505.5 466.0Q449 428 449 354Q449 286 494.5 247.5Q540 209 621 209Q722 209 791.0 281.5Q860 354 860 463V504ZM1221 639V0H860V166Q788 64 698.0 17.5Q608 -29 479 -29Q305 -29 196.5 72.5Q88 174 88 336Q88 533 223.5 625.0Q359 717 649 717H860V745Q860 830 793.0 869.5Q726 909 584 909Q469 909 370.0 886.0Q271 863 186 817V1090Q301 1118 417.0 1132.5Q533 1147 649 1147Q952 1147 1086.5 1027.5Q1221 908 1221 639Z" transform="translate(409.95 164) scale(0.0073 -0.0073)" />
    <path d="M934 956V1556H1294V0H934V162Q860 63 771.0 17.0Q682 -29 565 -29Q358 -29 225.0 135.5Q92 300 92 559Q92 818 225.0 982.5Q358 1147 565 1147Q681 1147 770.5 1100.5Q860 1054 934 956ZM698 231Q813 231 873.5 315.0Q934 399 934 559Q934 719 873.5 803.0Q813 887 698 887Q584 887 523.5 803.0Q463 719 463 559Q463 399 523.5 315.0Q584 231 698 231Z" transform="translate(420.072 164) scale(0.0073 -0.0073)" />
    <path d="M1290 563V461H453Q466 335 544.0 272.0Q622 209 762 209Q875 209 993.5 242.5Q1112 276 1237 344V68Q1110 20 983.0 -4.5Q856 -29 729 -29Q425 -29 256.5 125.5Q88 280 88 559Q88 833 253.5 990.0Q419 1147 709 1147Q973 1147 1131.5 988.0Q1290 829 1290 563ZM922 682Q922 784 862.5 846.5Q803 909 707 909Q603 909 538.0 850.5Q473 792 457 682Z" transform="translate(436.0315 164) scale(0.0073 -0.0073)" />
    <path d="M1298 682V0H938V111V522Q938 667 931.5 722.0Q925 777 909 803Q888 838 852.0 857.5Q816 877 770 877Q658 877 594.0 790.5Q530 704 530 551V0H172V1120H530V956Q611 1054 702.0 1100.5Q793 1147 903 1147Q1097 1147 1197.5 1028.0Q1298 909 1298 682Z" transform="translate(446.2048 164) scale(0.0073 -0.0073)" />
    <path d="M934 956V1556H1294V0H934V162Q860 63 771.0 17.0Q682 -29 565 -29Q358 -29 225.0 135.5Q92 300 92 559Q92 818 225.0 982.5Q358 1147 565 1147Q681 1147 770.5 1100.5Q860 1054 934 956ZM698 231Q813 231 873.5 315.0Q934 399 934 559Q934 719 873.5 803.0Q813 887 698 887Q584 887 523.5 803.0Q463 719 463 559Q463 399 523.5 315.0Q584 231 698 231Z" transform="translate(456.8835 164) scale(0.0073 -0.0073)" />
  </g>
  <g data-text="readable" fill="#374151">
    <path d="M1004 815Q957 837 910.5 847.5Q864 858 817 858Q679 858 604.5 769.5Q530 681 530 516V0H172V1120H530V936Q599 1046 688.5 1096.5Q778 1147 903 1147Q921 1147 942.0 1145.5Q963 1144 1003 1139Z" transform="translate(395.1846 184) scale(0.0068 -0.0068)" />
    <path d="M1290 563V461H453Q466 335 544.0 272.0Q622 209 762 209Q875 209 993.5 242.5Q1112 276 1237 344V68Q1110 20 983.0 -4.5Q856 -29 729 -29Q425 -29 256.5 125.5Q88 280 88 559Q88 833 253.5 990.0Q419 1147 709 1147Q973 1147 1131.5 988.0Q1290 829 1290 563ZM922 682Q922 784 862.5 846.5Q803 909 707 909Q603 909 538.0 850.5Q473 792 457 682Z" transform="translate(402.0889 184) scale(0.0068 -0.0068)" />
    <path d="M674 504Q562 504 505.5 466.0Q449 428 449 354Q449 286 494.5 247.5Q540 209 621 209Q722 209 791.0 281.5Q860 354 860 463V504ZM1221 639V0H860V166Q788 64 698.0 17.5Q608 -29 479 -29Q305 -29 196.5 72.5Q88 174 88 336Q88 533 223.5 625.0Q359 717 649 717H860V745Q860 830 793.0 869.5Q726 909 584 909Q469 909 370.0 886.0Q271 863 186 817V1090Q301 1118 417.0 1132.5Q533 1147 649 1147Q952 1147 1086.5 1027.5Q1221 908 1221 639Z" transform="translate(411.584 184) scale(0.0068 -0.0068)" />
    <path d="M934 956V1556H1294V0H934V162Q860 63 771.0 17.0Q682 -29 565 -29Q358 -29 225.0 135.5Q92 300 92 559Q92 818 225.0 982.5Q358 1147 565 1147Q681 1147 770.5 1100.5Q860 1054 934 956ZM698 231Q813 231 873.5 315.0Q934 399 934 559Q934 719 873.5 803.0Q813 887 698 887Q584 887 523.5 803.0Q463 719 463 559Q463 399 523.5 315.0Q584 231 698 231Z" transform="translate(421.0312 184) scale(0.0068 -0.0068)" />
    <path d="M674 504Q562 504 505.5 466.0Q449 428 449 354Q449 286 494.5 247.5Q540 209 621 209Q722 209 791.0 281.5Q860 354 860 463V504ZM1221 639V0H860V166Q788 64 698.0 17.5Q608 -29 479 -29Q305 -29 196.5 72.5Q88 174 88 336Q88 533 223.5 625.0Q359 717 649 717H860V745Q860 830 793.0 869.5Q726 909 584 909Q469 909 370.0 886.0Q271 863 186 817V1090Q301 1118 417.0 1132.5Q533 1147 649 1147Q952 1147 1086.5 1027.5Q1221 908 1221 639Z" transform="translate(431.0527 184) scale(0.0068 -0.0068)" />
    <path d="M768 231Q883 231 943.5 315.0Q1004 399 1004 559Q1004 719 943.5 803.0Q883 887 768 887Q653 887 591.5 802.5Q530 718 530 559Q530 400 591.5 315.5Q653 231 768 231ZM530 956Q604 1054 694.0 1100.5Q784 1147 901 1147Q1108 1147 1241.0 982.5Q1374 818 1374 559Q1374 300 1241.0 135.5Q1108 -29 901 -29Q784 -29 694.0 17.5Q604 64 530 162V0H172V1556H530Z" transform="translate(440.5 184) scale(0.0068 -0.0068)" />
    <path d="M172 1556H530V0H172Z" transform="translate(450.5215 184) scale(0.0068 -0.0068)" />
    <path d="M1290 563V461H453Q466 335 544.0 272.0Q622 209 762 209Q875 209 993.5 242.5Q1112 276 1237 344V68Q1110 20 983.0 -4.5Q856 -29 729 -29Q425 -29 256.5 125.5Q88 280 88 559Q88 833 253.5 990.0Q419 1147 709 1147Q973 1147 1131.5 988.0Q1290 829 1290 563ZM922 682Q922 784 862.5 846.5Q803 909 707 909Q603 909 538.0 850.5Q473 792 457 682Z" transform="translate(455.3203 184) scale(0.0068 -0.0068)" />
  </g>
  <rect class="box pipe-w" x="595" y="105" width="150" height="92" rx="10" />
  <g data-text="Pipe" fill="#111827">
    <path d="M188 1493H827Q1112 1493 1264.5 1366.5Q1417 1240 1417 1006Q1417 771 1264.5 644.5Q1112 518 827 518H573V0H188ZM573 1214V797H786Q898 797 959.0 851.5Q1020 906 1020 1006Q1020 1106 959.0 1160.0Q898 1214 786 1214Z" transform="translate(647.7725 138) scale(0.0088 -0.0088)" />
    <path d="M172 1120H530V0H172ZM172 1556H530V1264H172Z" transform="translate(660.9648 138) scale(0.0088 -0.0088)" />
    <path d="M530 162V-426H172V1120H530V956Q604 1054 694.0 1100.5Q784 1147 901 1147Q1108 1147 1241.0 982.5Q1374 818 1374 559Q1374 300 1241.0 135.5Q1108 -29 901 -29Q784 -29 694.0 17.5Q604 64 530 162ZM768 887Q653 887 591.5 802.5Q530 718 530 559Q530 400 591.5 315.5Q653 231 768 231Q883 231 943.5 315.0Q1004 399 1004 559Q1004 719 943.5 803.0Q883 887 768 887Z" transform="translate(667.1348 138) scale(0.0088 -0.0088)" />
    <path d="M1290 563V461H453Q466 335 544.0 272.0Q622 209 762 209Q875 209 993.5 242.5Q1112 276 1237 344V68Q1110 20 983.0 -4.5Q856 -29 729 -29Q425 -29 256.5 125.5Q88 280 88 559Q88 833 253.5 990.0Q419 1147 709 1147Q973 1147 1131.5 988.0Q1290 829 1290 563ZM922 682Q922 784 862.5 846.5Q803 909 707 909Q603 909 538.0 850.5Q473 792 457 682Z" transform="translate(680.0195 138) scale(0.0088 -0.0088)" />
  </g>
  <g data-text="write end" fill="#1f2937">
    <path d="M72 1120H420L608 348L797 1120H1096L1284 356L1473 1120H1821L1526 0H1135L946 770L758 0H367Z" transform="translate(629.7241 164) scale(0.0073 -0.0073)" />
    <path d="M1004 815Q957 837 910.5 847.5Q864 858 817 858Q679 858 604.5 769.5Q530 681 530 516V0H172V1120H530V936Q599 1046 688.5 1096.5Q778 1147 903 1147Q921 1147 942.0 1145.5Q963 1144 1003 1139Z" transform="translate(643.5815 164) scale(0.0073 -0.0073)" />
    <path d="M172 1120H530V0H172ZM172 1556H530V1264H172Z" transform="translate(650.979 164) scale(0.0073 -0.0073)" />
    <path d="M563 1438V1120H932V864H563V389Q563 311 594.0 283.5Q625 256 717 256H901V0H594Q382 0 293.5 88.5Q205 177 205 389V864H27V1120H205V1438Z" transform="translate(656.1206 164) scale(0.0073 -0.0073)" />
    <path d="M1290 563V461H453Q466 335 544.0 272.0Q622 209 762 209Q875 209 993.5 242.5Q1112 276 1237 344V68Q1110 20 983.0 -4.5Q856 -29 729 -29Q425 -29 256.5 125.5Q88 280 88 559Q88 833 253.5 990.0Q419 1147 709 1147Q973 1147 1131.5 988.0Q1290 829 1290 563ZM922 682Q922 784 862.5 846.5Q803 909 707 909Q603 909 538.0 850.5Q473 792 457 682Z" transform="translate(663.291 164) scale(0.0073 -0.0073)" />
    <path d="M1290 563V461H453Q466 335 544.0 272.0Q622 209 762 209Q875 209 993.5 242.5Q1112 276 1237 344V68Q1110 20 983.0 -4.5Q856 -29 729 -29Q425 -29 256.5 125.5Q88 280 88 559Q88 833 253.5 990.0Q419 1147 709 1147Q973 1147 1131.5 988.0Q1290 829 1290 563ZM922 682Q922 784 862.5 846.5Q803 909 707 909Q603 909 538.0 850.5Q473 792 457 682Z" transform="translate(678.6865 164) scale(0.0073 -0.0073)" />
    <path d="M1298 682V0H938V111V522Q938 667 931.5 722.0Q925 777 909 803Q888 838 852.0 857.5Q816 877 770 877Q658 877 594.0 790.5Q530 704 530 551V0H172V1120H530V956Q611 1054 702.0 1100.5Q793 1147 903 1147Q1097 1147 1197.5 1028.0Q1298 909 1298 682Z" transform="translate(688.8599 164) scale(0.0073 -0.0073)" />
    <path d="M934 956V1556H1294V0H934V162Q860 63 771.0 17.0Q682 -29 565 -29Q358 -29 225.0 135.5Q92 300 92 559Q92 818 225.0 982.5Q358 1147 565 1147Q681 1147 770.5 1100.5Q860 1054 934 956ZM698 231Q813 231 873.5 315.0Q934 399 934 559Q934 719 873.5 803.0Q813 887 698 887Q584 887 523.5 803.0Q463 719 463 559Q463 399 523.5 315.0Q584 231 698 231Z" transform="translate(699.5386 164) scale(0.0073 -0.0073)" />
  </g>
  <g data-text="writable" fill="#374151">
    <path d="M72 1120H420L608 348L797 1120H1096L1284 356L1473 1120H1821L1526 0H1135L946 770L758 0H367Z" transform="translate(637.4541 184) scale(0.0068 -0.0068)" />
    <path d="M1004 815Q957 837 910.5 847.5Q864 858 817 858Q679 858 604.5 769.5Q530 681 530 516V0H172V1120H530V936Q599 1046 688.5 1096.5Q778 1147 903 1147Q921 1147 942.0 1145.5Q963 1144 1003 1139Z" transform="translate(650.3877 184) scale(0.0068 -0.0068)" />
    <path d="M172 1120H530V0H172ZM172 1556H530V1264H172Z" transform="translate(657.292 184) scale(0.0068 -0.0068)" />
    <path d="M563 1438V1120H932V864H563V389Q563 311 594.0 283.5Q625 256 717 256H901V0H594Q382 0 293.5 88.5Q205 177 205 389V864H27V1120H205V1438Z" transform="translate(662.0908 184) scale(0.0068 -0.0068)" />
    <path d="M674 504Q562 504 505.5 466.0Q449 428 449 354Q449 286 494.5 247.5Q540 209 621 209Q722 209 791.0 281.5Q860 354 860 463V504ZM1221 639V0H860V166Q788 64 698.0 17.5Q608 -29 479 -29Q305 -29 196.5 72.5Q88 174 88 336Q88 533 223.5 625.0Q359 717 649 717H860V745Q860 830 793.0 869.5Q726 909 584 909Q469 909 370.0 886.0Q271 863 186 817V1090Q301 1118 417.0 1132.5Q533 1147 649 1147Q952 1147 1086.5 1027.5Q1221 908 1221 639Z" transform="translate(668.7832 184) scale(0.0068 -0.0068)" />
    <path d="M768 231Q883 231 943.5 315.0Q1004 399 1004 559Q1004 719 943.5 803.0Q883 887 768 887Q653 887 591.5 802.5Q530 718 530 559Q530 400 591.5 315.5Q653 231 768 231ZM530 956Q604 1054 694.0 1100.5Q784 1147 901 1147Q1108 1147 1241.0 982.5Q1374 818 1374 559Q1374 300 1241.0 135.5Q1108 -29 901 -29Q784 -29 694.0 17.5Q604 64 530 162V0H172V1556H530Z" transform="translate(678.2305 184) scale(0.0068 -0.0068)" />
    <path d="M172 1556H530V0H172Z" transform="translate(688.252 184) scale(0.0068 -0.0068)" />
    <path d="M1290 563V461H453Q466 335 544.0 272.0Q622 209 762 209Q875 209 993.5 242.5Q1112 276 1237 344V68Q1110 20 983.0 -4.5Q856 -29 729 -29Q425 -29 256.5 125.5Q88 280 88 559Q88 833 253.5 990.0Q419 1147 709 1147Q973 1147 1131.5 988.0Q1290 829 1290 563ZM922 682Q922 784 862.5 846.5Q803 909 707 909Q603 909 538.0 850.5Q473 792 457 682Z" transform="translate(693.0508 184) scale(0.0068 -0.0068)" />
  </g>
  <path class="arrow" d="M282 174 L355 156" />
  <path class="arrow" d="M818 174 L745 156" />
  <!-- Shared buffer -->
  <rect class="box ring" x="300" y="285" width="500" height="140" rx="14" />
  <g data-text="Shared PipeRingBuffer" fill="#111827">
    <path d="M1227 1446V1130Q1104 1185 987.0 1213.0Q870 1241 766 1241Q628 1241 562.0 1203.0Q496 1165 496 1085Q496 1025 540.5 991.5Q585 958 702 934L866 901Q1115 851 1220.0 749.0Q1325 647 1325 459Q1325 212 1178.5 91.5Q1032 -29 731 -29Q589 -29 446.0 -2.0Q303 25 160 78V403Q303 327 436.5 288.5Q570 250 694 250Q820 250 887.0 292.0Q954 334 954 412Q954 482 908.5 520.0Q863 558 727 588L578 621Q354 669 250.5 774.0Q147 879 147 1057Q147 1280 291.0 1400.0Q435 1520 705 1520Q828 1520 958.0 1501.5Q1088 1483 1227 1446Z" transform="translate(434.1865 316) scale(0.0088 -0.0088)" />
    <path d="M1298 682V0H938V111V520Q938 667 931.5 722.0Q925 777 909 803Q888 838 852.0 857.5Q816 877 770 877Q658 877 594.0 790.5Q530 704 530 551V0H172V1556H530V956Q611 1054 702.0 1100.5Q793 1147 903 1147Q1097 1147 1197.5 1028.0Q1298 909 1298 682Z" transform="translate(447.1504 316) scale(0.0088 -0.0088)" />
    <path d="M674 504Q562 504 505.5 466.0Q449 428 449 354Q449 286 494.5 247.5Q540 209 621 209Q722 209 791.0 281.5Q860 354 860 463V504ZM1221 639V0H860V166Q788 64 698.0 17.5Q608 -29 479 -29Q305 -29 196.5 72.5Q88 174 88 336Q88 533 223.5 625.0Q359 717 649 717H860V745Q860 830 793.0 869.5Q726 909 584 909Q469 909 370.0 886.0Q271 863 186 817V1090Q301 1118 417.0 1132.5Q533 1147 649 1147Q952 1147 1086.5 1027.5Q1221 908 1221 639Z" transform="translate(459.9648 316) scale(0.0088 -0.0088)" />
    <path d="M1004 815Q957 837 910.5 847.5Q864 858 817 858Q679 858 604.5 769.5Q530 681 530 516V0H172V1120H530V936Q599 1046 688.5 1096.5Q778 1147 903 1147Q921 1147 942.0 1145.5Q963 1144 1003 1139Z" transform="translate(472.1113 316) scale(0.0088 -0.0088)" />
    <path d="M1290 563V461H453Q466 335 544.0 272.0Q622 209 762 209Q875 209 993.5 242.5Q1112 276 1237 344V68Q1110 20 983.0 -4.5Q856 -29 729 -29Q425 -29 256.5 125.5Q88 280 88 559Q88 833 253.5 990.0Q419 1147 709 1147Q973 1147 1131.5 988.0Q1290 829 1290 563ZM922 682Q922 784 862.5 846.5Q803 909 707 909Q603 909 538.0 850.5Q473 792 457 682Z" transform="translate(480.9883 316) scale(0.0088 -0.0088)" />
    <path d="M934 956V1556H1294V0H934V162Q860 63 771.0 17.0Q682 -29 565 -29Q358 -29 225.0 135.5Q92 300 92 559Q92 818 225.0 982.5Q358 1147 565 1147Q681 1147 770.5 1100.5Q860 1054 934 956ZM698 231Q813 231 873.5 315.0Q934 399 934 559Q934 719 873.5 803.0Q813 887 698 887Q584 887 523.5 803.0Q463 719 463 559Q463 399 523.5 315.0Q584 231 698 231Z" transform="translate(493.1963 316) scale(0.0088 -0.0088)" />
    <path d="M188 1493H827Q1112 1493 1264.5 1366.5Q1417 1240 1417 1006Q1417 771 1264.5 644.5Q1112 518 827 518H573V0H188ZM573 1214V797H786Q898 797 959.0 851.5Q1020 906 1020 1006Q1020 1106 959.0 1160.0Q898 1214 786 1214Z" transform="translate(512.3477 316) scale(0.0088 -0.0088)" />
    <path d="M172 1120H530V0H172ZM172 1556H530V1264H172Z" transform="translate(525.54 316) scale(0.0088 -0.0088)" />
    <path d="M530 162V-426H172V1120H530V956Q604 1054 694.0 1100.5Q784 1147 901 1147Q1108 1147 1241.0 982.5Q1374 818 1374 559Q1374 300 1241.0 135.5Q1108 -29 901 -29Q784 -29 694.0 17.5Q604 64 530 162ZM768 887Q653 887 591.5 802.5Q530 718 530 559Q530 400 591.5 315.5Q653 231 768 231Q883 231 943.5 315.0Q1004 399 1004 559Q1004 719 943.5 803.0Q883 887 768 887Z" transform="translate(531.71 316) scale(0.0088 -0.0088)" />
    <path d="M1290 563V461H453Q466 335 544.0 272.0Q622 209 762 209Q875 209 993.5 242.5Q1112 276 1237 344V68Q1110 20 983.0 -4.5Q856 -29 729 -29Q425 -29 256.5 125.5Q88 280 88 559Q88 833 253.5 990.0Q419 1147 709 1147Q973 1147 1131.5 988.0Q1290 829 1290 563ZM922 682Q922 784 862.5 846.5Q803 909 707 909Q603 909 538.0 850.5Q473 792 457 682Z" transform="translate(544.5947 316) scale(0.0088 -0.0088)" />
    <path d="M735 831Q856 831 908.5 876.0Q961 921 961 1024Q961 1126 908.5 1170.0Q856 1214 735 1214H573V831ZM573 565V0H188V1493H776Q1071 1493 1208.5 1394.0Q1346 1295 1346 1081Q1346 933 1274.5 838.0Q1203 743 1059 698Q1138 680 1200.5 616.5Q1263 553 1327 424L1536 0H1126L944 371Q889 483 832.5 524.0Q776 565 682 565Z" transform="translate(556.8027 316) scale(0.0088 -0.0088)" />
    <path d="M172 1120H530V0H172ZM172 1556H530V1264H172Z" transform="translate(570.6631 316) scale(0.0088 -0.0088)" />
    <path d="M1298 682V0H938V111V522Q938 667 931.5 722.0Q925 777 909 803Q888 838 852.0 857.5Q816 877 770 877Q658 877 594.0 790.5Q530 704 530 551V0H172V1120H530V956Q611 1054 702.0 1100.5Q793 1147 903 1147Q1097 1147 1197.5 1028.0Q1298 909 1298 682Z" transform="translate(576.833 316) scale(0.0088 -0.0088)" />
    <path d="M934 190Q860 92 771.0 46.0Q682 0 565 0Q360 0 226.0 161.5Q92 323 92 573Q92 824 226.0 984.5Q360 1145 565 1145Q682 1145 771.0 1099.0Q860 1053 934 954V1120H1294V113Q1294 -157 1123.5 -299.5Q953 -442 629 -442Q524 -442 426.0 -426.0Q328 -410 229 -377V-98Q323 -152 413.0 -178.5Q503 -205 594 -205Q770 -205 852.0 -128.0Q934 -51 934 113ZM698 887Q587 887 525.0 805.0Q463 723 463 573Q463 419 523.0 339.5Q583 260 698 260Q810 260 872.0 342.0Q934 424 934 573Q934 723 872.0 805.0Q810 887 698 887Z" transform="translate(589.6475 316) scale(0.0088 -0.0088)" />
    <path d="M786 915Q877 915 924.0 955.0Q971 995 971 1073Q971 1150 924.0 1190.5Q877 1231 786 1231H573V915ZM799 262Q915 262 973.5 311.0Q1032 360 1032 459Q1032 556 974.0 604.5Q916 653 799 653H573V262ZM1157 799Q1281 763 1349.0 666.0Q1417 569 1417 428Q1417 212 1271.0 106.0Q1125 0 827 0H188V1493H766Q1077 1493 1216.5 1399.0Q1356 1305 1356 1098Q1356 989 1305.0 912.5Q1254 836 1157 799Z" transform="translate(602.5322 316) scale(0.0088 -0.0088)" />
    <path d="M160 436V1120H520V1008Q520 917 519.0 779.5Q518 642 518 596Q518 461 525.0 401.5Q532 342 549 315Q571 280 606.5 261.0Q642 242 688 242Q800 242 864.0 328.0Q928 414 928 567V1120H1286V0H928V162Q847 64 756.5 17.5Q666 -29 557 -29Q363 -29 261.5 90.0Q160 209 160 436Z" transform="translate(616.252 316) scale(0.0088 -0.0088)" />
    <path d="M909 1556V1321H711Q635 1321 605.0 1293.5Q575 1266 575 1198V1120H881V864H575V0H217V864H39V1120H217V1198Q217 1381 319.0 1468.5Q421 1556 635 1556Z" transform="translate(629.0664 316) scale(0.0088 -0.0088)" />
    <path d="M909 1556V1321H711Q635 1321 605.0 1293.5Q575 1266 575 1198V1120H881V864H575V0H217V864H39V1120H217V1198Q217 1381 319.0 1468.5Q421 1556 635 1556Z" transform="translate(636.8975 316) scale(0.0088 -0.0088)" />
    <path d="M1290 563V461H453Q466 335 544.0 272.0Q622 209 762 209Q875 209 993.5 242.5Q1112 276 1237 344V68Q1110 20 983.0 -4.5Q856 -29 729 -29Q425 -29 256.5 125.5Q88 280 88 559Q88 833 253.5 990.0Q419 1147 709 1147Q973 1147 1131.5 988.0Q1290 829 1290 563ZM922 682Q922 784 862.5 846.5Q803 909 707 909Q603 909 538.0 850.5Q473 792 457 682Z" transform="translate(644.7285 316) scale(0.0088 -0.0088)" />
    <path d="M1004 815Q957 837 910.5 847.5Q864 858 817 858Q679 858 604.5 769.5Q530 681 530 516V0H172V1120H530V936Q599 1046 688.5 1096.5Q778 1147 903 1147Q921 1147 942.0 1145.5Q963 1144 1003 1139Z" transform="translate(656.9365 316) scale(0.0088 -0.0088)" />
  </g>
  <g data-text="Arc&lt;SpinLock&lt;PipeRingBuffer&gt;&gt;" fill="#374151">
    <path d="M1094 272H492L397 0H10L563 1493H1022L1575 0H1188ZM588 549H997L793 1143Z" transform="translate(418.3296 340) scale(0.0068 -0.0068)" />
    <path d="M1004 815Q957 837 910.5 847.5Q864 858 817 858Q679 858 604.5 769.5Q530 681 530 516V0H172V1120H530V936Q599 1046 688.5 1096.5Q778 1147 903 1147Q921 1147 942.0 1145.5Q963 1144 1003 1139Z" transform="translate(429.1646 340) scale(0.0068 -0.0068)" />
    <path d="M1077 1085V793Q1004 843 930.5 867.0Q857 891 778 891Q628 891 544.5 803.5Q461 716 461 559Q461 402 544.5 314.5Q628 227 778 227Q862 227 937.5 252.0Q1013 277 1077 326V33Q993 2 906.5 -13.5Q820 -29 733 -29Q430 -29 259.0 126.5Q88 282 88 559Q88 836 259.0 991.5Q430 1147 733 1147Q821 1147 906.5 1131.5Q992 1116 1077 1085Z" transform="translate(436.0688 340) scale(0.0068 -0.0068)" />
    <path d="M1499 973 535 641 1499 311V61L217 524V760L1499 1223Z" transform="translate(444.3677 340) scale(0.0068 -0.0068)" />
    <path d="M1227 1446V1130Q1104 1185 987.0 1213.0Q870 1241 766 1241Q628 1241 562.0 1203.0Q496 1165 496 1085Q496 1025 540.5 991.5Q585 958 702 934L866 901Q1115 851 1220.0 749.0Q1325 647 1325 459Q1325 212 1178.5 91.5Q1032 -29 731 -29Q589 -29 446.0 -2.0Q303 25 160 78V403Q303 327 436.5 288.5Q570 250 694 250Q820 250 887.0 292.0Q954 334 954 412Q954 482 908.5 520.0Q863 558 727 588L578 621Q354 669 250.5 774.0Q147 879 147 1057Q147 1280 291.0 1400.0Q435 1520 705 1520Q828 1520 958.0 1501.5Q1088 1483 1227 1446Z" transform="translate(456.0981 340) scale(0.0068 -0.0068)" />
    <path d="M530 162V-426H172V1120H530V956Q604 1054 694.0 1100.5Q784 1147 901 1147Q1108 1147 1241.0 982.5Q1374 818 1374 559Q1374 300 1241.0 135.5Q1108 -29 901 -29Q784 -29 694.0 17.5Q604 64 530 162ZM768 887Q653 887 591.5 802.5Q530 718 530 559Q530 400 591.5 315.5Q653 231 768 231Q883 231 943.5 315.0Q1004 399 1004 559Q1004 719 943.5 803.0Q883 887 768 887Z" transform="translate(466.1812 340) scale(0.0068 -0.0068)" />
    <path d="M172 1120H530V0H172ZM172 1556H530V1264H172Z" transform="translate(476.2026 340) scale(0.0068 -0.0068)" />
    <path d="M1298 682V0H938V111V522Q938 667 931.5 722.0Q925 777 909 803Q888 838 852.0 857.5Q816 877 770 877Q658 877 594.0 790.5Q530 704 530 551V0H172V1120H530V956Q611 1054 702.0 1100.5Q793 1147 903 1147Q1097 1147 1197.5 1028.0Q1298 909 1298 682Z" transform="translate(481.0015 340) scale(0.0068 -0.0068)" />
    <path d="M188 1493H573V291H1249V0H188Z" transform="translate(490.9683 340) scale(0.0068 -0.0068)" />
    <path d="M705 891Q586 891 523.5 805.5Q461 720 461 559Q461 398 523.5 312.5Q586 227 705 227Q822 227 884.0 312.5Q946 398 946 559Q946 720 884.0 805.5Q822 891 705 891ZM705 1147Q994 1147 1156.5 991.0Q1319 835 1319 559Q1319 283 1156.5 127.0Q994 -29 705 -29Q415 -29 251.5 127.0Q88 283 88 559Q88 835 251.5 991.0Q415 1147 705 1147Z" transform="translate(499.8892 340) scale(0.0068 -0.0068)" />
    <path d="M1077 1085V793Q1004 843 930.5 867.0Q857 891 778 891Q628 891 544.5 803.5Q461 716 461 559Q461 402 544.5 314.5Q628 227 778 227Q862 227 937.5 252.0Q1013 277 1077 326V33Q993 2 906.5 -13.5Q820 -29 733 -29Q430 -29 259.0 126.5Q88 282 88 559Q88 836 259.0 991.5Q430 1147 733 1147Q821 1147 906.5 1131.5Q992 1116 1077 1085Z" transform="translate(509.5073 340) scale(0.0068 -0.0068)" />
    <path d="M172 1556H530V709L942 1120H1358L811 606L1401 0H967L530 467V0H172Z" transform="translate(517.8062 340) scale(0.0068 -0.0068)" />
    <path d="M1499 973 535 641 1499 311V61L217 524V760L1499 1223Z" transform="translate(527.1167 340) scale(0.0068 -0.0068)" />
    <path d="M188 1493H827Q1112 1493 1264.5 1366.5Q1417 1240 1417 1006Q1417 771 1264.5 644.5Q1112 518 827 518H573V0H188ZM573 1214V797H786Q898 797 959.0 851.5Q1020 906 1020 1006Q1020 1106 959.0 1160.0Q898 1214 786 1214Z" transform="translate(538.8472 340) scale(0.0068 -0.0068)" />
    <path d="M172 1120H530V0H172ZM172 1556H530V1264H172Z" transform="translate(549.1079 340) scale(0.0068 -0.0068)" />
    <path d="M530 162V-426H172V1120H530V956Q604 1054 694.0 1100.5Q784 1147 901 1147Q1108 1147 1241.0 982.5Q1374 818 1374 559Q1374 300 1241.0 135.5Q1108 -29 901 -29Q784 -29 694.0 17.5Q604 64 530 162ZM768 887Q653 887 591.5 802.5Q530 718 530 559Q530 400 591.5 315.5Q653 231 768 231Q883 231 943.5 315.0Q1004 399 1004 559Q1004 719 943.5 803.0Q883 887 768 887Z" transform="translate(553.9067 340) scale(0.0068 -0.0068)" />
    <path d="M1290 563V461H453Q466 335 544.0 272.0Q622 209 762 209Q875 209 993.5 242.5Q1112 276 1237 344V68Q1110 20 983.0 -4.5Q856 -29 729 -29Q425 -29 256.5 125.5Q88 280 88 559Q88 833 253.5 990.0Q419 1147 709 1147Q973 1147 1131.5 988.0Q1290 829 1290 563ZM922 682Q922 784 862.5 846.5Q803 909 707 909Q603 909 538.0 850.5Q473 792 457 682Z" transform="translate(563.9282 340) scale(0.0068 -0.0068)" />
    <path d="M735 831Q856 831 908.5 876.0Q961 921 961 1024Q961 1126 908.5 1170.0Q856 1214 735 1214H573V831ZM573 565V0H188V1493H776Q1071 1493 1208.5 1394.0Q1346 1295 1346 1081Q1346 933 1274.5 838.0Q1203 743 1059 698Q1138 680 1200.5 616.5Q1263 553 1327 424L1536 0H1126L944 371Q889 483 832.5 524.0Q776 565 682 565Z" transform="translate(573.4233 340) scale(0.0068 -0.0068)" />
    <path d="M172 1120H530V0H172ZM172 1556H530V1264H172Z" transform="translate(584.2036 340) scale(0.0068 -0.0068)" />
    <path d="M1298 682V0H938V111V522Q938 667 931.5 722.0Q925 777 909 803Q888 838 852.0 857.5Q816 877 770 877Q658 877 594.0 790.5Q530 704 530 551V0H172V1120H530V956Q611 1054 702.0 1100.5Q793 1147 903 1147Q1097 1147 1197.5 1028.0Q1298 909 1298 682Z" transform="translate(589.0024 340) scale(0.0068 -0.0068)" />
    <path d="M934 190Q860 92 771.0 46.0Q682 0 565 0Q360 0 226.0 161.5Q92 323 92 573Q92 824 226.0 984.5Q360 1145 565 1145Q682 1145 771.0 1099.0Q860 1053 934 954V1120H1294V113Q1294 -157 1123.5 -299.5Q953 -442 629 -442Q524 -442 426.0 -426.0Q328 -410 229 -377V-98Q323 -152 413.0 -178.5Q503 -205 594 -205Q770 -205 852.0 -128.0Q934 -51 934 113ZM698 887Q587 887 525.0 805.0Q463 723 463 573Q463 419 523.0 339.5Q583 260 698 260Q810 260 872.0 342.0Q934 424 934 573Q934 723 872.0 805.0Q810 887 698 887Z" transform="translate(598.9692 340) scale(0.0068 -0.0068)" />
    <path d="M786 915Q877 915 924.0 955.0Q971 995 971 1073Q971 1150 924.0 1190.5Q877 1231 786 1231H573V915ZM799 262Q915 262 973.5 311.0Q1032 360 1032 459Q1032 556 974.0 604.5Q916 653 799 653H573V262ZM1157 799Q1281 763 1349.0 666.0Q1417 569 1417 428Q1417 212 1271.0 106.0Q1125 0 827 0H188V1493H766Q1077 1493 1216.5 1399.0Q1356 1305 1356 1098Q1356 989 1305.0 912.5Q1254 836 1157 799Z" transform="translate(608.9907 340) scale(0.0068 -0.0068)" />
    <path d="M160 436V1120H520V1008Q520 917 519.0 779.5Q518 642 518 596Q518 461 525.0 401.5Q532 342 549 315Q571 280 606.5 261.0Q642 242 688 242Q800 242 864.0 328.0Q928 414 928 567V1120H1286V0H928V162Q847 64 756.5 17.5Q666 -29 557 -29Q363 -29 261.5 90.0Q160 209 160 436Z" transform="translate(619.6616 340) scale(0.0068 -0.0068)" />
    <path d="M909 1556V1321H711Q635 1321 605.0 1293.5Q575 1266 575 1198V1120H881V864H575V0H217V864H39V1120H217V1198Q217 1381 319.0 1468.5Q421 1556 635 1556Z" transform="translate(629.6284 340) scale(0.0068 -0.0068)" />
    <path d="M909 1556V1321H711Q635 1321 605.0 1293.5Q575 1266 575 1198V1120H881V864H575V0H217V864H39V1120H217V1198Q217 1381 319.0 1468.5Q421 1556 635 1556Z" transform="translate(635.7192 340) scale(0.0068 -0.0068)" />
    <path d="M1290 563V461H453Q466 335 544.0 272.0Q622 209 762 209Q875 209 993.5 242.5Q1112 276 1237 344V68Q1110 20 983.0 -4.5Q856 -29 729 -29Q425 -29 256.5 125.5Q88 280 88 559Q88 833 253.5 990.0Q419 1147 709 1147Q973 1147 1131.5 988.0Q1290 829 1290 563ZM922 682Q922 784 862.5 846.5Q803 909 707 909Q603 909 538.0 850.5Q473 792 457 682Z" transform="translate(641.8101 340) scale(0.0068 -0.0068)" />
    <path d="M1004 815Q957 837 910.5 847.5Q864 858 817 858Q679 858 604.5 769.5Q530 681 530 516V0H172V1120H530V936Q599 1046 688.5 1096.5Q778 1147 903 1147Q921 1147 942.0 1145.5Q963 1144 1003 1139Z" transform="translate(651.3052 340) scale(0.0068 -0.0068)" />
    <path d="M217 973V1223L1499 760V524L217 61V311L1182 641Z" transform="translate(658.2095 340) scale(0.0068 -0.0068)" />
    <path d="M217 973V1223L1499 760V524L217 61V311L1182 641Z" transform="translate(669.9399 340) scale(0.0068 -0.0068)" />
  </g>
  <rect class="subbox" x="365" y="366" width="70" height="34" rx="5" fill="#fff7ed" />
  <g data-text="page0" fill="#374151">
    <path d="M530 162V-426H172V1120H530V956Q604 1054 694.0 1100.5Q784 1147 901 1147Q1108 1147 1241.0 982.5Q1374 818 1374 559Q1374 300 1241.0 135.5Q1108 -29 901 -29Q784 -29 694.0 17.5Q604 64 530 162ZM768 887Q653 887 591.5 802.5Q530 718 530 559Q530 400 591.5 315.5Q653 231 768 231Q883 231 943.5 315.0Q1004 399 1004 559Q1004 719 943.5 803.0Q883 887 768 887Z" transform="translate(375.6367 388) scale(0.0068 -0.0068)" />
    <path d="M674 504Q562 504 505.5 466.0Q449 428 449 354Q449 286 494.5 247.5Q540 209 621 209Q722 209 791.0 281.5Q860 354 860 463V504ZM1221 639V0H860V166Q788 64 698.0 17.5Q608 -29 479 -29Q305 -29 196.5 72.5Q88 174 88 336Q88 533 223.5 625.0Q359 717 649 717H860V745Q860 830 793.0 869.5Q726 909 584 909Q469 909 370.0 886.0Q271 863 186 817V1090Q301 1118 417.0 1132.5Q533 1147 649 1147Q952 1147 1086.5 1027.5Q1221 908 1221 639Z" transform="translate(385.6582 388) scale(0.0068 -0.0068)" />
    <path d="M934 190Q860 92 771.0 46.0Q682 0 565 0Q360 0 226.0 161.5Q92 323 92 573Q92 824 226.0 984.5Q360 1145 565 1145Q682 1145 771.0 1099.0Q860 1053 934 954V1120H1294V113Q1294 -157 1123.5 -299.5Q953 -442 629 -442Q524 -442 426.0 -426.0Q328 -410 229 -377V-98Q323 -152 413.0 -178.5Q503 -205 594 -205Q770 -205 852.0 -128.0Q934 -51 934 113ZM698 887Q587 887 525.0 805.0Q463 723 463 573Q463 419 523.0 339.5Q583 260 698 260Q810 260 872.0 342.0Q934 424 934 573Q934 723 872.0 805.0Q810 887 698 887Z" transform="translate(395.1055 388) scale(0.0068 -0.0068)" />
    <path d="M1290 563V461H453Q466 335 544.0 272.0Q622 209 762 209Q875 209 993.5 242.5Q1112 276 1237 344V68Q1110 20 983.0 -4.5Q856 -29 729 -29Q425 -29 256.5 125.5Q88 280 88 559Q88 833 253.5 990.0Q419 1147 709 1147Q973 1147 1131.5 988.0Q1290 829 1290 563ZM922 682Q922 784 862.5 846.5Q803 909 707 909Q603 909 538.0 850.5Q473 792 457 682Z" transform="translate(405.127 388) scale(0.0068 -0.0068)" />
    <path d="M942 748Q942 1028 889.5 1142.5Q837 1257 713 1257Q589 1257 536.0 1142.5Q483 1028 483 748Q483 465 536.0 349.0Q589 233 713 233Q836 233 889.0 349.0Q942 465 942 748ZM1327 745Q1327 374 1167.0 172.5Q1007 -29 713 -29Q418 -29 258.0 172.5Q98 374 98 745Q98 1117 258.0 1318.5Q418 1520 713 1520Q1007 1520 1167.0 1318.5Q1327 1117 1327 745Z" transform="translate(414.6221 388) scale(0.0068 -0.0068)" />
  </g>
  <rect class="subbox" x="455" y="366" width="70" height="34" rx="5" fill="#fff7ed" />
  <g data-text="page1" fill="#374151">
    <path d="M530 162V-426H172V1120H530V956Q604 1054 694.0 1100.5Q784 1147 901 1147Q1108 1147 1241.0 982.5Q1374 818 1374 559Q1374 300 1241.0 135.5Q1108 -29 901 -29Q784 -29 694.0 17.5Q604 64 530 162ZM768 887Q653 887 591.5 802.5Q530 718 530 559Q530 400 591.5 315.5Q653 231 768 231Q883 231 943.5 315.0Q1004 399 1004 559Q1004 719 943.5 803.0Q883 887 768 887Z" transform="translate(465.6367 388) scale(0.0068 -0.0068)" />
    <path d="M674 504Q562 504 505.5 466.0Q449 428 449 354Q449 286 494.5 247.5Q540 209 621 209Q722 209 791.0 281.5Q860 354 860 463V504ZM1221 639V0H860V166Q788 64 698.0 17.5Q608 -29 479 -29Q305 -29 196.5 72.5Q88 174 88 336Q88 533 223.5 625.0Q359 717 649 717H860V745Q860 830 793.0 869.5Q726 909 584 909Q469 909 370.0 886.0Q271 863 186 817V1090Q301 1118 417.0 1132.5Q533 1147 649 1147Q952 1147 1086.5 1027.5Q1221 908 1221 639Z" transform="translate(475.6582 388) scale(0.0068 -0.0068)" />
    <path d="M934 190Q860 92 771.0 46.0Q682 0 565 0Q360 0 226.0 161.5Q92 323 92 573Q92 824 226.0 984.5Q360 1145 565 1145Q682 1145 771.0 1099.0Q860 1053 934 954V1120H1294V113Q1294 -157 1123.5 -299.5Q953 -442 629 -442Q524 -442 426.0 -426.0Q328 -410 229 -377V-98Q323 -152 413.0 -178.5Q503 -205 594 -205Q770 -205 852.0 -128.0Q934 -51 934 113ZM698 887Q587 887 525.0 805.0Q463 723 463 573Q463 419 523.0 339.5Q583 260 698 260Q810 260 872.0 342.0Q934 424 934 573Q934 723 872.0 805.0Q810 887 698 887Z" transform="translate(485.1055 388) scale(0.0068 -0.0068)" />
    <path d="M1290 563V461H453Q466 335 544.0 272.0Q622 209 762 209Q875 209 993.5 242.5Q1112 276 1237 344V68Q1110 20 983.0 -4.5Q856 -29 729 -29Q425 -29 256.5 125.5Q88 280 88 559Q88 833 253.5 990.0Q419 1147 709 1147Q973 1147 1131.5 988.0Q1290 829 1290 563ZM922 682Q922 784 862.5 846.5Q803 909 707 909Q603 909 538.0 850.5Q473 792 457 682Z" transform="translate(495.127 388) scale(0.0068 -0.0068)" />
    <path d="M240 266H580V1231L231 1159V1421L578 1493H944V266H1284V0H240Z" transform="translate(504.6221 388) scale(0.0068 -0.0068)" />
  </g>
  <rect class="subbox" x="545" y="366" width="70" height="34" rx="5" fill="#fff7ed" />
  <g data-text="..." fill="#374151">
    <path d="M209 387H569V0H209Z" transform="translate(572.0225 388) scale(0.0068 -0.0068)" />
    <path d="M209 387H569V0H209Z" transform="translate(577.3408 388) scale(0.0068 -0.0068)" />
    <path d="M209 387H569V0H209Z" transform="translate(582.6592 388) scale(0.0068 -0.0068)" />
  </g>
  <rect class="subbox" x="635" y="366" width="90" height="34" rx="5" fill="#fff7ed" />
  <g data-text="pageN" fill="#374151">
    <path d="M530 162V-426H172V1120H530V956Q604 1054 694.0 1100.5Q784 1147 901 1147Q1108 1147 1241.0 982.5Q1374 818 1374 559Q1374 300 1241.0 135.5Q1108 -29 901 -29Q784 -29 694.0 17.5Q604 64 530 162ZM768 887Q653 887 591.5 802.5Q530 718 530 559Q530 400 591.5 315.5Q653 231 768 231Q883 231 943.5 315.0Q1004 399 1004 559Q1004 719 943.5 803.0Q883 887 768 887Z" transform="translate(654.6489 388) scale(0.0068 -0.0068)" />
    <path d="M674 504Q562 504 505.5 466.0Q449 428 449 354Q449 286 494.5 247.5Q540 209 621 209Q722 209 791.0 281.5Q860 354 860 463V504ZM1221 639V0H860V166Q788 64 698.0 17.5Q608 -29 479 -29Q305 -29 196.5 72.5Q88 174 88 336Q88 533 223.5 625.0Q359 717 649 717H860V745Q860 830 793.0 869.5Q726 909 584 909Q469 909 370.0 886.0Q271 863 186 817V1090Q301 1118 417.0 1132.5Q533 1147 649 1147Q952 1147 1086.5 1027.5Q1221 908 1221 639Z" transform="translate(664.6704 388) scale(0.0068 -0.0068)" />
    <path d="M934 190Q860 92 771.0 46.0Q682 0 565 0Q360 0 226.0 161.5Q92 323 92 573Q92 824 226.0 984.5Q360 1145 565 1145Q682 1145 771.0 1099.0Q860 1053 934 954V1120H1294V113Q1294 -157 1123.5 -299.5Q953 -442 629 -442Q524 -442 426.0 -426.0Q328 -410 229 -377V-98Q323 -152 413.0 -178.5Q503 -205 594 -205Q770 -205 852.0 -128.0Q934 -51 934 113ZM698 887Q587 887 525.0 805.0Q463 723 463 573Q463 419 523.0 339.5Q583 260 698 260Q810 260 872.0 342.0Q934 424 934 573Q934 723 872.0 805.0Q810 887 698 887Z" transform="translate(674.1177 388) scale(0.0068 -0.0068)" />
    <path d="M1290 563V461H453Q466 335 544.0 272.0Q622 209 762 209Q875 209 993.5 242.5Q1112 276 1237 344V68Q1110 20 983.0 -4.5Q856 -29 729 -29Q425 -29 256.5 125.5Q88 280 88 559Q88 833 253.5 990.0Q419 1147 709 1147Q973 1147 1131.5 988.0Q1290 829 1290 563ZM922 682Q922 784 862.5 846.5Q803 909 707 909Q603 909 538.0 850.5Q473 792 457 682Z" transform="translate(684.1392 388) scale(0.0068 -0.0068)" />
    <path d="M188 1493H618L1161 469V1493H1526V0H1096L553 1024V0H188Z" transform="translate(693.6343 388) scale(0.0068 -0.0068)" />
  </g>
  <g data-text="head" fill="#374151">
    <path d="M1298 682V0H938V111V520Q938 667 931.5 722.0Q925 777 909 803Q888 838 852.0 857.5Q816 877 770 877Q658 877 594.0 790.5Q530 704 530 551V0H172V1556H530V956Q611 1054 702.0 1100.5Q793 1147 903 1147Q1097 1147 1197.5 1028.0Q1298 909 1298 682Z" transform="translate(370.5347 443) scale(0.0068 -0.0068)" />
    <path d="M1290 563V461H453Q466 335 544.0 272.0Q622 209 762 209Q875 209 993.5 242.5Q1112 276 1237 344V68Q1110 20 983.0 -4.5Q856 -29 729 -29Q425 -29 256.5 125.5Q88 280 88 559Q88 833 253.5 990.0Q419 1147 709 1147Q973 1147 1131.5 988.0Q1290 829 1290 563ZM922 682Q922 784 862.5 846.5Q803 909 707 909Q603 909 538.0 850.5Q473 792 457 682Z" transform="translate(380.5015 443) scale(0.0068 -0.0068)" />
    <path d="M674 504Q562 504 505.5 466.0Q449 428 449 354Q449 286 494.5 247.5Q540 209 621 209Q722 209 791.0 281.5Q860 354 860 463V504ZM1221 639V0H860V166Q788 64 698.0 17.5Q608 -29 479 -29Q305 -29 196.5 72.5Q88 174 88 336Q88 533 223.5 625.0Q359 717 649 717H860V745Q860 830 793.0 869.5Q726 909 584 909Q469 909 370.0 886.0Q271 863 186 817V1090Q301 1118 417.0 1132.5Q533 1147 649 1147Q952 1147 1086.5 1027.5Q1221 908 1221 639Z" transform="translate(389.9966 443) scale(0.0068 -0.0068)" />
    <path d="M934 956V1556H1294V0H934V162Q860 63 771.0 17.0Q682 -29 565 -29Q358 -29 225.0 135.5Q92 300 92 559Q92 818 225.0 982.5Q358 1147 565 1147Q681 1147 770.5 1100.5Q860 1054 934 956ZM698 231Q813 231 873.5 315.0Q934 399 934 559Q934 719 873.5 803.0Q813 887 698 887Q584 887 523.5 803.0Q463 719 463 559Q463 399 523.5 315.0Q584 231 698 231Z" transform="translate(399.4438 443) scale(0.0068 -0.0068)" />
  </g>
  <g data-text="tail" fill="#374151">
    <path d="M563 1438V1120H932V864H563V389Q563 311 594.0 283.5Q625 256 717 256H901V0H594Q382 0 293.5 88.5Q205 177 205 389V864H27V1120H205V1438Z" transform="translate(697.1313 443) scale(0.0068 -0.0068)" />
    <path d="M674 504Q562 504 505.5 466.0Q449 428 449 354Q449 286 494.5 247.5Q540 209 621 209Q722 209 791.0 281.5Q860 354 860 463V504ZM1221 639V0H860V166Q788 64 698.0 17.5Q608 -29 479 -29Q305 -29 196.5 72.5Q88 174 88 336Q88 533 223.5 625.0Q359 717 649 717H860V745Q860 830 793.0 869.5Q726 909 584 909Q469 909 370.0 886.0Q271 863 186 817V1090Q301 1118 417.0 1132.5Q533 1147 649 1147Q952 1147 1086.5 1027.5Q1221 908 1221 639Z" transform="translate(703.8237 443) scale(0.0068 -0.0068)" />
    <path d="M172 1120H530V0H172ZM172 1556H530V1264H172Z" transform="translate(713.271 443) scale(0.0068 -0.0068)" />
    <path d="M172 1556H530V0H172Z" transform="translate(718.0698 443) scale(0.0068 -0.0068)" />
  </g>
  <path class="arrow" d="M430 197 C430 238, 470 262, 505 285" />
  <path class="arrow" d="M670 197 C670 238, 630 262, 595 285" />
  <path class="arrow" d="M720 264 C760 242, 800 222, 840 204" />
  <g data-text="write()" fill="#374151">
    <path d="M72 1120H420L608 348L797 1120H1096L1284 356L1473 1120H1821L1526 0H1135L946 770L758 0H367Z" transform="translate(760.1895 244) scale(0.0068 -0.0068)" />
    <path d="M1004 815Q957 837 910.5 847.5Q864 858 817 858Q679 858 604.5 769.5Q530 681 530 516V0H172V1120H530V936Q599 1046 688.5 1096.5Q778 1147 903 1147Q921 1147 942.0 1145.5Q963 1144 1003 1139Z" transform="translate(773.123 244) scale(0.0068 -0.0068)" />
    <path d="M172 1120H530V0H172ZM172 1556H530V1264H172Z" transform="translate(780.0273 244) scale(0.0068 -0.0068)" />
    <path d="M563 1438V1120H932V864H563V389Q563 311 594.0 283.5Q625 256 717 256H901V0H594Q382 0 293.5 88.5Q205 177 205 389V864H27V1120H205V1438Z" transform="translate(784.8262 244) scale(0.0068 -0.0068)" />
    <path d="M1290 563V461H453Q466 335 544.0 272.0Q622 209 762 209Q875 209 993.5 242.5Q1112 276 1237 344V68Q1110 20 983.0 -4.5Q856 -29 729 -29Q425 -29 256.5 125.5Q88 280 88 559Q88 833 253.5 990.0Q419 1147 709 1147Q973 1147 1131.5 988.0Q1290 829 1290 563ZM922 682Q922 784 862.5 846.5Q803 909 707 909Q603 909 538.0 850.5Q473 792 457 682Z" transform="translate(791.5186 244) scale(0.0068 -0.0068)" />
    <path d="M772 -270H475Q322 -23 249.0 199.5Q176 422 176 641Q176 860 249.5 1084.5Q323 1309 475 1554H772Q644 1317 580.0 1090.5Q516 864 516 643Q516 422 579.5 195.0Q643 -32 772 -270Z" transform="translate(801.0137 244) scale(0.0068 -0.0068)" />
    <path d="M164 -270Q292 -32 356.0 195.0Q420 422 420 643Q420 864 356.0 1090.5Q292 1317 164 1554H461Q613 1309 686.5 1084.5Q760 860 760 641Q760 422 687.0 199.5Q614 -23 461 -270Z" transform="translate(807.4121 244) scale(0.0068 -0.0068)" />
  </g>
  <path class="arrow" d="M380 264 C340 242, 300 222, 260 204" />
  <g data-text="read()" fill="#374151">
    <path d="M1004 815Q957 837 910.5 847.5Q864 858 817 858Q679 858 604.5 769.5Q530 681 530 516V0H172V1120H530V936Q599 1046 688.5 1096.5Q778 1147 903 1147Q921 1147 942.0 1145.5Q963 1144 1003 1139Z" transform="translate(288.6675 244) scale(0.0068 -0.0068)" />
    <path d="M1290 563V461H453Q466 335 544.0 272.0Q622 209 762 209Q875 209 993.5 242.5Q1112 276 1237 344V68Q1110 20 983.0 -4.5Q856 -29 729 -29Q425 -29 256.5 125.5Q88 280 88 559Q88 833 253.5 990.0Q419 1147 709 1147Q973 1147 1131.5 988.0Q1290 829 1290 563ZM922 682Q922 784 862.5 846.5Q803 909 707 909Q603 909 538.0 850.5Q473 792 457 682Z" transform="translate(295.5718 244) scale(0.0068 -0.0068)" />
    <path d="M674 504Q562 504 505.5 466.0Q449 428 449 354Q449 286 494.5 247.5Q540 209 621 209Q722 209 791.0 281.5Q860 354 860 463V504ZM1221 639V0H860V166Q788 64 698.0 17.5Q608 -29 479 -29Q305 -29 196.5 72.5Q88 174 88 336Q88 533 223.5 625.0Q359 717 649 717H860V745Q860 830 793.0 869.5Q726 909 584 909Q469 909 370.0 886.0Q271 863 186 817V1090Q301 1118 417.0 1132.5Q533 1147 649 1147Q952 1147 1086.5 1027.5Q1221 908 1221 639Z" transform="translate(305.0669 244) scale(0.0068 -0.0068)" />
    <path d="M934 956V1556H1294V0H934V162Q860 63 771.0 17.0Q682 -29 565 -29Q358 -29 225.0 135.5Q92 300 92 559Q92 818 225.0 982.5Q358 1147 565 1147Q681 1147 770.5 1100.5Q860 1054 934 956ZM698 231Q813 231 873.5 315.0Q934 399 934 559Q934 719 873.5 803.0Q813 887 698 887Q584 887 523.5 803.0Q463 719 463 559Q463 399 523.5 315.0Q584 231 698 231Z" transform="translate(314.5142 244) scale(0.0068 -0.0068)" />
    <path d="M772 -270H475Q322 -23 249.0 199.5Q176 422 176 641Q176 860 249.5 1084.5Q323 1309 475 1554H772Q644 1317 580.0 1090.5Q516 864 516 643Q516 422 579.5 195.0Q643 -32 772 -270Z" transform="translate(324.5356 244) scale(0.0068 -0.0068)" />
    <path d="M164 -270Q292 -32 356.0 195.0Q420 422 420 643Q420 864 356.0 1090.5Q292 1317 164 1554H461Q613 1309 686.5 1084.5Q760 860 760 641Q760 422 687.0 199.5Q614 -23 461 -270Z" transform="translate(330.9341 244) scale(0.0068 -0.0068)" />
  </g>
  <rect class="box note" x="230" y="470" width="640" height="46" rx="8" />
  <g data-text="空管道读阻塞，满管道写阻塞；O_NONBLOCK 时返回 EAGAIN。" fill="#374151">
    <path d="M540 508C640 459 783 384 852 340L934 436C858 479 711 547 617 590ZM377 589C290 524 179 469 69 435L137 326L192 351V249H432V53H69V-56H935V53H560V249H815V356H203C295 400 389 457 460 515ZM402 824C414 798 426 766 436 737H62V491H180V628H815V511H940V737H584C570 774 547 822 530 859Z" transform="translate(335.8745 499) scale(0.014 -0.014)" />
    <path d="M194 439V-91H316V-64H741V-90H860V169H316V215H807V439ZM741 25H316V81H741ZM421 627C430 610 440 590 448 571H74V395H189V481H810V395H932V571H569C559 596 543 625 528 648ZM316 353H690V300H316ZM161 857C134 774 85 687 28 633C57 620 108 595 132 579C161 610 190 651 215 696H251C276 659 301 616 311 587L413 624C404 643 389 670 371 696H495V778H256C264 797 271 816 278 835ZM591 857C572 786 536 714 490 668C517 656 567 631 589 615C609 638 629 665 646 696H685C716 659 747 614 759 584L858 629C849 648 832 672 813 696H952V778H686C694 797 700 817 706 836Z" transform="translate(349.8745 499) scale(0.014 -0.014)" />
    <path d="M45 753C95 701 158 628 183 581L282 648C253 695 188 764 137 813ZM491 359H762V305H491ZM491 228H762V173H491ZM491 489H762V435H491ZM378 574V88H880V574H653L682 633H953V730H791L852 818L737 850C722 814 696 766 672 730H515L566 752C554 782 524 826 500 858L399 816C416 790 436 757 450 730H312V633H554L540 574ZM279 491H45V380H164V106C120 86 71 51 25 8L97 -93C143 -36 194 23 229 23C254 23 287 -5 334 -29C408 -65 496 -77 616 -77C713 -77 875 -71 941 -67C943 -35 960 19 973 49C876 35 722 27 620 27C512 27 420 34 353 67C321 83 299 97 279 108Z" transform="translate(363.8745 499) scale(0.014 -0.014)" />
    <path d="M678 90C757 38 855 -40 900 -93L976 -17C927 36 826 109 749 158ZM79 760C135 713 209 647 242 603L323 691C287 733 211 795 155 837ZM359 610V509H826C816 470 805 432 796 404L889 383C911 437 935 522 954 598L878 613L860 610H707V672H904V771H707V850H590V771H393V672H590V610ZM32 543V428H154V106C154 52 127 15 106 -3C124 -20 154 -60 164 -83C180 -59 210 -30 371 110C362 124 352 146 343 168H558C516 104 443 42 318 -4C342 -25 376 -69 390 -96C564 -28 651 70 692 168H951V271H722C728 307 730 342 730 374V483H615V413C581 440 522 474 476 496L428 439C479 413 543 372 574 342L615 394V377C615 345 613 309 603 271H524L557 310C525 342 458 384 405 410L353 353C393 330 440 299 475 271H338V180L326 212L264 159V543Z" transform="translate(377.8745 499) scale(0.014 -0.014)" />
    <path d="M442 799V52H341V-59H970V52H892V799ZM555 52V197H773V52ZM555 446H773V305H555ZM555 553V688H773V553ZM74 810V-86H186V703H280C263 638 241 556 220 495C280 425 293 360 293 312C293 283 288 261 276 252C268 246 258 244 247 244C235 243 220 243 202 245C218 216 228 171 228 142C252 141 276 141 295 144C317 148 337 154 353 166C386 191 399 234 399 299C399 358 386 429 322 508C352 585 386 685 413 770L334 815L317 810Z" transform="translate(391.8745 499) scale(0.014 -0.014)" />
    <path d="M414 839 438 791H60V597H156V539H303V496H167V413H303V368H58V270H261C199 222 113 181 30 158C54 136 89 93 105 66C163 85 220 114 272 149V92H445V28H116V-69H887V28H559V92H737V148C786 115 840 88 895 70C912 99 947 142 972 166C888 186 804 224 743 270H944V368H701V413H836V496H701V539H842V597H940V791H585L544 863ZM445 245V183H318C351 210 381 239 406 270H601C626 239 656 210 689 183H559V245ZM586 670V624H416V670H303V624H178V689H817V624H701V670ZM416 539H586V496H416ZM416 413H586V368H416Z" transform="translate(405.8745 499) scale(0.014 -0.014)" />
    <path d="M194 -138C318 -101 391 -9 391 105C391 189 354 242 283 242C230 242 185 208 185 152C185 95 230 62 280 62L291 63C285 11 239 -32 162 -57Z" transform="translate(419.8745 499) scale(0.014 -0.014)" />
    <path d="M27 474C80 443 151 395 183 362L258 453C222 485 150 529 98 557ZM48 7 154 -69C206 27 260 139 305 244L212 319C160 204 95 82 48 7ZM833 326V162C814 197 785 240 757 276L763 326ZM290 591V492H500V430H308V-84H423V101C446 85 479 56 492 41C523 79 545 122 561 171C575 156 587 141 594 129L642 182C629 143 610 108 584 78C607 66 650 37 666 22C694 60 715 103 730 151C747 122 762 94 770 72L833 124V6C833 -5 830 -8 818 -8C807 -9 773 -9 741 -7C752 -29 765 -60 770 -84C830 -84 873 -84 903 -72C933 -58 943 -39 943 6V430H770L772 492H963V591ZM423 115V326H495C487 240 468 169 423 115ZM588 326H672C668 282 661 242 650 205C634 226 607 250 582 271ZM593 430V492H679L678 430ZM77 747C130 713 198 662 230 628L301 709V676H445V615H556V676H696V615H809V676H949V776H809V850H696V776H556V850H445V776H301V723C265 755 200 798 152 826Z" transform="translate(433.8745 499) scale(0.014 -0.014)" />
    <path d="M194 439V-91H316V-64H741V-90H860V169H316V215H807V439ZM741 25H316V81H741ZM421 627C430 610 440 590 448 571H74V395H189V481H810V395H932V571H569C559 596 543 625 528 648ZM316 353H690V300H316ZM161 857C134 774 85 687 28 633C57 620 108 595 132 579C161 610 190 651 215 696H251C276 659 301 616 311 587L413 624C404 643 389 670 371 696H495V778H256C264 797 271 816 278 835ZM591 857C572 786 536 714 490 668C517 656 567 631 589 615C609 638 629 665 646 696H685C716 659 747 614 759 584L858 629C849 648 832 672 813 696H952V778H686C694 797 700 817 706 836Z" transform="translate(447.8745 499) scale(0.014 -0.014)" />
    <path d="M45 753C95 701 158 628 183 581L282 648C253 695 188 764 137 813ZM491 359H762V305H491ZM491 228H762V173H491ZM491 489H762V435H491ZM378 574V88H880V574H653L682 633H953V730H791L852 818L737 850C722 814 696 766 672 730H515L566 752C554 782 524 826 500 858L399 816C416 790 436 757 450 730H312V633H554L540 574ZM279 491H45V380H164V106C120 86 71 51 25 8L97 -93C143 -36 194 23 229 23C254 23 287 -5 334 -29C408 -65 496 -77 616 -77C713 -77 875 -71 941 -67C943 -35 960 19 973 49C876 35 722 27 620 27C512 27 420 34 353 67C321 83 299 97 279 108Z" transform="translate(461.8745 499) scale(0.014 -0.014)" />
    <path d="M65 803V577H185V692H810V577H935V803ZM86 226V116H642V226ZM283 680C263 556 229 395 202 295H719C704 136 684 58 658 37C646 27 633 25 611 25C582 25 516 26 450 31C472 1 488 -47 490 -81C555 -83 619 -84 655 -80C700 -77 730 -68 759 -38C799 4 822 107 844 351C846 366 848 400 848 400H350L368 484H801V588H388L403 669Z" transform="translate(475.8745 499) scale(0.014 -0.014)" />
    <path d="M442 799V52H341V-59H970V52H892V799ZM555 52V197H773V52ZM555 446H773V305H555ZM555 553V688H773V553ZM74 810V-86H186V703H280C263 638 241 556 220 495C280 425 293 360 293 312C293 283 288 261 276 252C268 246 258 244 247 244C235 243 220 243 202 245C218 216 228 171 228 142C252 141 276 141 295 144C317 148 337 154 353 166C386 191 399 234 399 299C399 358 386 429 322 508C352 585 386 685 413 770L334 815L317 810Z" transform="translate(489.8745 499) scale(0.014 -0.014)" />
    <path d="M414 839 438 791H60V597H156V539H303V496H167V413H303V368H58V270H261C199 222 113 181 30 158C54 136 89 93 105 66C163 85 220 114 272 149V92H445V28H116V-69H887V28H559V92H737V148C786 115 840 88 895 70C912 99 947 142 972 166C888 186 804 224 743 270H944V368H701V413H836V496H701V539H842V597H940V791H585L544 863ZM445 245V183H318C351 210 381 239 406 270H601C626 239 656 210 689 183H559V245ZM586 670V624H416V670H303V624H178V689H817V624H701V670ZM416 539H586V496H416ZM416 413H586V368H416Z" transform="translate(503.8745 499) scale(0.014 -0.014)" />
    <path d="M250 469C303 469 345 509 345 563C345 618 303 658 250 658C197 658 155 618 155 563C155 509 197 469 250 469ZM166 -176C293 -135 364 -41 364 83C364 177 325 233 255 233C202 233 158 200 158 143C158 85 203 52 253 52L265 53C263 -12 218 -64 134 -96Z" transform="translate(517.8745 499) scale(0.014 -0.014)" />
    <path d="M870 1241Q694 1241 597.0 1111.0Q500 981 500 745Q500 510 597.0 380.0Q694 250 870 250Q1047 250 1144.0 380.0Q1241 510 1241 745Q1241 981 1144.0 1111.0Q1047 1241 870 1241ZM870 1520Q1230 1520 1434.0 1314.0Q1638 1108 1638 745Q1638 383 1434.0 177.0Q1230 -29 870 -29Q511 -29 306.5 177.0Q102 383 102 745Q102 1108 306.5 1314.0Q511 1520 870 1520Z" transform="translate(531.8745 499) scale(0.0068 -0.0068)" />
    <path d="M1024 -293V-483H0V-293Z" transform="translate(543.7759 499) scale(0.0068 -0.0068)" />
    <path d="M188 1493H618L1161 469V1493H1526V0H1096L553 1024V0H188Z" transform="translate(550.7759 499) scale(0.0068 -0.0068)" />
    <path d="M870 1241Q694 1241 597.0 1111.0Q500 981 500 745Q500 510 597.0 380.0Q694 250 870 250Q1047 250 1144.0 380.0Q1241 510 1241 745Q1241 981 1144.0 1111.0Q1047 1241 870 1241ZM870 1520Q1230 1520 1434.0 1314.0Q1638 1108 1638 745Q1638 383 1434.0 177.0Q1230 -29 870 -29Q511 -29 306.5 177.0Q102 383 102 745Q102 1108 306.5 1314.0Q511 1520 870 1520Z" transform="translate(562.4927 499) scale(0.0068 -0.0068)" />
    <path d="M188 1493H618L1161 469V1493H1526V0H1096L553 1024V0H188Z" transform="translate(574.394 499) scale(0.0068 -0.0068)" />
    <path d="M786 915Q877 915 924.0 955.0Q971 995 971 1073Q971 1150 924.0 1190.5Q877 1231 786 1231H573V915ZM799 262Q915 262 973.5 311.0Q1032 360 1032 459Q1032 556 974.0 604.5Q916 653 799 653H573V262ZM1157 799Q1281 763 1349.0 666.0Q1417 569 1417 428Q1417 212 1271.0 106.0Q1125 0 827 0H188V1493H766Q1077 1493 1216.5 1399.0Q1356 1305 1356 1098Q1356 989 1305.0 912.5Q1254 836 1157 799Z" transform="translate(586.1108 499) scale(0.0068 -0.0068)" />
    <path d="M188 1493H573V291H1249V0H188Z" transform="translate(596.7817 499) scale(0.0068 -0.0068)" />
    <path d="M870 1241Q694 1241 597.0 1111.0Q500 981 500 745Q500 510 597.0 380.0Q694 250 870 250Q1047 250 1144.0 380.0Q1241 510 1241 745Q1241 981 1144.0 1111.0Q1047 1241 870 1241ZM870 1520Q1230 1520 1434.0 1314.0Q1638 1108 1638 745Q1638 383 1434.0 177.0Q1230 -29 870 -29Q511 -29 306.5 177.0Q102 383 102 745Q102 1108 306.5 1314.0Q511 1520 870 1520Z" transform="translate(605.7026 499) scale(0.0068 -0.0068)" />
    <path d="M1372 82Q1266 27 1151.0 -1.0Q1036 -29 911 -29Q538 -29 320.0 179.5Q102 388 102 745Q102 1103 320.0 1311.5Q538 1520 911 1520Q1036 1520 1151.0 1492.0Q1266 1464 1372 1409V1100Q1265 1173 1161.0 1207.0Q1057 1241 942 1241Q736 1241 618.0 1109.0Q500 977 500 745Q500 514 618.0 382.0Q736 250 942 250Q1057 250 1161.0 284.0Q1265 318 1372 391Z" transform="translate(617.604 499) scale(0.0068 -0.0068)" />
    <path d="M188 1493H573V948L1128 1493H1575L856 786L1649 0H1167L573 588V0H188Z" transform="translate(627.8784 499) scale(0.0068 -0.0068)" />
    <path d="M459 428C507 355 572 256 601 198L708 260C675 317 607 411 558 480ZM299 385V203H178V385ZM299 490H178V664H299ZM66 771V16H178V96H411V771ZM747 843V665H448V546H747V71C747 51 739 44 717 44C695 44 621 44 551 47C569 13 588 -41 593 -74C693 -75 764 -72 808 -53C853 -34 869 -2 869 70V546H971V665H869V843Z" transform="translate(643.6011 499) scale(0.014 -0.014)" />
    <path d="M53 763C99 711 163 639 193 596L295 668C262 710 194 778 149 826ZM273 490H41V377H152V130C111 113 64 78 19 29L102 -89C133 -34 173 33 201 33C226 33 262 2 313 -23C390 -60 480 -73 606 -73C709 -73 872 -66 938 -61C941 -26 960 34 975 66C874 51 716 43 611 43C498 43 402 49 333 84C309 96 290 107 273 117ZM489 402 626 282C574 236 512 200 444 177C467 153 497 108 510 79C586 110 654 150 713 203C762 158 806 115 836 81L927 165C893 199 844 243 790 289C850 368 894 467 920 589L845 613L824 610H496V682C655 689 828 709 959 746L860 842C745 809 550 790 377 784V561C377 440 369 275 275 161C303 148 356 114 378 94C466 204 490 369 495 503H776C757 452 732 405 701 364L572 472Z" transform="translate(657.6011 499) scale(0.014 -0.014)" />
    <path d="M405 471H581V297H405ZM292 576V193H702V576ZM71 816V-89H196V-35H799V-89H930V816ZM196 77V693H799V77Z" transform="translate(671.6011 499) scale(0.014 -0.014)" />
    <path d="M188 1493H1227V1202H573V924H1188V633H573V291H1249V0H188Z" transform="translate(690.4751 499) scale(0.0068 -0.0068)" />
    <path d="M1094 272H492L397 0H10L563 1493H1022L1575 0H1188ZM588 549H997L793 1143Z" transform="translate(700.0386 499) scale(0.0068 -0.0068)" />
    <path d="M1530 111Q1386 41 1231.0 6.0Q1076 -29 911 -29Q538 -29 320.0 179.5Q102 388 102 745Q102 1106 324.0 1313.0Q546 1520 932 1520Q1081 1520 1217.5 1492.0Q1354 1464 1475 1409V1100Q1350 1171 1226.5 1206.0Q1103 1241 979 1241Q749 1241 624.5 1112.5Q500 984 500 745Q500 508 620.0 379.0Q740 250 961 250Q1021 250 1072.5 257.5Q1124 265 1165 281V571H930V829H1530Z" transform="translate(710.8735 499) scale(0.0068 -0.0068)" />
    <path d="M1094 272H492L397 0H10L563 1493H1022L1575 0H1188ZM588 549H997L793 1143Z" transform="translate(722.3647 499) scale(0.0068 -0.0068)" />
    <path d="M188 1493H573V0H188Z" transform="translate(733.1997 499) scale(0.0068 -0.0068)" />
    <path d="M188 1493H618L1161 469V1493H1526V0H1096L553 1024V0H188Z" transform="translate(738.4087 499) scale(0.0068 -0.0068)" />
    <path d="M193 248C105 248 32 175 32 86C32 -3 105 -76 193 -76C283 -76 355 -3 355 86C355 175 283 248 193 248ZM193 -4C145 -4 104 36 104 86C104 136 145 176 193 176C243 176 283 136 283 86C283 36 243 -4 193 -4Z" transform="translate(750.1255 499) scale(0.014 -0.014)" />
  </g>
</svg>