<svg xmlns="http://www.w3.org/2000/svg" width="1120" height="520" viewBox="0 0 1120 520">
  <defs>
    <marker id="arrow" markerWidth="10" markerHeight="10" refX="8" refY="5" orient="auto" markerUnits="strokeWidth">
      <path d="M1,1 L8,5 L1,9" fill="none" stroke="#1f2937" stroke-width="1.7" stroke-linecap="round" stroke-linejoin="round" />
    </marker>
    <style>
      .page { fill: #ffffff; }
      .box { stroke: #1f2937; stroke-width: 2; }
      .user { fill: #dcfce7; }
      .kernel { fill: #dbeafe; }
      .frame { fill: #fef3c7; }
      .branch { fill: #f8fafc; }
      .return { fill: #ede9fe; }
      .arrow { stroke: #1f2937; stroke-width: 2.3; fill: none; marker-end: url(#arrow); }
      .thin { stroke: #475569; stroke-width: 1.8; fill: none; marker-end: url(#arrow); }
      .dash { stroke: #64748b; stroke-width: 1.6; stroke-dasharray: 7 7; fill: none; marker-end: url(#arrow); }
      .title {
        font-family: Arial, "Noto Sans CJK SC", "Microsoft YaHei", sans-serif;
        font-size: 26px;
        font-weight: 700;
        fill: #111827;
      }
      .head {
        font-family: Arial, "Noto Sans CJK SC", "Microsoft YaHei", sans-serif;
        font-size: 18px;
        font-weight: 700;
        fill: #111827;
      }
      .text {
        font-family: Arial, "Noto Sans CJK SC", "Microsoft YaHei", sans-serif;
        font-size: 15px;
        fill: #374151;
      }
      .label {
        font-family: Arial, "Noto Sans CJK SC", "Microsoft YaHei", sans-serif;
        font-size: 14px;
        font-weight: 700;
        fill: #334155;
      }
    </style>
  </defs>
  <rect class="page" x="0" y="0" width="1120" height="520" />
  <g data-text="Kairix Trap 处理流程" fill="#111827">
    <path d="M188 1493H573V948L1128 1493H1575L856 786L1649 0H1167L573 588V0H188Z" transform="translate(423.0366 44) scale(0.0127 -0.0127)" />
    <path d="M674 504Q562 504 505.5 466.0Q449 428 449 354Q449 286 494.5 247.5Q540 209 621 209Q722 209 791.0 281.5Q860 354 860 463V504ZM1221 639V0H860V166Q788 64 698.0 17.5Q608 -29 479 -29Q305 -29 196.5 72.5Q88 174 88 336Q88 533 223.5 625.0Q359 717 649 717H860V745Q860 830 793.0 869.5Q726 909 584 909Q469 909 370.0 886.0Q271 863 186 817V1090Q301 1118 417.0 1132.5Q533 1147 649 1147Q952 1147 1086.5 1027.5Q1221 908 1221 639Z" transform="translate(443.1841 44) scale(0.0127 -0.0127)" />
    <path d="M172 1120H530V0H172ZM172 1556H530V1264H172Z" transform="translate(460.729 44) scale(0.0127 -0.0127)" />
    <path d="M1004 815Q957 837 910.5 847.5Q864 858 817 858Q679 858 604.5 769.5Q530 681 530 516V0H172V1120H530V936Q599 1046 688.5 1096.5Q778 1147 903 1147Q921 1147 942.0 1145.5Q963 1144 1003 1139Z" transform="translate(469.6411 44) scale(0.0127 -0.0127)" />
    <path d="M172 1120H530V0H172ZM172 1556H530V1264H172Z" transform="translate(482.4634 44) scale(0.0127 -0.0127)" />
    <path d="M455 573 51 1120H430L659 788L891 1120H1270L866 575L1290 0H911L659 354L410 0H31Z" transform="translate(491.3755 44) scale(0.0127 -0.0127)" />
    <path d="M10 1493H1386V1202H891V0H506V1202H10Z" transform="translate(517.1978 44) scale(0.0127 -0.0127)" />
    <path d="M1004 815Q957 837 910.5 847.5Q864 858 817 858Q679 858 604.5 769.5Q530 681 530 516V0H172V1120H530V936Q599 1046 688.5 1096.5Q778 1147 903 1147Q921 1147 942.0 1145.5Q963 1144 1003 1139Z" transform="translate(534.9331 44) scale(0.0127 -0.0127)" />
    <path d="M674 504Q562 504 505.5 466.0Q449 428 449 354Q449 286 494.5 247.5Q540 209 621 209Q722 209 791.0 281.5Q860 354 860 463V504ZM1221 639V0H860V166Q788 64 698.0 17.5Q608 -29 479 -29Q305 -29 196.5 72.5Q88 174 88 336Q88 533 223.5 625.0Q359 717 649 717H860V745Q860 830 793.0 869.5Q726 909 584 909Q469 909 370.0 886.0Q271 863 186 817V1090Q301 1118 417.0 1132.5Q533 1147 649 1147Q952 1147 1086.5 1027.5Q1221 908 1221 639Z" transform="translate(547.7554 44) scale(0.0127 -0.0127)" />
    <path d="M530 162V-426H172V1120H530V956Q604 1054 694.0 1100.5Q784 1147 901 1147Q1108 1147 1241.0 982.5Q1374 818 1374 559Q1374 300 1241.0 135.5Q1108 -29 901 -29Q784 -29 694.0 17.5Q604 64 530 162ZM768 887Q653 887 591.5 802.5Q530 718 530 559Q530 400 591.5 315.5Q653 231 768 231Q883 231 943.5 315.0Q1004 399 1004 559Q1004 719 943.5 803.0Q883 887 768 887Z" transform="translate(565.3003 44) scale(0.0127 -0.0127)" />
    <path d="M395 581C381 472 357 380 323 302C292 358 266 427 244 509L267 581ZM196 848C169 648 111 450 37 350C69 334 113 303 135 283C152 306 168 332 183 362C205 295 231 238 260 190C200 103 121 42 23 -1C53 -19 103 -67 123 -95C208 -54 280 5 340 84C457 -38 607 -70 772 -70H935C942 -35 962 27 982 57C934 56 818 56 778 56C639 56 508 82 405 189C469 312 511 472 530 675L449 695L427 691H296C306 734 315 778 323 822ZM590 850V101H718V476C770 406 821 332 847 279L955 345C912 420 820 535 750 618L718 600V850Z" transform="translate(592.9634 44) scale(0.026 -0.026)" />
    <path d="M514 527H617V442H514ZM718 527H816V442H718ZM514 706H617V622H514ZM718 706H816V622H718ZM329 51V-58H975V51H729V146H941V254H729V340H931V807H405V340H606V254H399V146H606V51ZM24 124 51 2C147 33 268 73 379 111L358 225L261 194V394H351V504H261V681H368V792H36V681H146V504H45V394H146V159Z" transform="translate(618.9634 44) scale(0.026 -0.026)" />
    <path d="M565 356V-46H670V356ZM395 356V264C395 179 382 74 267 -6C294 -23 334 -60 351 -84C487 13 503 151 503 260V356ZM732 356V59C732 -8 739 -30 756 -47C773 -64 800 -72 824 -72C838 -72 860 -72 876 -72C894 -72 917 -67 931 -58C947 -49 957 -34 964 -13C971 7 975 59 977 104C950 114 914 131 896 149C895 104 894 68 892 52C890 37 888 30 885 26C882 24 877 23 872 23C867 23 860 23 856 23C852 23 847 25 846 28C843 31 842 41 842 56V356ZM72 750C135 720 215 669 252 632L322 729C282 766 200 811 138 838ZM31 473C96 446 179 399 218 364L285 464C242 498 158 540 94 564ZM49 3 150 -78C211 20 274 134 327 239L239 319C179 203 102 78 49 3ZM550 825C563 796 576 761 585 729H324V622H495C462 580 427 537 412 523C390 504 355 496 332 491C340 466 356 409 360 380C398 394 451 399 828 426C845 402 859 380 869 361L965 423C933 477 865 559 810 622H948V729H710C698 766 679 814 661 851ZM708 581 758 520 540 508C569 544 600 584 629 622H776Z" transform="translate(644.9634 44) scale(0.026 -0.026)" />
    <path d="M570 711H804V573H570ZM459 812V472H920V812ZM451 226V125H626V37H388V-68H969V37H746V125H923V226H746V309H947V412H427V309H626V226ZM340 839C263 805 140 775 29 757C42 732 57 692 63 665C102 670 143 677 185 684V568H41V457H169C133 360 76 252 20 187C39 157 65 107 76 73C115 123 153 194 185 271V-89H301V303C325 266 349 227 361 201L430 296C411 318 328 405 301 427V457H408V568H301V710C344 720 385 733 421 747Z" transform="translate(670.9634 44) scale(0.026 -0.026)" />
  </g>
  <!-- Main flow -->
  <rect class="box user" x="60" y="112" width="150" height="74" rx="9" />
  <g data-text="用户态事件" fill="#111827">
    <path d="M142 783V424C142 283 133 104 23 -17C50 -32 99 -73 118 -95C190 -17 227 93 244 203H450V-77H571V203H782V53C782 35 775 29 757 29C738 29 672 28 615 31C631 0 650 -52 654 -84C745 -85 806 -82 847 -63C888 -45 902 -12 902 52V783ZM260 668H450V552H260ZM782 668V552H571V668ZM260 440H450V316H257C259 354 260 390 260 423ZM782 440V316H571V440Z" transform="translate(90 142) scale(0.018 -0.018)" />
    <path d="M270 587H744V430H270V472ZM419 825C436 787 456 736 468 699H144V472C144 326 134 118 26 -24C55 -37 109 -75 132 -97C217 14 251 175 264 318H744V266H867V699H536L596 716C584 755 561 812 539 855Z" transform="translate(108 142) scale(0.018 -0.018)" />
    <path d="M375 392C433 359 506 308 540 273L651 341C611 376 536 424 479 454ZM263 244V73C263 -36 299 -69 438 -69C467 -69 602 -69 632 -69C745 -69 780 -33 794 111C762 118 711 136 686 154C680 53 672 38 623 38C589 38 476 38 450 38C392 38 382 42 382 74V244ZM404 256C456 204 518 132 544 84L643 146C613 194 549 263 496 311ZM740 229C787 141 836 24 852 -48L966 -8C947 66 894 178 846 262ZM130 252C113 164 80 66 39 0L147 -55C188 17 218 127 238 216ZM442 860C438 812 433 766 425 721H47V611H391C344 504 247 416 36 362C62 337 91 291 103 261C352 332 462 451 515 594C592 433 709 327 898 274C915 308 950 359 977 384C816 420 705 498 636 611H956V721H549C557 766 562 813 566 860Z" transform="translate(126 142) scale(0.018 -0.018)" />
    <path d="M131 144V57H435V25C435 7 429 1 410 0C394 0 334 0 286 2C302 -23 320 -65 326 -92C411 -92 465 -91 504 -76C543 -59 557 -34 557 25V57H737V14H859V190H964V281H859V405H557V450H842V649H557V690H941V784H557V850H435V784H61V690H435V649H163V450H435V405H139V324H435V281H38V190H435V144ZM278 573H435V526H278ZM557 573H719V526H557ZM557 324H737V281H557ZM557 190H737V144H557Z" transform="translate(144 142) scale(0.018 -0.018)" />
    <path d="M316 365V248H587V-89H708V248H966V365H708V538H918V656H708V837H587V656H505C515 694 525 732 533 771L417 794C395 672 353 544 299 465C328 453 379 425 403 408C425 444 446 489 465 538H587V365ZM242 846C192 703 107 560 18 470C39 440 72 375 83 345C103 367 123 391 143 417V-88H257V595C295 665 329 738 356 810Z" transform="translate(162 142) scale(0.018 -0.018)" />
  </g>
  <g data-text="syscall / fault / irq" fill="#374151">
    <path d="M1047 1085V813Q932 861 825.0 885.0Q718 909 623 909Q521 909 471.5 883.5Q422 858 422 805Q422 762 459.5 739.0Q497 716 594 705L657 696Q932 661 1027.0 581.0Q1122 501 1122 330Q1122 151 990.0 61.0Q858 -29 596 -29Q485 -29 366.5 -11.5Q248 6 123 41V313Q230 261 342.5 235.0Q455 209 571 209Q676 209 729.0 238.0Q782 267 782 324Q782 372 745.5 395.5Q709 419 600 432L537 440Q298 470 202.0 551.0Q106 632 106 797Q106 975 228.0 1061.0Q350 1147 602 1147Q701 1147 810.0 1132.0Q919 1117 1047 1085Z" transform="translate(59.1541 166) scale(0.0073 -0.0073)" />
    <path d="M25 1120H383L684 360L940 1120H1298L827 -106Q756 -293 661.5 -367.5Q567 -442 412 -442H205V-207H317Q408 -207 449.5 -178.0Q491 -149 514 -74L524 -43Z" transform="translate(68.0823 166) scale(0.0073 -0.0073)" />
    <path d="M1047 1085V813Q932 861 825.0 885.0Q718 909 623 909Q521 909 471.5 883.5Q422 858 422 805Q422 762 459.5 739.0Q497 716 594 705L657 696Q932 661 1027.0 581.0Q1122 501 1122 330Q1122 151 990.0 61.0Q858 -29 596 -29Q485 -29 366.5 -11.5Q248 6 123 41V313Q230 261 342.5 235.0Q455 209 571 209Q676 209 729.0 238.0Q782 267 782 324Q782 372 745.5 395.5Q709 419 600 432L537 440Q298 470 202.0 551.0Q106 632 106 797Q106 975 228.0 1061.0Q350 1147 602 1147Q701 1147 810.0 1132.0Q919 1117 1047 1085Z" transform="translate(77.8601 166) scale(0.0073 -0.0073)" />
    <path d="M1077 1085V793Q1004 843 930.5 867.0Q857 891 778 891Q628 891 544.5 803.5Q461 716 461 559Q461 402 544.5 314.5Q628 227 778 227Q862 227 937.5 252.0Q1013 277 1077 326V33Q993 2 906.5 -13.5Q820 -29 733 -29Q430 -29 259.0 126.5Q88 282 88 559Q88 836 259.0 991.5Q430 1147 733 1147Q821 1147 906.5 1131.5Q992 1116 1077 1085Z" transform="translate(86.7883 166) scale(0.0073 -0.0073)" />
    <path d="M674 504Q562 504 505.5 466.0Q449 428 449 354Q449 286 494.5 247.5Q540 209 621 209Q722 209 791.0 281.5Q860 354 860 463V504ZM1221 639V0H860V166Q788 64 698.0 17.5Q608 -29 479 -29Q305 -29 196.5 72.5Q88 174 88 336Q88 533 223.5 625.0Q359 717 649 717H860V745Q860 830 793.0 869.5Q726 909 584 909Q469 909 370.0 886.0Q271 863 186 817V1090Q301 1118 417.0 1132.5Q533 1147 649 1147Q952 1147 1086.5 1027.5Q1221 908 1221 639Z" transform="translate(95.6799 166) scale(0.0073 -0.0073)" />
    <path d="M172 1556H530V0H172Z" transform="translate(105.802 166) scale(0.0073 -0.0073)" />
    <path d="M172 1556H530V0H172Z" transform="translate(110.9436 166) scale(0.0073 -0.0073)" />
    <path d="M526 1493H748L221 -190H0Z" transform="translate(121.3074 166) scale(0.0073 -0.0073)" />
    <path d="M909 1556V1321H711Q635 1321 605.0 1293.5Q575 1266 575 1198V1120H881V864H575V0H217V864H39V1120H217V1198Q217 1381 319.0 1468.5Q421 1556 635 1556Z" transform="translate(132.0081 166) scale(0.0073 -0.0073)" />
    <path d="M674 504Q562 504 505.5 466.0Q449 428 449 354Q449 286 494.5 247.5Q540 209 621 209Q722 209 791.0 281.5Q860 354 860 463V504ZM1221 639V0H860V166Q788 64 698.0 17.5Q608 -29 479 -29Q305 -29 196.5 72.5Q88 174 88 336Q88 533 223.5 625.0Q359 717 649 717H860V745Q860 830 793.0 869.5Q726 909 584 909Q469 909 370.0 886.0Q271 863 186 817V1090Q301 1118 417.0 1132.5Q533 1147 649 1147Q952 1147 1086.5 1027.5Q1221 908 1221 639Z" transform="translate(138.5339 166) scale(0.0073 -0.0073)" />
    <path d="M160 436V1120H520V1008Q520 917 519.0 779.5Q518 642 518 596Q518 461 525.0 401.5Q532 342 549 315Q571 280 606.5 261.0Q642 242 688 242Q800 242 864.0 328.0Q928 414 928 567V1120H1286V0H928V162Q847 64 756.5 17.5Q666 -29 557 -29Q363 -29 261.5 90.0Q160 209 160 436Z" transform="translate(148.656 166) scale(0.0073 -0.0073)" />
    <path d="M172 1556H530V0H172Z" transform="translate(159.3347 166) scale(0.0073 -0.0073)" />
    <path d="M563 1438V1120H932V864H563V389Q563 311 594.0 283.5Q625 256 717 256H901V0H594Q382 0 293.5 88.5Q205 177 205 389V864H27V1120H205V1438Z" transform="translate(164.4763 166) scale(0.0073 -0.0073)" />
    <path d="M526 1493H748L221 -190H0Z" transform="translate(176.8689 166) scale(0.0073 -0.0073)" />
    <path d="M172 1120H530V0H172ZM172 1556H530V1264H172Z" transform="translate(187.5696 166) scale(0.0073 -0.0073)" />
    <path d="M1004 815Q957 837 910.5 847.5Q864 858 817 858Q679 858 604.5 769.5Q530 681 530 516V0H172V1120H530V936Q599 1046 688.5 1096.5Q778 1147 903 1147Q921 1147 942.0 1145.5Q963 1144 1003 1139Z" transform="translate(192.7112 166) scale(0.0073 -0.0073)" />
    <path d="M698 887Q584 887 523.5 803.0Q463 719 463 559Q463 399 523.5 315.0Q584 231 698 231Q813 231 873.5 315.0Q934 399 934 559Q934 719 873.5 803.0Q813 887 698 887ZM934 162Q860 63 771.0 17.0Q682 -29 565 -29Q358 -29 225.0 135.5Q92 300 92 559Q92 818 225.0 981.5Q358 1145 565 1145Q682 1145 771.0 1099.0Q860 1053 934 954V1120H1294V-426H934Z" transform="translate(200.1086 166) scale(0.0073 -0.0073)" />
  </g>
  <rect class="box kernel" x="270" y="112" width="150" height="74" rx="9" />
  <g data-text="kernelvec/uservec" fill="#111827">
    <path d="M172 1556H530V709L942 1120H1358L811 606L1401 0H967L530 467V0H172Z" transform="translate(274.8007 142) scale(0.0067 -0.0067)" />
    <path d="M1290 563V461H453Q466 335 544.0 272.0Q622 209 762 209Q875 209 993.5 242.5Q1112 276 1237 344V68Q1110 20 983.0 -4.5Q856 -29 729 -29Q425 -29 256.5 125.5Q88 280 88 559Q88 833 253.5 990.0Q419 1147 709 1147Q973 1147 1131.5 988.0Q1290 829 1290 563ZM922 682Q922 784 862.5 846.5Q803 909 707 909Q603 909 538.0 850.5Q473 792 457 682Z" transform="translate(283.5576 142) scale(0.0067 -0.0067)" />
    <path d="M1004 815Q957 837 910.5 847.5Q864 858 817 858Q679 858 604.5 769.5Q530 681 530 516V0H172V1120H530V936Q599 1046 688.5 1096.5Q778 1147 903 1147Q921 1147 942.0 1145.5Q963 1144 1003 1139Z" transform="translate(292.8639 142) scale(0.0067 -0.0067)" />
    <path d="M1298 682V0H938V111V522Q938 667 931.5 722.0Q925 777 909 803Q888 838 852.0 857.5Q816 877 770 877Q658 877 594.0 790.5Q530 704 530 551V0H172V1120H530V956Q611 1054 702.0 1100.5Q793 1147 903 1147Q1097 1147 1197.5 1028.0Q1298 909 1298 682Z" transform="translate(299.6309 142) scale(0.0067 -0.0067)" />
    <path d="M1290 563V461H453Q466 335 544.0 272.0Q622 209 762 209Q875 209 993.5 242.5Q1112 276 1237 344V68Q1110 20 983.0 -4.5Q856 -29 729 -29Q425 -29 256.5 125.5Q88 280 88 559Q88 833 253.5 990.0Q419 1147 709 1147Q973 1147 1131.5 988.0Q1290 829 1290 563ZM922 682Q922 784 862.5 846.5Q803 909 707 909Q603 909 538.0 850.5Q473 792 457 682Z" transform="translate(309.3995 142) scale(0.0067 -0.0067)" />
    <path d="M172 1556H530V0H172Z" transform="translate(318.7058 142) scale(0.0067 -0.0067)" />
    <path d="M31 1120H389L668 346L946 1120H1305L864 0H471Z" transform="translate(323.4092 142) scale(0.0067 -0.0067)" />
    <path d="M1290 563V461H453Q466 335 544.0 272.0Q622 209 762 209Q875 209 993.5 242.5Q1112 276 1237 344V68Q1110 20 983.0 -4.5Q856 -29 729 -29Q425 -29 256.5 125.5Q88 280 88 559Q88 833 253.5 990.0Q419 1147 709 1147Q973 1147 1131.5 988.0Q1290 829 1290 563ZM922 682Q922 784 862.5 846.5Q803 909 707 909Q603 909 538.0 850.5Q473 792 457 682Z" transform="translate(332.3537 142) scale(0.0067 -0.0067)" />
    <path d="M1077 1085V793Q1004 843 930.5 867.0Q857 891 778 891Q628 891 544.5 803.5Q461 716 461 559Q461 402 544.5 314.5Q628 227 778 227Q862 227 937.5 252.0Q1013 277 1077 326V33Q993 2 906.5 -13.5Q820 -29 733 -29Q430 -29 259.0 126.5Q88 282 88 559Q88 836 259.0 991.5Q430 1147 733 1147Q821 1147 906.5 1131.5Q992 1116 1077 1085Z" transform="translate(341.6601 142) scale(0.0067 -0.0067)" />
    <path d="M526 1493H748L221 -190H0Z" transform="translate(349.7939 142) scale(0.0067 -0.0067)" />
    <path d="M160 436V1120H520V1008Q520 917 519.0 779.5Q518 642 518 596Q518 461 525.0 401.5Q532 342 549 315Q571 280 606.5 261.0Q642 242 688 242Q800 242 864.0 328.0Q928 414 928 567V1120H1286V0H928V162Q847 64 756.5 17.5Q666 -29 557 -29Q363 -29 261.5 90.0Q160 209 160 436Z" transform="translate(354.8055 142) scale(0.0067 -0.0067)" />
    <path d="M1047 1085V813Q932 861 825.0 885.0Q718 909 623 909Q521 909 471.5 883.5Q422 858 422 805Q422 762 459.5 739.0Q497 716 594 705L657 696Q932 661 1027.0 581.0Q1122 501 1122 330Q1122 151 990.0 61.0Q858 -29 596 -29Q485 -29 366.5 -11.5Q248 6 123 41V313Q230 261 342.5 235.0Q455 209 571 209Q676 209 729.0 238.0Q782 267 782 324Q782 372 745.5 395.5Q709 419 600 432L537 440Q298 470 202.0 551.0Q106 632 106 797Q106 975 228.0 1061.0Q350 1147 602 1147Q701 1147 810.0 1132.0Q919 1117 1047 1085Z" transform="translate(364.5740 142) scale(0.0067 -0.0067)" />
    <path d="M1290 563V461H453Q466 335 544.0 272.0Q622 209 762 209Q875 209 993.5 242.5Q1112 276 1237 344V68Q1110 20 983.0 -4.5Q856 -29 729 -29Q425 -29 256.5 125.5Q88 280 88 559Q88 833 253.5 990.0Q419 1147 709 1147Q973 1147 1131.5 988.0Q1290 829 1290 563ZM922 682Q922 784 862.5 846.5Q803 909 707 909Q603 909 538.0 850.5Q473 792 457 682Z" transform="translate(372.7414 142) scale(0.0067 -0.0067)" />
    <path d="M1004 815Q957 837 910.5 847.5Q864 858 817 858Q679 858 604.5 769.5Q530 681 530 516V0H172V1120H530V936Q599 1046 688.5 1096.5Q778 1147 903 1147Q921 1147 942.0 1145.5Q963 1144 1003 1139Z" transform="translate(382.0476 142) scale(0.0067 -0.0067)" />
    <path d="M31 1120H389L668 346L946 1120H1305L864 0H471Z" transform="translate(388.8147 142) scale(0.0067 -0.0067)" />
    <path d="M1290 563V461H453Q466 335 544.0 272.0Q622 209 762 209Q875 209 993.5 242.5Q1112 276 1237 344V68Q1110 20 983.0 -4.5Q856 -29 729 -29Q425 -29 256.5 125.5Q88 280 88 559Q88 833 253.5 990.0Q419 1147 709 1147Q973 1147 1131.5 988.0Q1290 829 1290 563ZM922 682Q922 784 862.5 846.5Q803 909 707 909Q603 909 538.0 850.5Q473 792 457 682Z" transform="translate(397.7591 142) scale(0.0067 -0.0067)" />
    <path d="M1077 1085V793Q1004 843 930.5 867.0Q857 891 778 891Q628 891 544.5 803.5Q461 716 461 559Q461 402 544.5 314.5Q628 227 778 227Q862 227 937.5 252.0Q1013 277 1077 326V33Q993 2 906.5 -13.5Q820 -29 733 -29Q430 -29 259.0 126.5Q88 282 88 559Q88 836 259.0 991.5Q430 1147 733 1147Q821 1147 906.5 1131.5Q992 1116 1077 1085Z" transform="translate(407.0654 142) scale(0.0067 -0.0067)" />
  </g>
  <g data-text="保存上下文" fill="#374151">
    <path d="M499 700H793V566H499ZM386 806V461H583V370H319V262H524C463 173 374 92 283 45C310 22 348 -22 366 -51C446 -1 522 77 583 165V-90H703V169C761 80 833 -1 907 -53C926 -24 965 20 992 42C907 91 820 174 762 262H962V370H703V461H914V806ZM255 847C202 704 111 562 18 472C39 443 71 378 82 349C108 375 133 405 158 438V-87H272V613C308 677 340 745 366 811Z" transform="translate(307.5 166) scale(0.015 -0.015)" />
    <path d="M603 344V275H349V163H603V40C603 27 598 23 582 22C566 22 506 22 456 25C471 -9 485 -56 490 -90C570 -91 629 -89 671 -73C714 -55 724 -23 724 37V163H962V275H724V312C791 359 858 418 909 472L833 533L808 527H426V419H700C669 391 634 364 603 344ZM368 850C357 807 343 763 326 719H55V604H275C213 484 128 374 18 303C37 274 63 221 75 188C108 211 140 236 169 262V-88H290V398C337 462 377 532 410 604H947V719H459C471 753 483 786 493 820Z" transform="translate(322.5 166) scale(0.015 -0.015)" />
    <path d="M403 837V81H43V-40H958V81H532V428H887V549H532V837Z" transform="translate(337.5 166) scale(0.015 -0.015)" />
    <path d="M52 776V655H415V-87H544V391C646 333 760 260 818 207L907 317C830 380 674 467 565 521L544 496V655H949V776Z" transform="translate(352.5 166) scale(0.015 -0.015)" />
    <path d="M412 822C435 779 458 722 469 681H44V564H202C256 423 326 302 416 202C312 121 182 64 25 25C49 -3 85 -59 98 -88C259 -41 394 26 505 116C611 27 740 -39 898 -81C916 -48 952 4 979 31C828 65 702 125 598 204C687 301 755 420 806 564H960V681H524L609 708C597 749 567 813 540 860ZM507 286C430 365 370 459 326 564H672C631 454 577 362 507 286Z" transform="translate(367.5 166) scale(0.015 -0.015)" />
  </g>
  <rect class="box frame" x="480" y="112" width="150" height="74" rx="9" />
  <g data-text="TrapFrame" fill="#111827">
    <path d="M10 1493H1386V1202H891V0H506V1202H10Z" transform="translate(499.7651 142) scale(0.0088 -0.0088)" />
    <path d="M1004 815Q957 837 910.5 847.5Q864 858 817 858Q679 858 604.5 769.5Q530 681 530 516V0H172V1120H530V936Q599 1046 688.5 1096.5Q778 1147 903 1147Q921 1147 942.0 1145.5Q963 1144 1003 1139Z" transform="translate(512.0435 142) scale(0.0088 -0.0088)" />
    <path d="M674 504Q562 504 505.5 466.0Q449 428 449 354Q449 286 494.5 247.5Q540 209 621 209Q722 209 791.0 281.5Q860 354 860 463V504ZM1221 639V0H860V166Q788 64 698.0 17.5Q608 -29 479 -29Q305 -29 196.5 72.5Q88 174 88 336Q88 533 223.5 625.0Q359 717 649 717H860V745Q860 830 793.0 869.5Q726 909 584 909Q469 909 370.0 886.0Q271 863 186 817V1090Q301 1118 417.0 1132.5Q533 1147 649 1147Q952 1147 1086.5 1027.5Q1221 908 1221 639Z" transform="translate(520.9204 142) scale(0.0088 -0.0088)" />
    <path d="M530 162V-426H172V1120H530V956Q604 1054 694.0 1100.5Q784 1147 901 1147Q1108 1147 1241.0 982.5Q1374 818 1374 559Q1374 300 1241.0 135.5Q1108 -29 901 -29Q784 -29 694.0 17.5Q604 64 530 162ZM768 887Q653 887 591.5 802.5Q530 718 530 559Q530 400 591.5 315.5Q653 231 768 231Q883 231 943.5 315.0Q1004 399 1004 559Q1004 719 943.5 803.0Q883 887 768 887Z" transform="translate(533.0669 142) scale(0.0088 -0.0088)" />
    <path d="M188 1493H1227V1202H573V924H1188V633H573V0H188Z" transform="translate(545.9517 142) scale(0.0088 -0.0088)" />
    <path d="M1004 815Q957 837 910.5 847.5Q864 858 817 858Q679 858 604.5 769.5Q530 681 530 516V0H172V1120H530V936Q599 1046 688.5 1096.5Q778 1147 903 1147Q921 1147 942.0 1145.5Q963 1144 1003 1139Z" transform="translate(558.2476 142) scale(0.0088 -0.0088)" />
    <path d="M674 504Q562 504 505.5 466.0Q449 428 449 354Q449 286 494.5 247.5Q540 209 621 209Q722 209 791.0 281.5Q860 354 860 463V504ZM1221 639V0H860V166Q788 64 698.0 17.5Q608 -29 479 -29Q305 -29 196.5 72.5Q88 174 88 336Q88 533 223.5 625.0Q359 717 649 717H860V745Q860 830 793.0 869.5Q726 909 584 909Q469 909 370.0 886.0Q271 863 186 817V1090Q301 1118 417.0 1132.5Q533 1147 649 1147Q952 1147 1086.5 1027.5Q1221 908 1221 639Z" transform="translate(567.1245 142) scale(0.0088 -0.0088)" />
    <path d="M1210 934Q1278 1038 1371.5 1092.5Q1465 1147 1577 1147Q1770 1147 1871.0 1028.0Q1972 909 1972 682V0H1612V584Q1613 597 1613.5 611.0Q1614 625 1614 651Q1614 770 1579.0 823.5Q1544 877 1466 877Q1364 877 1308.5 793.0Q1253 709 1251 550V0H891V584Q891 770 859.0 823.5Q827 877 745 877Q642 877 586.0 792.5Q530 708 530 551V0H170V1120H530V956Q596 1051 681.5 1099.0Q767 1147 870 1147Q986 1147 1075.0 1091.0Q1164 1035 1210 934Z" transform="translate(579.271 142) scale(0.0088 -0.0088)" />
    <path d="M1290 563V461H453Q466 335 544.0 272.0Q622 209 762 209Q875 209 993.5 242.5Q1112 276 1237 344V68Q1110 20 983.0 -4.5Q856 -29 729 -29Q425 -29 256.5 125.5Q88 280 88 559Q88 833 253.5 990.0Q419 1147 709 1147Q973 1147 1131.5 988.0Q1290 829 1290 563ZM922 682Q922 784 862.5 846.5Q803 909 707 909Q603 909 538.0 850.5Q473 792 457 682Z" transform="translate(598.0269 142) scale(0.0088 -0.0088)" />
  </g>
  <g data-text="寄存器 / PC" fill="#374151">
    <path d="M423 834C429 818 435 800 440 782H67V575H178V679H816V575H933V782H573C566 807 556 834 545 856ZM156 244V-47H266V3H565C578 -26 590 -62 594 -89C670 -89 726 -88 766 -72C808 -55 819 -26 819 31V286H945V390H785L822 441C758 472 645 509 548 532H811V625H554L560 665H448L442 625H184V532H397C358 491 285 466 151 450C164 435 181 412 192 390H55V286H700V34C700 22 695 18 680 17L589 18V244ZM473 461C546 442 627 416 691 390H326C392 408 439 431 473 461ZM266 156H477V92H266Z" transform="translate(513.5376 166) scale(0.015 -0.015)" />
    <path d="M603 344V275H349V163H603V40C603 27 598 23 582 22C566 22 506 22 456 25C471 -9 485 -56 490 -90C570 -91 629 -89 671 -73C714 -55 724 -23 724 37V163H962V275H724V312C791 359 858 418 909 472L833 533L808 527H426V419H700C669 391 634 364 603 344ZM368 850C357 807 343 763 326 719H55V604H275C213 484 128 374 18 303C37 274 63 221 75 188C108 211 140 236 169 262V-88H290V398C337 462 377 532 410 604H947V719H459C471 753 483 786 493 820Z" transform="translate(528.5376 166) scale(0.015 -0.015)" />
    <path d="M227 708H338V618H227ZM648 708H769V618H648ZM606 482C638 469 676 450 707 431H484C500 456 514 482 527 508L452 522V809H120V517H401C387 488 369 459 348 431H45V327H243C184 280 110 239 20 206C42 185 72 140 84 112L120 128V-90H230V-66H337V-84H452V227H292C334 258 371 292 404 327H571C602 291 639 257 679 227H541V-90H651V-66H769V-84H885V117L911 108C928 137 961 182 987 204C889 229 794 273 722 327H956V431H785L816 462C794 480 759 500 722 517H884V809H540V517H642ZM230 37V124H337V37ZM651 37V124H769V37Z" transform="translate(543.5376 166) scale(0.015 -0.015)" />
    <path d="M526 1493H748L221 -190H0Z" transform="translate(563.7598 166) scale(0.0073 -0.0073)" />
    <path d="M188 1493H827Q1112 1493 1264.5 1366.5Q1417 1240 1417 1006Q1417 771 1264.5 644.5Q1112 518 827 518H573V0H188ZM573 1214V797H786Q898 797 959.0 851.5Q1020 906 1020 1006Q1020 1106 959.0 1160.0Q898 1214 786 1214Z" transform="translate(574.4604 166) scale(0.0073 -0.0073)" />
    <path d="M1372 82Q1266 27 1151.0 -1.0Q1036 -29 911 -29Q538 -29 320.0 179.5Q102 388 102 745Q102 1103 320.0 1311.5Q538 1520 911 1520Q1036 1520 1151.0 1492.0Q1266 1464 1372 1409V1100Q1265 1173 1161.0 1207.0Q1057 1241 942 1241Q736 1241 618.0 1109.0Q500 977 500 745Q500 514 618.0 382.0Q736 250 942 250Q1057 250 1161.0 284.0Q1265 318 1372 391Z" transform="translate(585.4541 166) scale(0.0073 -0.0073)" />
  </g>
  <rect class="box kernel" x="690" y="112" width="150" height="74" rx="9" />
  <g data-text="kernel_callback" fill="#111827">
    <path d="M172 1556H530V709L942 1120H1358L811 606L1401 0H967L530 467V0H172Z" transform="translate(703.0395 142) scale(0.0070 -0.0070)" />
    <path d="M1290 563V461H453Q466 335 544.0 272.0Q622 209 762 209Q875 209 993.5 242.5Q1112 276 1237 344V68Q1110 20 983.0 -4.5Q856 -29 729 -29Q425 -29 256.5 125.5Q88 280 88 559Q88 833 253.5 990.0Q419 1147 709 1147Q973 1147 1131.5 988.0Q1290 829 1290 563ZM922 682Q922 784 862.5 846.5Q803 909 707 909Q603 909 538.0 850.5Q473 792 457 682Z" transform="translate(712.1885 142) scale(0.0070 -0.0070)" />
    <path d="M1004 815Q957 837 910.5 847.5Q864 858 817 858Q679 858 604.5 769.5Q530 681 530 516V0H172V1120H530V936Q599 1046 688.5 1096.5Q778 1147 903 1147Q921 1147 942.0 1145.5Q963 1144 1003 1139Z" transform="translate(721.9115 142) scale(0.0070 -0.0070)" />
    <path d="M1298 682V0H938V111V522Q938 667 931.5 722.0Q925 777 909 803Q888 838 852.0 857.5Q816 877 770 877Q658 877 594.0 790.5Q530 704 530 551V0H172V1120H530V956Q611 1054 702.0 1100.5Q793 1147 903 1147Q1097 1147 1197.5 1028.0Q1298 909 1298 682Z" transform="translate(728.9815 142) scale(0.0070 -0.0070)" />
    <path d="M1290 563V461H453Q466 335 544.0 272.0Q622 209 762 209Q875 209 993.5 242.5Q1112 276 1237 344V68Q1110 20 983.0 -4.5Q856 -29 729 -29Q425 -29 256.5 125.5Q88 280 88 559Q88 833 253.5 990.0Q419 1147 709 1147Q973 1147 1131.5 988.0Q1290 829 1290 563ZM922 682Q922 784 862.5 846.5Q803 909 707 909Q603 909 538.0 850.5Q473 792 457 682Z" transform="translate(739.1875 142) scale(0.0070 -0.0070)" />
    <path d="M172 1556H530V0H172Z" transform="translate(748.9105 142) scale(0.0070 -0.0070)" />
    <path d="M1024 -293V-483H0V-293Z" transform="translate(753.8245 142) scale(0.0070 -0.0070)" />
    <path d="M1077 1085V793Q1004 843 930.5 867.0Q857 891 778 891Q628 891 544.5 803.5Q461 716 461 559Q461 402 544.5 314.5Q628 227 778 227Q862 227 937.5 252.0Q1013 277 1077 326V33Q993 2 906.5 -13.5Q820 -29 733 -29Q430 -29 259.0 126.5Q88 282 88 559Q88 836 259.0 991.5Q430 1147 733 1147Q821 1147 906.5 1131.5Q992 1116 1077 1085Z" transform="translate(760.9925 142) scale(0.0070 -0.0070)" />
    <path d="M674 504Q562 504 505.5 466.0Q449 428 449 354Q449 286 494.5 247.5Q540 209 621 209Q722 209 791.0 281.5Q860 354 860 463V504ZM1221 639V0H860V166Q788 64 698.0 17.5Q608 -29 479 -29Q305 -29 196.5 72.5Q88 174 88 336Q88 533 223.5 625.0Q359 717 649 717H860V745Q860 830 793.0 869.5Q726 909 584 909Q469 909 370.0 886.0Q271 863 186 817V1090Q301 1118 417.0 1132.5Q533 1147 649 1147Q952 1147 1086.5 1027.5Q1221 908 1221 639Z" transform="translate(769.4905 142) scale(0.0070 -0.0070)" />
    <path d="M172 1556H530V0H172Z" transform="translate(779.1645 142) scale(0.0070 -0.0070)" />
    <path d="M172 1556H530V0H172Z" transform="translate(784.0785 142) scale(0.0070 -0.0070)" />
    <path d="M768 231Q883 231 943.5 315.0Q1004 399 1004 559Q1004 719 943.5 803.0Q883 887 768 887Q653 887 591.5 802.5Q530 718 530 559Q530 400 591.5 315.5Q653 231 768 231ZM530 956Q604 1054 694.0 1100.5Q784 1147 901 1147Q1108 1147 1241.0 982.5Q1374 818 1374 559Q1374 300 1241.0 135.5Q1108 -29 901 -29Q784 -29 694.0 17.5Q604 64 530 162V0H172V1556H530Z" transform="translate(788.9925 142) scale(0.0070 -0.0070)" />
    <path d="M674 504Q562 504 505.5 466.0Q449 428 449 354Q449 286 494.5 247.5Q540 209 621 209Q722 209 791.0 281.5Q860 354 860 463V504ZM1221 639V0H860V166Q788 64 698.0 17.5Q608 -29 479 -29Q305 -29 196.5 72.5Q88 174 88 336Q88 533 223.5 625.0Q359 717 649 717H860V745Q860 830 793.0 869.5Q726 909 584 909Q469 909 370.0 886.0Q271 863 186 817V1090Q301 1118 417.0 1132.5Q533 1147 649 1147Q952 1147 1086.5 1027.5Q1221 908 1221 639Z" transform="translate(799.2545 142) scale(0.0070 -0.0070)" />
    <path d="M1077 1085V793Q1004 843 930.5 867.0Q857 891 778 891Q628 891 544.5 803.5Q461 716 461 559Q461 402 544.5 314.5Q628 227 778 227Q862 227 937.5 252.0Q1013 277 1077 326V33Q993 2 906.5 -13.5Q820 -29 733 -29Q430 -29 259.0 126.5Q88 282 88 559Q88 836 259.0 991.5Q430 1147 733 1147Q821 1147 906.5 1131.5Q992 1116 1077 1085Z" transform="translate(808.9285 142) scale(0.0070 -0.0070)" />
    <path d="M172 1556H530V709L942 1120H1358L811 606L1401 0H967L530 467V0H172Z" transform="translate(817.4265 142) scale(0.0070 -0.0070)" />
  </g>
  <g data-text="按 TrapType 分发" fill="#374151">
    <path d="M750 355C737 283 713 224 677 176L561 237C577 274 594 314 611 355ZM155 850V661H36V550H155V336C105 323 59 312 21 303L46 188L155 219V36C155 22 150 17 136 17C123 17 82 17 43 19C58 -12 73 -59 76 -90C146 -90 194 -86 227 -68C260 -51 271 -21 271 36V253L380 285L370 355H481C456 296 429 240 404 196C462 167 527 133 592 96C530 56 450 28 350 10C371 -15 398 -65 406 -93C529 -64 625 -24 699 33C773 -12 839 -56 883 -92L969 1C922 36 855 77 782 119C827 181 859 259 880 355H967V462H651C665 502 677 542 688 581L565 599C554 556 540 509 523 462H349V389L271 367V550H365V661H271V850ZM384 734V521H496V629H838V521H955V734H733C724 773 712 819 700 856L578 839C588 807 597 769 605 734Z" transform="translate(697.5732 166) scale(0.015 -0.015)" />
    <path d="M10 1493H1386V1202H891V0H506V1202H10Z" transform="translate(717.7954 166) scale(0.0073 -0.0073)" />
    <path d="M1004 815Q957 837 910.5 847.5Q864 858 817 858Q679 858 604.5 769.5Q530 681 530 516V0H172V1120H530V936Q599 1046 688.5 1096.5Q778 1147 903 1147Q921 1147 942.0 1145.5Q963 1144 1003 1139Z" transform="translate(728.0273 166) scale(0.0073 -0.0073)" />
    <path d="M674 504Q562 504 505.5 466.0Q449 428 449 354Q449 286 494.5 247.5Q540 209 621 209Q722 209 791.0 281.5Q860 354 860 463V504ZM1221 639V0H860V166Q788 64 698.0 17.5Q608 -29 479 -29Q305 -29 196.5 72.5Q88 174 88 336Q88 533 223.5 625.0Q359 717 649 717H860V745Q860 830 793.0 869.5Q726 909 584 909Q469 909 370.0 886.0Q271 863 186 817V1090Q301 1118 417.0 1132.5Q533 1147 649 1147Q952 1147 1086.5 1027.5Q1221 908 1221 639Z" transform="translate(735.4248 166) scale(0.0073 -0.0073)" />
    <path d="M530 162V-426H172V1120H530V956Q604 1054 694.0 1100.5Q784 1147 901 1147Q1108 1147 1241.0 982.5Q1374 818 1374 559Q1374 300 1241.0 135.5Q1108 -29 901 -29Q784 -29 694.0 17.5Q604 64 530 162ZM768 887Q653 887 591.5 802.5Q530 718 530 559Q530 400 591.5 315.5Q653 231 768 231Q883 231 943.5 315.0Q1004 399 1004 559Q1004 719 943.5 803.0Q883 887 768 887Z" transform="translate(745.5469 166) scale(0.0073 -0.0073)" />
    <path d="M10 1493H1386V1202H891V0H506V1202H10Z" transform="translate(756.2842 166) scale(0.0073 -0.0073)" />
    <path d="M25 1120H383L684 360L940 1120H1298L827 -106Q756 -293 661.5 -367.5Q567 -442 412 -442H205V-207H317Q408 -207 449.5 -178.0Q491 -149 514 -74L524 -43Z" transform="translate(766.5161 166) scale(0.0073 -0.0073)" />
    <path d="M530 162V-426H172V1120H530V956Q604 1054 694.0 1100.5Q784 1147 901 1147Q1108 1147 1241.0 982.5Q1374 818 1374 559Q1374 300 1241.0 135.5Q1108 -29 901 -29Q784 -29 694.0 17.5Q604 64 530 162ZM768 887Q653 887 591.5 802.5Q530 718 530 559Q530 400 591.5 315.5Q653 231 768 231Q883 231 943.5 315.0Q1004 399 1004 559Q1004 719 943.5 803.0Q883 887 768 887Z" transform="translate(776.2939 166) scale(0.0073 -0.0073)" />
    <path d="M1290 563V461H453Q466 335 544.0 272.0Q622 209 762 209Q875 209 993.5 242.5Q1112 276 1237 344V68Q1110 20 983.0 -4.5Q856 -29 729 -29Q425 -29 256.5 125.5Q88 280 88 559Q88 833 253.5 990.0Q419 1147 709 1147Q973 1147 1131.5 988.0Q1290 829 1290 563ZM922 682Q922 784 862.5 846.5Q803 909 707 909Q603 909 538.0 850.5Q473 792 457 682Z" transform="translate(787.0312 166) scale(0.0073 -0.0073)" />
    <path d="M688 839 576 795C629 688 702 575 779 482H248C323 573 390 684 437 800L307 837C251 686 149 545 32 461C61 440 112 391 134 366C155 383 175 402 195 423V364H356C335 219 281 87 57 14C85 -12 119 -61 133 -92C391 3 457 174 483 364H692C684 160 674 73 653 51C642 41 631 38 613 38C588 38 536 38 481 43C502 9 518 -42 520 -78C579 -80 637 -80 672 -75C710 -71 738 -60 763 -28C798 14 810 132 820 430V433C839 412 858 393 876 375C898 407 943 454 973 477C869 563 749 711 688 839Z" transform="translate(802.4268 166) scale(0.015 -0.015)" />
    <path d="M668 791C706 746 759 683 784 646L882 709C855 745 800 805 761 846ZM134 501C143 516 185 523 239 523H370C305 330 198 180 19 85C48 62 91 14 107 -12C229 55 320 142 389 248C420 197 456 151 496 111C420 67 332 35 237 15C260 -12 287 -59 301 -91C409 -63 509 -24 595 31C680 -25 782 -66 904 -91C920 -58 953 -8 979 18C870 36 776 67 697 109C779 185 844 282 884 407L800 446L778 441H484C494 468 503 495 512 523H945L946 638H541C555 700 566 766 575 835L440 857C431 780 419 707 403 638H265C291 689 317 751 334 809L208 829C188 750 150 671 138 651C124 628 110 614 95 609C107 580 126 526 134 501ZM593 179C542 221 500 270 467 325H713C682 269 641 220 593 179Z" transform="translate(817.4268 166) scale(0.015 -0.015)" />
  </g>
  <path class="arrow" d="M210 149 L270 149" />
  <path class="arrow" d="M420 149 L480 149" />
  <path class="arrow" d="M630 149 L690 149" />
  <!-- Branches -->
  <rect class="box branch" x="120" y="285" width="160" height="66" rx="9" />
  <g data-text="SysCall" fill="#111827">
    <path d="M1227 1446V1130Q1104 1185 987.0 1213.0Q870 1241 766 1241Q628 1241 562.0 1203.0Q496 1165 496 1085Q496 1025 540.5 991.5Q585 958 702 934L866 901Q1115 851 1220.0 749.0Q1325 647 1325 459Q1325 212 1178.5 91.5Q1032 -29 731 -29Q589 -29 446.0 -2.0Q303 25 160 78V403Q303 327 436.5 288.5Q570 250 694 250Q820 250 887.0 292.0Q954 334 954 412Q954 482 908.5 520.0Q863 558 727 588L578 621Q354 669 250.5 774.0Q147 879 147 1057Q147 1280 291.0 1400.0Q435 1520 705 1520Q828 1520 958.0 1501.5Q1088 1483 1227 1446Z" transform="translate(163.4463 313) scale(0.0088 -0.0088)" />
    <path d="M25 1120H383L684 360L940 1120H1298L827 -106Q756 -293 661.5 -367.5Q567 -442 412 -442H205V-207H317Q408 -207 449.5 -178.0Q491 -149 514 -74L524 -43Z" transform="translate(176.4102 313) scale(0.0088 -0.0088)" />
    <path d="M1047 1085V813Q932 861 825.0 885.0Q718 909 623 909Q521 909 471.5 883.5Q422 858 422 805Q422 762 459.5 739.0Q497 716 594 705L657 696Q932 661 1027.0 581.0Q1122 501 1122 330Q1122 151 990.0 61.0Q858 -29 596 -29Q485 -29 366.5 -11.5Q248 6 123 41V313Q230 261 342.5 235.0Q455 209 571 209Q676 209 729.0 238.0Q782 267 782 324Q782 372 745.5 395.5Q709 419 600 432L537 440Q298 470 202.0 551.0Q106 632 106 797Q106 975 228.0 1061.0Q350 1147 602 1147Q701 1147 810.0 1132.0Q919 1117 1047 1085Z" transform="translate(188.1436 313) scale(0.0088 -0.0088)" />
    <path d="M1372 82Q1266 27 1151.0 -1.0Q1036 -29 911 -29Q538 -29 320.0 179.5Q102 388 102 745Q102 1103 320.0 1311.5Q538 1520 911 1520Q1036 1520 1151.0 1492.0Q1266 1464 1372 1409V1100Q1265 1173 1161.0 1207.0Q1057 1241 942 1241Q736 1241 618.0 1109.0Q500 977 500 745Q500 514 618.0 382.0Q736 250 942 250Q1057 250 1161.0 284.0Q1265 318 1372 391Z" transform="translate(198.8574 313) scale(0.0088 -0.0088)" />
    <path d="M674 504Q562 504 505.5 466.0Q449 428 449 354Q449 286 494.5 247.5Q540 209 621 209Q722 209 791.0 281.5Q860 354 860 463V504ZM1221 639V0H860V166Q788 64 698.0 17.5Q608 -29 479 -29Q305 -29 196.5 72.5Q88 174 88 336Q88 533 223.5 625.0Q359 717 649 717H860V745Q860 830 793.0 869.5Q726 909 584 909Q469 909 370.0 886.0Q271 863 186 817V1090Q301 1118 417.0 1132.5Q533 1147 649 1147Q952 1147 1086.5 1027.5Q1221 908 1221 639Z" transform="translate(212.0674 313) scale(0.0088 -0.0088)" />
    <path d="M172 1556H530V0H172Z" transform="translate(224.2139 313) scale(0.0088 -0.0088)" />
    <path d="M172 1556H530V0H172Z" transform="translate(230.3838 313) scale(0.0088 -0.0088)" />
  </g>
  <g data-text="syscall 分发" fill="#374151">
    <path d="M1047 1085V813Q932 861 825.0 885.0Q718 909 623 909Q521 909 471.5 883.5Q422 858 422 805Q422 762 459.5 739.0Q497 716 594 705L657 696Q932 661 1027.0 581.0Q1122 501 1122 330Q1122 151 990.0 61.0Q858 -29 596 -29Q485 -29 366.5 -11.5Q248 6 123 41V313Q230 261 342.5 235.0Q455 209 571 209Q676 209 729.0 238.0Q782 267 782 324Q782 372 745.5 395.5Q709 419 600 432L537 440Q298 470 202.0 551.0Q106 632 106 797Q106 975 228.0 1061.0Q350 1147 602 1147Q701 1147 810.0 1132.0Q919 1117 1047 1085Z" transform="translate(153.9233 335) scale(0.0073 -0.0073)" />
    <path d="M25 1120H383L684 360L940 1120H1298L827 -106Q756 -293 661.5 -367.5Q567 -442 412 -442H205V-207H317Q408 -207 449.5 -178.0Q491 -149 514 -74L524 -43Z" transform="translate(162.8516 335) scale(0.0073 -0.0073)" />
    <path d="M1047 1085V813Q932 861 825.0 885.0Q718 909 623 909Q521 909 471.5 883.5Q422 858 422 805Q422 762 459.5 739.0Q497 716 594 705L657 696Q932 661 1027.0 581.0Q1122 501 1122 330Q1122 151 990.0 61.0Q858 -29 596 -29Q485 -29 366.5 -11.5Q248 6 123 41V313Q230 261 342.5 235.0Q455 209 571 209Q676 209 729.0 238.0Q782 267 782 324Q782 372 745.5 395.5Q709 419 600 432L537 440Q298 470 202.0 551.0Q106 632 106 797Q106 975 228.0 1061.0Q350 1147 602 1147Q701 1147 810.0 1132.0Q919 1117 1047 1085Z" transform="translate(172.6294 335) scale(0.0073 -0.0073)" />
    <path d="M1077 1085V793Q1004 843 930.5 867.0Q857 891 778 891Q628 891 544.5 803.5Q461 716 461 559Q461 402 544.5 314.5Q628 227 778 227Q862 227 937.5 252.0Q1013 277 1077 326V33Q993 2 906.5 -13.5Q820 -29 733 -29Q430 -29 259.0 126.5Q88 282 88 559Q88 836 259.0 991.5Q430 1147 733 1147Q821 1147 906.5 1131.5Q992 1116 1077 1085Z" transform="translate(181.5576 335) scale(0.0073 -0.0073)" />
    <path d="M674 504Q562 504 505.5 466.0Q449 428 449 354Q449 286 494.5 247.5Q540 209 621 209Q722 209 791.0 281.5Q860 354 860 463V504ZM1221 639V0H860V166Q788 64 698.0 17.5Q608 -29 479 -29Q305 -29 196.5 72.5Q88 174 88 336Q88 533 223.5 625.0Q359 717 649 717H860V745Q860 830 793.0 869.5Q726 909 584 909Q469 909 370.0 886.0Q271 863 186 817V1090Q301 1118 417.0 1132.5Q533 1147 649 1147Q952 1147 1086.5 1027.5Q1221 908 1221 639Z" transform="translate(190.4492 335) scale(0.0073 -0.0073)" />
    <path d="M172 1556H530V0H172Z" transform="translate(200.5713 335) scale(0.0073 -0.0073)" />
    <path d="M172 1556H530V0H172Z" transform="translate(205.7129 335) scale(0.0073 -0.0073)" />
    <path d="M688 839 576 795C629 688 702 575 779 482H248C323 573 390 684 437 800L307 837C251 686 149 545 32 461C61 440 112 391 134 366C155 383 175 402 195 423V364H356C335 219 281 87 57 14C85 -12 119 -61 133 -92C391 3 457 174 483 364H692C684 160 674 73 653 51C642 41 631 38 613 38C588 38 536 38 481 43C502 9 518 -42 520 -78C579 -80 637 -80 672 -75C710 -71 738 -60 763 -28C798 14 810 132 820 430V433C839 412 858 393 876 375C898 407 943 454 973 477C869 563 749 711 688 839Z" transform="translate(216.0767 335) scale(0.015 -0.015)" />
    <path d="M668 791C706 746 759 683 784 646L882 709C855 745 800 805 761 846ZM134 501C143 516 185 523 239 523H370C305 330 198 180 19 85C48 62 91 14 107 -12C229 55 320 142 389 248C420 197 456 151 496 111C420 67 332 35 237 15C260 -12 287 -59 301 -91C409 -63 509 -24 595 31C680 -25 782 -66 904 -91C920 -58 953 -8 979 18C870 36 776 67 697 109C779 185 844 282 884 407L800 446L778 441H484C494 468 503 495 512 523H945L946 638H541C555 700 566 766 575 835L440 857C431 780 419 707 403 638H265C291 689 317 751 334 809L208 829C188 750 150 671 138 651C124 628 110 614 95 609C107 580 126 526 134 501ZM593 179C542 221 500 270 467 325H713C682 269 641 220 593 179Z" transform="translate(231.0767 335) scale(0.015 -0.015)" />
  </g>
  <rect class="box branch" x="350" y="285" width="160" height="66" rx="9" />
  <g data-text="Page Fault" fill="#111827">
    <path d="M188 1493H827Q1112 1493 1264.5 1366.5Q1417 1240 1417 1006Q1417 771 1264.5 644.5Q1112 518 827 518H573V0H188ZM573 1214V797H786Q898 797 959.0 851.5Q1020 906 1020 1006Q1020 1106 959.0 1160.0Q898 1214 786 1214Z" transform="translate(375.6353 313) scale(0.0088 -0.0088)" />
    <path d="M674 504Q562 504 505.5 466.0Q449 428 449 354Q449 286 494.5 247.5Q540 209 621 209Q722 209 791.0 281.5Q860 354 860 463V504ZM1221 639V0H860V166Q788 64 698.0 17.5Q608 -29 479 -29Q305 -29 196.5 72.5Q88 174 88 336Q88 533 223.5 625.0Q359 717 649 717H860V745Q860 830 793.0 869.5Q726 909 584 909Q469 909 370.0 886.0Q271 863 186 817V1090Q301 1118 417.0 1132.5Q533 1147 649 1147Q952 1147 1086.5 1027.5Q1221 908 1221 639Z" transform="translate(388.8276 313) scale(0.0088 -0.0088)" />
    <path d="M934 190Q860 92 771.0 46.0Q682 0 565 0Q360 0 226.0 161.5Q92 323 92 573Q92 824 226.0 984.5Q360 1145 565 1145Q682 1145 771.0 1099.0Q860 1053 934 954V1120H1294V113Q1294 -157 1123.5 -299.5Q953 -442 629 -442Q524 -442 426.0 -426.0Q328 -410 229 -377V-98Q323 -152 413.0 -178.5Q503 -205 594 -205Q770 -205 852.0 -128.0Q934 -51 934 113ZM698 887Q587 887 525.0 805.0Q463 723 463 573Q463 419 523.0 339.5Q583 260 698 260Q810 260 872.0 342.0Q934 424 934 573Q934 723 872.0 805.0Q810 887 698 887Z" transform="translate(400.9741 313) scale(0.0088 -0.0088)" />
    <path d="M1290 563V461H453Q466 335 544.0 272.0Q622 209 762 209Q875 209 993.5 242.5Q1112 276 1237 344V68Q1110 20 983.0 -4.5Q856 -29 729 -29Q425 -29 256.5 125.5Q88 280 88 559Q88 833 253.5 990.0Q419 1147 709 1147Q973 1147 1131.5 988.0Q1290 829 1290 563ZM922 682Q922 784 862.5 846.5Q803 909 707 909Q603 909 538.0 850.5Q473 792 457 682Z" transform="translate(413.8589 313) scale(0.0088 -0.0088)" />
    <path d="M188 1493H1227V1202H573V924H1188V633H573V0H188Z" transform="translate(432.3335 313) scale(0.0088 -0.0088)" />
    <path d="M674 504Q562 504 505.5 466.0Q449 428 449 354Q449 286 494.5 247.5Q540 209 621 209Q722 209 791.0 281.5Q860 354 860 463V504ZM1221 639V0H860V166Q788 64 698.0 17.5Q608 -29 479 -29Q305 -29 196.5 72.5Q88 174 88 336Q88 533 223.5 625.0Q359 717 649 717H860V745Q860 830 793.0 869.5Q726 909 584 909Q469 909 370.0 886.0Q271 863 186 817V1090Q301 1118 417.0 1132.5Q533 1147 649 1147Q952 1147 1086.5 1027.5Q1221 908 1221 639Z" transform="translate(444.6294 313) scale(0.0088 -0.0088)" />
    <path d="M160 436V1120H520V1008Q520 917 519.0 779.5Q518 642 518 596Q518 461 525.0 401.5Q532 342 549 315Q571 280 606.5 261.0Q642 242 688 242Q800 242 864.0 328.0Q928 414 928 567V1120H1286V0H928V162Q847 64 756.5 17.5Q666 -29 557 -29Q363 -29 261.5 90.0Q160 209 160 436Z" transform="translate(456.7759 313) scale(0.0088 -0.0088)" />
    <path d="M172 1556H530V0H172Z" transform="translate(469.5903 313) scale(0.0088 -0.0088)" />
    <path d="M563 1438V1120H932V864H563V389Q563 311 594.0 283.5Q625 256 717 256H901V0H594Q382 0 293.5 88.5Q205 177 205 389V864H27V1120H205V1438Z" transform="translate(475.7603 313) scale(0.0088 -0.0088)" />
  </g>
  <g data-text="lazy / COW" fill="#374151">
    <path d="M172 1556H530V0H172Z" transform="translate(385 335) scale(0.0073 -0.0073)" />
    <path d="M674 504Q562 504 505.5 466.0Q449 428 449 354Q449 286 494.5 247.5Q540 209 621 209Q722 209 791.0 281.5Q860 354 860 463V504ZM1221 639V0H860V166Q788 64 698.0 17.5Q608 -29 479 -29Q305 -29 196.5 72.5Q88 174 88 336Q88 533 223.5 625.0Q359 717 649 717H860V745Q860 830 793.0 869.5Q726 909 584 909Q469 909 370.0 886.0Q271 863 186 817V1090Q301 1118 417.0 1132.5Q533 1147 649 1147Q952 1147 1086.5 1027.5Q1221 908 1221 639Z" transform="translate(390.1416 335) scale(0.0073 -0.0073)" />
    <path d="M117 1120H1094V870L504 256H1094V0H92V250L682 864H117Z" transform="translate(400.2637 335) scale(0.0073 -0.0073)" />
    <path d="M25 1120H383L684 360L940 1120H1298L827 -106Q756 -293 661.5 -367.5Q567 -442 412 -442H205V-207H317Q408 -207 449.5 -178.0Q491 -149 514 -74L524 -43Z" transform="translate(408.9941 335) scale(0.0073 -0.0073)" />
    <path d="M526 1493H748L221 -190H0Z" transform="translate(423.9941 335) scale(0.0073 -0.0073)" />
    <path d="M1372 82Q1266 27 1151.0 -1.0Q1036 -29 911 -29Q538 -29 320.0 179.5Q102 388 102 745Q102 1103 320.0 1311.5Q538 1520 911 1520Q1036 1520 1151.0 1492.0Q1266 1464 1372 1409V1100Q1265 1173 1161.0 1207.0Q1057 1241 942 1241Q736 1241 618.0 1109.0Q500 977 500 745Q500 514 618.0 382.0Q736 250 942 250Q1057 250 1161.0 284.0Q1265 318 1372 391Z" transform="translate(434.6948 335) scale(0.0073 -0.0073)" />
    <path d="M870 1241Q694 1241 597.0 1111.0Q500 981 500 745Q500 510 597.0 380.0Q694 250 870 250Q1047 250 1144.0 380.0Q1241 510 1241 745Q1241 981 1144.0 1111.0Q1047 1241 870 1241ZM870 1520Q1230 1520 1434.0 1314.0Q1638 1108 1638 745Q1638 383 1434.0 177.0Q1230 -29 870 -29Q511 -29 306.5 177.0Q102 383 102 745Q102 1108 306.5 1314.0Q511 1520 870 1520Z" transform="translate(445.7031 335) scale(0.0073 -0.0073)" />
    <path d="M61 1493H430L688 408L944 1493H1315L1571 408L1829 1493H2195L1843 0H1399L1128 1135L860 0H416Z" transform="translate(458.4546 335) scale(0.0073 -0.0073)" />
  </g>
  <rect class="box branch" x="580" y="285" width="160" height="66" rx="9" />
  <g data-text="Timer" fill="#111827">
    <path d="M10 1493H1386V1202H891V0H506V1202H10Z" transform="translate(630.8555 313) scale(0.0088 -0.0088)" />
    <path d="M172 1120H530V0H172ZM172 1556H530V1264H172Z" transform="translate(643.1338 313) scale(0.0088 -0.0088)" />
    <path d="M1210 934Q1278 1038 1371.5 1092.5Q1465 1147 1577 1147Q1770 1147 1871.0 1028.0Q1972 909 1972 682V0H1612V584Q1613 597 1613.5 611.0Q1614 625 1614 651Q1614 770 1579.0 823.5Q1544 877 1466 877Q1364 877 1308.5 793.0Q1253 709 1251 550V0H891V584Q891 770 859.0 823.5Q827 877 745 877Q642 877 586.0 792.5Q530 708 530 551V0H170V1120H530V956Q596 1051 681.5 1099.0Q767 1147 870 1147Q986 1147 1075.0 1091.0Q1164 1035 1210 934Z" transform="translate(649.3037 313) scale(0.0088 -0.0088)" />
    <path d="M1290 563V461H453Q466 335 544.0 272.0Q622 209 762 209Q875 209 993.5 242.5Q1112 276 1237 344V68Q1110 20 983.0 -4.5Q856 -29 729 -29Q425 -29 256.5 125.5Q88 280 88 559Q88 833 253.5 990.0Q419 1147 709 1147Q973 1147 1131.5 988.0Q1290 829 1290 563ZM922 682Q922 784 862.5 846.5Q803 909 707 909Q603 909 538.0 850.5Q473 792 457 682Z" transform="translate(668.0596 313) scale(0.0088 -0.0088)" />
    <path d="M1004 815Q957 837 910.5 847.5Q864 858 817 858Q679 858 604.5 769.5Q530 681 530 516V0H172V1120H530V936Q599 1046 688.5 1096.5Q778 1147 903 1147Q921 1147 942.0 1145.5Q963 1144 1003 1139Z" transform="translate(680.2676 313) scale(0.0088 -0.0088)" />
  </g>
  <g data-text="调度 / 定时器" fill="#374151">
    <path d="M80 762C135 714 206 645 237 600L319 683C285 727 212 791 157 835ZM35 541V426H153V138C153 76 116 28 91 5C111 -10 150 -49 163 -72C179 -51 206 -26 332 84C320 45 303 9 281 -24C304 -36 349 -70 366 -89C462 46 476 267 476 424V709H827V38C827 24 822 19 809 18C795 18 751 17 708 20C724 -8 740 -59 743 -88C812 -89 858 -86 890 -68C924 -49 933 -17 933 36V813H372V424C372 340 370 241 350 149C340 171 330 196 323 216L270 171V541ZM603 690V624H522V539H603V471H504V386H803V471H696V539H783V624H696V690ZM511 326V32H598V76H782V326ZM598 242H695V160H598Z" transform="translate(614.5386 335) scale(0.015 -0.015)" />
    <path d="M386 629V563H251V468H386V311H800V468H945V563H800V629H683V563H499V629ZM683 468V402H499V468ZM714 178C678 145 633 118 582 96C529 119 485 146 450 178ZM258 271V178H367L325 162C360 120 400 83 447 52C373 35 293 23 209 17C227 -9 249 -54 258 -83C372 -70 481 -49 576 -15C670 -53 779 -77 902 -89C917 -58 947 -10 972 15C880 21 795 33 718 52C793 98 854 159 896 238L821 276L800 271ZM463 830C472 810 480 786 487 763H111V496C111 343 105 118 24 -36C55 -45 110 -70 134 -88C218 76 230 328 230 496V652H955V763H623C613 794 599 829 585 857Z" transform="translate(629.5386 335) scale(0.015 -0.015)" />
    <path d="M526 1493H748L221 -190H0Z" transform="translate(649.7607 335) scale(0.0073 -0.0073)" />
    <path d="M202 381C184 208 135 69 26 -11C53 -28 104 -70 123 -91C181 -42 225 23 257 102C349 -44 486 -75 674 -75H925C931 -39 950 19 968 47C900 45 734 45 680 45C638 45 599 47 562 52V196H837V308H562V428H776V542H223V428H437V88C379 117 333 166 303 246C312 285 319 326 324 369ZM409 827C421 801 434 772 443 744H71V492H189V630H807V492H930V744H581C569 780 548 825 529 860Z" transform="translate(660.4614 335) scale(0.015 -0.015)" />
    <path d="M459 428C507 355 572 256 601 198L708 260C675 317 607 411 558 480ZM299 385V203H178V385ZM299 490H178V664H299ZM66 771V16H178V96H411V771ZM747 843V665H448V546H747V71C747 51 739 44 717 44C695 44 621 44 551 47C569 13 588 -41 593 -74C693 -75 764 -72 808 -53C853 -34 869 -2 869 70V546H971V665H869V843Z" transform="translate(675.4614 335) scale(0.015 -0.015)" />
    <path d="M227 708H338V618H227ZM648 708H769V618H648ZM606 482C638 469 676 450 707 431H484C500 456 514 482 527 508L452 522V809H120V517H401C387 488 369 459 348 431H45V327H243C184 280 110 239 20 206C42 185 72 140 84 112L120 128V-90H230V-66H337V-84H452V227H292C334 258 371 292 404 327H571C602 291 639 257 679 227H541V-90H651V-66H769V-84H885V117L911 108C928 137 961 182 987 204C889 229 794 273 722 327H956V431H785L816 462C794 480 759 500 722 517H884V809H540V517H642ZM230 37V124H337V37ZM651 37V124H769V37Z" transform="translate(690.4614 335) scale(0.015 -0.015)" />
  </g>
  <rect class="box branch" x="810" y="285" width="160" height="66" rx="9" />
  <g data-text="Other Trap" fill="#111827">
    <path d="M870 1241Q694 1241 597.0 1111.0Q500 981 500 745Q500 510 597.0 380.0Q694 250 870 250Q1047 250 1144.0 380.0Q1241 510 1241 745Q1241 981 1144.0 1111.0Q1047 1241 870 1241ZM870 1520Q1230 1520 1434.0 1314.0Q1638 1108 1638 745Q1638 383 1434.0 177.0Q1230 -29 870 -29Q511 -29 306.5 177.0Q102 383 102 745Q102 1108 306.5 1314.0Q511 1520 870 1520Z" transform="translate(834.8706 313) scale(0.0088 -0.0088)" />
    <path d="M563 1438V1120H932V864H563V389Q563 311 594.0 283.5Q625 256 717 256H901V0H594Q382 0 293.5 88.5Q205 177 205 389V864H27V1120H205V1438Z" transform="translate(850.1724 313) scale(0.0088 -0.0088)" />
    <path d="M1298 682V0H938V111V520Q938 667 931.5 722.0Q925 777 909 803Q888 838 852.0 857.5Q816 877 770 877Q658 877 594.0 790.5Q530 704 530 551V0H172V1556H530V956Q611 1054 702.0 1100.5Q793 1147 903 1147Q1097 1147 1197.5 1028.0Q1298 909 1298 682Z" transform="translate(858.7769 313) scale(0.0088 -0.0088)" />
    <path d="M1290 563V461H453Q466 335 544.0 272.0Q622 209 762 209Q875 209 993.5 242.5Q1112 276 1237 344V68Q1110 20 983.0 -4.5Q856 -29 729 -29Q425 -29 256.5 125.5Q88 280 88 559Q88 833 253.5 990.0Q419 1147 709 1147Q973 1147 1131.5 988.0Q1290 829 1290 563ZM922 682Q922 784 862.5 846.5Q803 909 707 909Q603 909 538.0 850.5Q473 792 457 682Z" transform="translate(871.5913 313) scale(0.0088 -0.0088)" />
    <path d="M1004 815Q957 837 910.5 847.5Q864 858 817 858Q679 858 604.5 769.5Q530 681 530 516V0H172V1120H530V936Q599 1046 688.5 1096.5Q778 1147 903 1147Q921 1147 942.0 1145.5Q963 1144 1003 1139Z" transform="translate(883.7993 313) scale(0.0088 -0.0088)" />
    <path d="M10 1493H1386V1202H891V0H506V1202H10Z" transform="translate(898.9429 313) scale(0.0088 -0.0088)" />
    <path d="M1004 815Q957 837 910.5 847.5Q864 858 817 858Q679 858 604.5 769.5Q530 681 530 516V0H172V1120H530V936Q599 1046 688.5 1096.5Q778 1147 903 1147Q921 1147 942.0 1145.5Q963 1144 1003 1139Z" transform="translate(911.2212 313) scale(0.0088 -0.0088)" />
    <path d="M674 504Q562 504 505.5 466.0Q449 428 449 354Q449 286 494.5 247.5Q540 209 621 209Q722 209 791.0 281.5Q860 354 860 463V504ZM1221 639V0H860V166Q788 64 698.0 17.5Q608 -29 479 -29Q305 -29 196.5 72.5Q88 174 88 336Q88 533 223.5 625.0Q359 717 649 717H860V745Q860 830 793.0 869.5Q726 909 584 909Q469 909 370.0 886.0Q271 863 186 817V1090Q301 1118 417.0 1132.5Q533 1147 649 1147Q952 1147 1086.5 1027.5Q1221 908 1221 639Z" transform="translate(920.0981 313) scale(0.0088 -0.0088)" />
    <path d="M530 162V-426H172V1120H530V956Q604 1054 694.0 1100.5Q784 1147 901 1147Q1108 1147 1241.0 982.5Q1374 818 1374 559Q1374 300 1241.0 135.5Q1108 -29 901 -29Q784 -29 694.0 17.5Q604 64 530 162ZM768 887Q653 887 591.5 802.5Q530 718 530 559Q530 400 591.5 315.5Q653 231 768 231Q883 231 943.5 315.0Q1004 399 1004 559Q1004 719 943.5 803.0Q883 887 768 887Z" transform="translate(932.2446 313) scale(0.0088 -0.0088)" />
  </g>
  <g data-text="信号或终止" fill="#374151">
    <path d="M383 543V449H887V543ZM383 397V304H887V397ZM368 247V-88H470V-57H794V-85H900V247ZM470 39V152H794V39ZM539 813C561 777 586 729 601 693H313V596H961V693H655L714 719C699 755 668 811 641 852ZM235 846C188 704 108 561 24 470C43 442 75 379 85 352C110 380 134 412 158 446V-92H268V637C296 695 321 755 342 813Z" transform="translate(852.5 335) scale(0.015 -0.015)" />
    <path d="M292 710H700V617H292ZM172 815V513H828V815ZM53 450V342H241C221 276 197 207 176 158H689C676 86 661 46 642 32C629 24 616 23 594 23C563 23 489 24 422 30C444 -2 462 -50 464 -84C533 -88 599 -87 637 -85C684 -82 717 -75 747 -47C783 -13 807 62 827 217C830 233 833 267 833 267H352L376 342H943V450Z" transform="translate(867.5 335) scale(0.015 -0.015)" />
    <path d="M211 420H360V305H211ZM101 521V204H477V521ZM49 88 72 -35C191 -10 351 25 499 58C471 35 440 14 408 -5C435 -26 484 -73 503 -97C560 -59 612 -13 660 39C701 -42 754 -91 818 -91C912 -91 953 -46 972 142C938 155 894 185 868 213C862 87 851 35 830 35C802 35 774 78 748 149C820 252 877 373 919 507L798 535C774 454 743 378 705 308C688 390 675 484 666 584H949V702H874L926 757C892 789 825 828 772 852L700 778C740 758 787 729 821 702H659C657 750 656 799 657 847H528C528 799 530 751 532 702H54V584H540C552 431 575 285 610 168C579 130 545 96 508 65L497 174C337 141 163 107 49 88Z" transform="translate(882.5 335) scale(0.015 -0.015)" />
    <path d="M26 73 44 -42C147 -20 283 7 409 34L399 140C264 114 121 88 26 73ZM556 240C631 213 724 165 775 127L841 214C790 248 698 293 622 317ZM444 71C578 34 740 -32 832 -86L901 8C805 58 646 122 514 155ZM567 850C534 765 474 671 382 595L310 641C293 606 273 571 252 537L169 531C225 612 282 712 321 807L205 855C168 738 101 615 79 584C58 551 40 531 18 525C32 494 51 438 57 414C73 421 97 427 187 438C154 390 124 354 109 338C77 303 55 281 29 275C42 246 60 192 66 170C93 184 134 194 381 234C378 258 375 303 376 335L217 313C280 384 340 466 391 549C411 531 432 508 444 491C474 516 502 543 527 570C549 537 574 505 601 475C531 424 452 384 369 357C393 336 429 287 443 260C527 292 609 338 683 396C751 340 827 294 910 262C927 292 962 339 989 362C909 387 834 426 768 474C835 542 890 623 929 716L854 759L834 754H655C669 778 681 803 692 828ZM769 652C745 614 716 578 683 545C650 579 621 615 597 652Z" transform="translate(897.5 335) scale(0.015 -0.015)" />
    <path d="M169 643V81H41V-39H959V81H605V415H904V536H605V849H477V81H294V643Z" transform="translate(912.5 335) scale(0.015 -0.015)" />
  </g>
  <path class="thin" d="M765 186 C660 248, 340 242, 200 285" />
  <path class="thin" d="M765 186 C680 248, 540 246, 430 285" />
  <path class="thin" d="M765 186 C745 238, 690 257, 660 285" />
  <path class="thin" d="M795 186 C870 225, 900 250, 890 285" />
  <!-- Common return -->
  <rect class="box kernel" x="350" y="415" width="180" height="66" rx="9" />
  <g data-text="handle_signals" fill="#111827">
    <path d="M1298 682V0H938V111V520Q938 667 931.5 722.0Q925 777 909 803Q888 838 852.0 857.5Q816 877 770 877Q658 877 594.0 790.5Q530 704 530 551V0H172V1556H530V956Q611 1054 702.0 1100.5Q793 1147 903 1147Q1097 1147 1197.5 1028.0Q1298 909 1298 682Z" transform="translate(365.1743 443) scale(0.0088 -0.0088)" />
    <path d="M674 504Q562 504 505.5 466.0Q449 428 449 354Q449 286 494.5 247.5Q540 209 621 209Q722 209 791.0 281.5Q860 354 860 463V504ZM1221 639V0H860V166Q788 64 698.0 17.5Q608 -29 479 -29Q305 -29 196.5 72.5Q88 174 88 336Q88 533 223.5 625.0Q359 717 649 717H860V745Q860 830 793.0 869.5Q726 909 584 909Q469 909 370.0 886.0Q271 863 186 817V1090Q301 1118 417.0 1132.5Q533 1147 649 1147Q952 1147 1086.5 1027.5Q1221 908 1221 639Z" transform="translate(377.9888 443) scale(0.0088 -0.0088)" />
    <path d="M1298 682V0H938V111V522Q938 667 931.5 722.0Q925 777 909 803Q888 838 852.0 857.5Q816 877 770 877Q658 877 594.0 790.5Q530 704 530 551V0H172V1120H530V956Q611 1054 702.0 1100.5Q793 1147 903 1147Q1097 1147 1197.5 1028.0Q1298 909 1298 682Z" transform="translate(390.1353 443) scale(0.0088 -0.0088)" />
    <path d="M934 956V1556H1294V0H934V162Q860 63 771.0 17.0Q682 -29 565 -29Q358 -29 225.0 135.5Q92 300 92 559Q92 818 225.0 982.5Q358 1147 565 1147Q681 1147 770.5 1100.5Q860 1054 934 956ZM698 231Q813 231 873.5 315.0Q934 399 934 559Q934 719 873.5 803.0Q813 887 698 887Q584 887 523.5 803.0Q463 719 463 559Q463 399 523.5 315.0Q584 231 698 231Z" transform="translate(402.9497 443) scale(0.0088 -0.0088)" />
    <path d="M172 1556H530V0H172Z" transform="translate(415.8345 443) scale(0.0088 -0.0088)" />
    <path d="M1290 563V461H453Q466 335 544.0 272.0Q622 209 762 209Q875 209 993.5 242.5Q1112 276 1237 344V68Q1110 20 983.0 -4.5Q856 -29 729 -29Q425 -29 256.5 125.5Q88 280 88 559Q88 833 253.5 990.0Q419 1147 709 1147Q973 1147 1131.5 988.0Q1290 829 1290 563ZM922 682Q922 784 862.5 846.5Q803 909 707 909Q603 909 538.0 850.5Q473 792 457 682Z" transform="translate(422.0044 443) scale(0.0088 -0.0088)" />
    <path d="M1024 -293V-483H0V-293Z" transform="translate(434.2124 443) scale(0.0088 -0.0088)" />
    <path d="M1047 1085V813Q932 861 825.0 885.0Q718 909 623 909Q521 909 471.5 883.5Q422 858 422 805Q422 762 459.5 739.0Q497 716 594 705L657 696Q932 661 1027.0 581.0Q1122 501 1122 330Q1122 151 990.0 61.0Q858 -29 596 -29Q485 -29 366.5 -11.5Q248 6 123 41V313Q230 261 342.5 235.0Q455 209 571 209Q676 209 729.0 238.0Q782 267 782 324Q782 372 745.5 395.5Q709 419 600 432L537 440Q298 470 202.0 551.0Q106 632 106 797Q106 975 228.0 1061.0Q350 1147 602 1147Q701 1147 810.0 1132.0Q919 1117 1047 1085Z" transform="translate(443.2124 443) scale(0.0088 -0.0088)" />
    <path d="M172 1120H530V0H172ZM172 1556H530V1264H172Z" transform="translate(453.9263 443) scale(0.0088 -0.0088)" />
    <path d="M934 190Q860 92 771.0 46.0Q682 0 565 0Q360 0 226.0 161.5Q92 323 92 573Q92 824 226.0 984.5Q360 1145 565 1145Q682 1145 771.0 1099.0Q860 1053 934 954V1120H1294V113Q1294 -157 1123.5 -299.5Q953 -442 629 -442Q524 -442 426.0 -426.0Q328 -410 229 -377V-98Q323 -152 413.0 -178.5Q503 -205 594 -205Q770 -205 852.0 -128.0Q934 -51 934 113ZM698 887Q587 887 525.0 805.0Q463 723 463 573Q463 419 523.0 339.5Q583 260 698 260Q810 260 872.0 342.0Q934 424 934 573Q934 723 872.0 805.0Q810 887 698 887Z" transform="translate(460.0962 443) scale(0.0088 -0.0088)" />
    <path d="M1298 682V0H938V111V522Q938 667 931.5 722.0Q925 777 909 803Q888 838 852.0 857.5Q816 877 770 877Q658 877 594.0 790.5Q530 704 530 551V0H172V1120H530V956Q611 1054 702.0 1100.5Q793 1147 903 1147Q1097 1147 1197.5 1028.0Q1298 909 1298 682Z" transform="translate(472.981 443) scale(0.0088 -0.0088)" />
    <path d="M674 504Q562 504 505.5 466.0Q449 428 449 354Q449 286 494.5 247.5Q540 209 621 209Q722 209 791.0 281.5Q860 354 860 463V504ZM1221 639V0H860V166Q788 64 698.0 17.5Q608 -29 479 -29Q305 -29 196.5 72.5Q88 174 88 336Q88 533 223.5 625.0Q359 717 649 717H860V745Q860 830 793.0 869.5Q726 909 584 909Q469 909 370.0 886.0Q271 863 186 817V1090Q301 1118 417.0 1132.5Q533 1147 649 1147Q952 1147 1086.5 1027.5Q1221 908 1221 639Z" transform="translate(485.7954 443) scale(0.0088 -0.0088)" />
    <path d="M172 1556H530V0H172Z" transform="translate(497.9419 443) scale(0.0088 -0.0088)" />
    <path d="M1047 1085V813Q932 861 825.0 885.0Q718 909 623 909Q521 909 471.5 883.5Q422 858 422 805Q422 762 459.5 739.0Q497 716 594 705L657 696Q932 661 1027.0 581.0Q1122 501 1122 330Q1122 151 990.0 61.0Q858 -29 596 -29Q485 -29 366.5 -11.5Q248 6 123 41V313Q230 261 342.5 235.0Q455 209 571 209Q676 209 729.0 238.0Q782 267 782 324Q782 372 745.5 395.5Q709 419 600 432L537 440Q298 470 202.0 551.0Q106 632 106 797Q106 975 228.0 1061.0Q350 1147 602 1147Q701 1147 810.0 1132.0Q919 1117 1047 1085Z" transform="translate(504.1118 443) scale(0.0088 -0.0088)" />
  </g>
  <g data-text="返回前处理信号" fill="#374151">
    <path d="M53 763C99 711 163 639 193 596L295 668C262 710 194 778 149 826ZM273 490H41V377H152V130C111 113 64 78 19 29L102 -89C133 -34 173 33 201 33C226 33 262 2 313 -23C390 -60 480 -73 606 -73C709 -73 872 -66 938 -61C941 -26 960 34 975 66C874 51 716 43 611 43C498 43 402 49 333 84C309 96 290 107 273 117ZM489 402 626 282C574 236 512 200 444 177C467 153 497 108 510 79C586 110 654 150 713 203C762 158 806 115 836 81L927 165C893 199 844 243 790 289C850 368 894 467 920 589L845 613L824 610H496V682C655 689 828 709 959 746L860 842C745 809 550 790 377 784V561C377 440 369 275 275 161C303 148 356 114 378 94C466 204 490 369 495 503H776C757 452 732 405 701 364L572 472Z" transform="translate(387.5 465) scale(0.015 -0.015)" />
    <path d="M405 471H581V297H405ZM292 576V193H702V576ZM71 816V-89H196V-35H799V-89H930V816ZM196 77V693H799V77Z" transform="translate(402.5 465) scale(0.015 -0.015)" />
    <path d="M583 513V103H693V513ZM783 541V43C783 30 778 26 762 26C746 25 693 25 642 27C660 -4 679 -54 685 -86C758 -87 812 -84 851 -66C890 -47 901 -17 901 42V541ZM697 853C677 806 645 747 615 701H336L391 720C374 758 333 812 297 851L183 811C211 778 241 735 259 701H45V592H955V701H752C776 736 803 775 827 814ZM382 272V207H213V272ZM382 361H213V423H382ZM100 524V-84H213V119H382V30C382 18 378 14 365 14C352 13 311 13 275 15C290 -12 307 -57 313 -87C375 -87 420 -85 454 -68C487 -51 497 -22 497 28V524Z" transform="translate(417.5 465) scale(0.015 -0.015)" />
    <path d="M395 581C381 472 357 380 323 302C292 358 266 427 244 509L267 581ZM196 848C169 648 111 450 37 350C69 334 113 303 135 283C152 306 168 332 183 362C205 295 231 238 260 190C200 103 121 42 23 -1C53 -19 103 -67 123 -95C208 -54 280 5 340 84C457 -38 607 -70 772 -70H935C942 -35 962 27 982 57C934 56 818 56 778 56C639 56 508 82 405 189C469 312 511 472 530 675L449 695L427 691H296C306 734 315 778 323 822ZM590 850V101H718V476C770 406 821 332 847 279L955 345C912 420 820 535 750 618L718 600V850Z" transform="translate(432.5 465) scale(0.015 -0.015)" />
    <path d="M514 527H617V442H514ZM718 527H816V442H718ZM514 706H617V622H514ZM718 706H816V622H718ZM329 51V-58H975V51H729V146H941V254H729V340H931V807H405V340H606V254H399V146H606V51ZM24 124 51 2C147 33 268 73 379 111L358 225L261 194V394H351V504H261V681H368V792H36V681H146V504H45V394H146V159Z" transform="translate(447.5 465) scale(0.015 -0.015)" />
    <path d="M383 543V449H887V543ZM383 397V304H887V397ZM368 247V-88H470V-57H794V-85H900V247ZM470 39V152H794V39ZM539 813C561 777 586 729 601 693H313V596H961V693H655L714 719C699 755 668 811 641 852ZM235 846C188 704 108 561 24 470C43 442 75 379 85 352C110 380 134 412 158 446V-92H268V637C296 695 321 755 342 813Z" transform="translate(462.5 465) scale(0.015 -0.015)" />
    <path d="M292 710H700V617H292ZM172 815V513H828V815ZM53 450V342H241C221 276 197 207 176 158H689C676 86 661 46 642 32C629 24 616 23 594 23C563 23 489 24 422 30C444 -2 462 -50 464 -84C533 -88 599 -87 637 -85C684 -82 717 -75 747 -47C783 -13 807 62 827 217C830 233 833 267 833 267H352L376 342H943V450Z" transform="translate(477.5 465) scale(0.015 -0.015)" />
  </g>
  <rect class="box return" x="610" y="415" width="150" height="66" rx="9" />
  <g data-text="user_restore" fill="#111827">
    <path d="M160 436V1120H520V1008Q520 917 519.0 779.5Q518 642 518 596Q518 461 525.0 401.5Q532 342 549 315Q571 280 606.5 261.0Q642 242 688 242Q800 242 864.0 328.0Q928 414 928 567V1120H1286V0H928V162Q847 64 756.5 17.5Q666 -29 557 -29Q363 -29 261.5 90.0Q160 209 160 436Z" transform="translate(626.9880 443) scale(0.0080 -0.0080)" />
    <path d="M1047 1085V813Q932 861 825.0 885.0Q718 909 623 909Q521 909 471.5 883.5Q422 858 422 805Q422 762 459.5 739.0Q497 716 594 705L657 696Q932 661 1027.0 581.0Q1122 501 1122 330Q1122 151 990.0 61.0Q858 -29 596 -29Q485 -29 366.5 -11.5Q248 6 123 41V313Q230 261 342.5 235.0Q455 209 571 209Q676 209 729.0 238.0Q782 267 782 324Q782 372 745.5 395.5Q709 419 600 432L537 440Q298 470 202.0 551.0Q106 632 106 797Q106 975 228.0 1061.0Q350 1147 602 1147Q701 1147 810.0 1132.0Q919 1117 1047 1085Z" transform="translate(638.6520 443) scale(0.0080 -0.0080)" />
    <path d="M1290 563V461H453Q466 335 544.0 272.0Q622 209 762 209Q875 209 993.5 242.5Q1112 276 1237 344V68Q1110 20 983.0 -4.5Q856 -29 729 -29Q425 -29 256.5 125.5Q88 280 88 559Q88 833 253.5 990.0Q419 1147 709 1147Q973 1147 1131.5 988.0Q1290 829 1290 563ZM922 682Q922 784 862.5 846.5Q803 909 707 909Q603 909 538.0 850.5Q473 792 457 682Z" transform="translate(648.4040 443) scale(0.0080 -0.0080)" />
    <path d="M1004 815Q957 837 910.5 847.5Q864 858 817 858Q679 858 604.5 769.5Q530 681 530 516V0H172V1120H530V936Q599 1046 688.5 1096.5Q778 1147 903 1147Q921 1147 942.0 1145.5Q963 1144 1003 1139Z" transform="translate(659.5160 443) scale(0.0080 -0.0080)" />
    <path d="M1024 -293V-483H0V-293Z" transform="translate(667.5960 443) scale(0.0080 -0.0080)" />
    <path d="M1004 815Q957 837 910.5 847.5Q864 858 817 858Q679 858 604.5 769.5Q530 681 530 516V0H172V1120H530V936Q599 1046 688.5 1096.5Q778 1147 903 1147Q921 1147 942.0 1145.5Q963 1144 1003 1139Z" transform="translate(675.7880 443) scale(0.0080 -0.0080)" />
    <path d="M1290 563V461H453Q466 335 544.0 272.0Q622 209 762 209Q875 209 993.5 242.5Q1112 276 1237 344V68Q1110 20 983.0 -4.5Q856 -29 729 -29Q425 -29 256.5 125.5Q88 280 88 559Q88 833 253.5 990.0Q419 1147 709 1147Q973 1147 1131.5 988.0Q1290 829 1290 563ZM922 682Q922 784 862.5 846.5Q803 909 707 909Q603 909 538.0 850.5Q473 792 457 682Z" transform="translate(683.8680 443) scale(0.0080 -0.0080)" />
    <path d="M1047 1085V813Q932 861 825.0 885.0Q718 909 623 909Q521 909 471.5 883.5Q422 858 422 805Q422 762 459.5 739.0Q497 716 594 705L657 696Q932 661 1027.0 581.0Q1122 501 1122 330Q1122 151 990.0 61.0Q858 -29 596 -29Q485 -29 366.5 -11.5Q248 6 123 41V313Q230 261 342.5 235.0Q455 209 571 209Q676 209 729.0 238.0Q782 267 782 324Q782 372 745.5 395.5Q709 419 600 432L537 440Q298 470 202.0 551.0Q106 632 106 797Q106 975 228.0 1061.0Q350 1147 602 1147Q701 1147 810.0 1132.0Q919 1117 1047 1085Z" transform="translate(694.9800 443) scale(0.0080 -0.0080)" />
    <path d="M563 1438V1120H932V864H563V389Q563 311 594.0 283.5Q625 256 717 256H901V0H594Q382 0 293.5 88.5Q205 177 205 389V864H27V1120H205V1438Z" transform="translate(704.7320 443) scale(0.0080 -0.0080)" />
    <path d="M705 891Q586 891 523.5 805.5Q461 720 461 559Q461 398 523.5 312.5Q586 227 705 227Q822 227 884.0 312.5Q946 398 946 559Q946 720 884.0 805.5Q822 891 705 891ZM705 1147Q994 1147 1156.5 991.0Q1319 835 1319 559Q1319 283 1156.5 127.0Q994 -29 705 -29Q415 -29 251.5 127.0Q88 283 88 559Q88 835 251.5 991.0Q415 1147 705 1147Z" transform="translate(712.5640 443) scale(0.0080 -0.0080)" />
    <path d="M1004 815Q957 837 910.5 847.5Q864 858 817 858Q679 858 604.5 769.5Q530 681 530 516V0H172V1120H530V936Q599 1046 688.5 1096.5Q778 1147 903 1147Q921 1147 942.0 1145.5Q963 1144 1003 1139Z" transform="translate(723.8200 443) scale(0.0080 -0.0080)" />
    <path d="M1290 563V461H453Q466 335 544.0 272.0Q622 209 762 209Q875 209 993.5 242.5Q1112 276 1237 344V68Q1110 20 983.0 -4.5Q856 -29 729 -29Q425 -29 256.5 125.5Q88 280 88 559Q88 833 253.5 990.0Q419 1147 709 1147Q973 1147 1131.5 988.0Q1290 829 1290 563ZM922 682Q922 784 862.5 846.5Q803 909 707 909Q603 909 538.0 850.5Q473 792 457 682Z" transform="translate(731.9000 443) scale(0.0080 -0.0080)" />
  </g>
  <g data-text="恢复上下文" fill="#374151">
    <path d="M578 492C567 407 549 320 516 262C537 251 573 230 590 217C624 281 649 380 663 477ZM855 497C841 412 815 317 787 255C810 246 852 229 871 217C898 282 928 385 945 477ZM482 851C478 803 474 756 468 710H356V608C347 634 336 660 325 684L265 662V850H154V641L70 652C66 567 51 455 25 390L113 357C136 424 150 523 154 607V-89H265V601C283 547 298 489 302 449L389 483C385 516 373 560 357 604H453C422 412 370 249 276 138C300 119 346 77 362 55C467 189 527 380 563 604H952V710H579C584 753 589 797 593 842ZM698 574C685 271 642 76 417 3C440 -19 469 -63 481 -92C600 -47 673 24 719 125C762 34 823 -39 902 -84C918 -56 951 -16 975 4C874 51 801 147 762 260C781 348 790 451 796 571Z" transform="translate(647.5 465) scale(0.015 -0.015)" />
    <path d="M318 429H729V387H318ZM318 544H729V502H318ZM245 850C202 756 122 667 38 612C60 591 99 544 114 522C142 543 171 568 198 596V308H304C247 245 164 188 81 150C105 132 145 95 164 74C199 93 235 117 270 144C301 113 336 86 374 62C266 37 146 22 24 15C42 -12 61 -60 68 -90C223 -76 377 -50 511 -4C625 -46 760 -70 910 -80C924 -49 951 -2 974 23C857 27 749 38 652 58C732 101 799 156 847 225L772 272L754 267H404L433 302L416 308H855V623H223L260 667H922V764H326C336 781 345 799 354 817ZM658 180C615 148 562 122 503 100C445 122 396 148 356 180Z" transform="translate(662.5 465) scale(0.015 -0.015)" />
    <path d="M403 837V81H43V-40H958V81H532V428H887V549H532V837Z" transform="translate(677.5 465) scale(0.015 -0.015)" />
    <path d="M52 776V655H415V-87H544V391C646 333 760 260 818 207L907 317C830 380 674 467 565 521L544 496V655H949V776Z" transform="translate(692.5 465) scale(0.015 -0.015)" />
    <path d="M412 822C435 779 458 722 469 681H44V564H202C256 423 326 302 416 202C312 121 182 64 25 25C49 -3 85 -59 98 -88C259 -41 394 26 505 116C611 27 740 -39 898 -81C916 -48 952 4 979 31C828 65 702 125 598 204C687 301 755 420 806 564H960V681H524L609 708C597 749 567 813 540 860ZM507 286C430 365 370 459 326 564H672C631 454 577 362 507 286Z" transform="translate(707.5 465) scale(0.015 -0.015)" />
  </g>
  <rect class="box user" x="840" y="415" width="150" height="66" rx="9" />
  <g data-text="返回用户态" fill="#111827">
    <path d="M53 763C99 711 163 639 193 596L295 668C262 710 194 778 149 826ZM273 490H41V377H152V130C111 113 64 78 19 29L102 -89C133 -34 173 33 201 33C226 33 262 2 313 -23C390 -60 480 -73 606 -73C709 -73 872 -66 938 -61C941 -26 960 34 975 66C874 51 716 43 611 43C498 43 402 49 333 84C309 96 290 107 273 117ZM489 402 626 282C574 236 512 200 444 177C467 153 497 108 510 79C586 110 654 150 713 203C762 158 806 115 836 81L927 165C893 199 844 243 790 289C850 368 894 467 920 589L845 613L824 610H496V682C655 689 828 709 959 746L860 842C745 809 550 790 377 784V561C377 440 369 275 275 161C303 148 356 114 378 94C466 204 490 369 495 503H776C757 452 732 405 701 364L572 472Z" transform="translate(870 443) scale(0.018 -0.018)" />
    <path d="M405 471H581V297H405ZM292 576V193H702V576ZM71 816V-89H196V-35H799V-89H930V816ZM196 77V693H799V77Z" transform="translate(888 443) scale(0.018 -0.018)" />
    <path d="M142 783V424C142 283 133 104 23 -17C50 -32 99 -73 118 -95C190 -17 227 93 244 203H450V-77H571V203H782V53C782 35 775 29 757 29C738 29 672 28 615 31C631 0 650 -52 654 -84C745 -85 806 -82 847 -63C888 -45 902 -12 902 52V783ZM260 668H450V552H260ZM782 668V552H571V668ZM260 440H450V316H257C259 354 260 390 260 423ZM782 440V316H571V440Z" transform="translate(906 443) scale(0.018 -0.018)" />
    <path d="M270 587H744V430H270V472ZM419 825C436 787 456 736 468 699H144V472C144 326 134 118 26 -24C55 -37 109 -75 132 -97C217 14 251 175 264 318H744V266H867V699H536L596 716C584 755 561 812 539 855Z" transform="translate(924 443) scale(0.018 -0.018)" />
    <path d="M375 392C433 359 506 308 540 273L651 341C611 376 536 424 479 454ZM263 244V73C263 -36 299 -69 438 -69C467 -69 602 -69 632 -69C745 -69 780 -33 794 111C762 118 711 136 686 154C680 53 672 38 623 38C589 38 476 38 450 38C392 38 382 42 382 74V244ZM404 256C456 204 518 132 544 84L643 146C613 194 549 263 496 311ZM740 229C787 141 836 24 852 -48L966 -8C947 66 894 178 846 262ZM130 252C113 164 80 66 39 0L147 -55C188 17 218 127 238 216ZM442 860C438 812 433 766 425 721H47V611H391C344 504 247 416 36 362C62 337 91 291 103 261C352 332 462 451 515 594C592 433 709 327 898 274C915 308 950 359 977 384C816 420 705 498 636 611H956V721H549C557 766 562 813 566 860Z" transform="translate(942 443) scale(0.018 -0.018)" />
  </g>
  <g data-text="继续执行" fill="#374151">
    <path d="M31 75 51 -35C144 -11 263 19 376 48L364 145C242 118 115 90 31 75ZM859 777C847 723 822 645 800 595L868 572C893 619 925 691 953 755ZM531 756C550 699 572 624 580 576L660 597C650 645 627 718 607 775ZM396 814V587L302 644C285 608 266 572 246 537L162 531C217 612 270 713 305 806L193 858C162 741 98 615 77 583C57 550 40 529 19 522C33 493 52 436 58 413V414C73 421 97 428 183 438C150 390 122 352 107 336C76 299 54 277 29 271C41 242 58 191 64 169C89 184 129 196 362 241C361 265 362 309 366 340L215 315C281 396 344 491 396 584V-51H968V53H505V814ZM685 842V546H524V446H656C622 368 572 288 521 240C537 213 560 169 569 139C612 183 652 250 685 323V77H783V342C823 280 868 207 889 163L962 241C939 274 846 392 799 446H957V546H783V842Z" transform="translate(885 465) scale(0.015 -0.015)" />
    <path d="M686 90C760 38 849 -39 891 -90L968 -18C924 34 830 106 757 154ZM33 78 59 -33C150 3 264 48 370 93L350 189C233 146 112 102 33 78ZM400 610V509H826C816 470 805 432 796 404L889 383C911 437 935 522 954 598L878 613L860 610H722V672H896V771H722V850H605V771H435V672H605V610ZM628 483V423C601 447 550 477 510 495L462 439C505 416 556 382 582 357L628 414V377C628 345 626 309 617 271H523L569 324C541 351 485 387 440 410L388 353C427 330 474 297 503 271H379V168H576C537 105 470 44 355 -4C378 -25 411 -66 426 -92C584 -22 664 72 703 168H940V271H731C737 307 739 342 739 374V483ZM59 413C74 421 98 427 185 437C152 387 124 348 109 331C78 294 57 271 33 265C45 238 62 190 67 169C90 186 130 201 357 264C353 288 351 333 352 363L225 332C284 411 341 500 387 588L298 643C282 607 263 571 244 536L163 530C219 611 272 709 309 802L207 850C172 733 104 606 82 574C61 542 44 520 24 515C36 486 54 435 59 413Z" transform="translate(900 465) scale(0.015 -0.015)" />
    <path d="M501 850C503 780 504 714 503 651H372V543H500C498 497 495 453 489 411L419 450L360 377L350 433L264 406V546H353V657H264V850H149V657H42V546H149V371C103 358 61 346 27 338L54 223L149 254V45C149 31 145 27 133 27C121 27 85 27 50 29C64 -5 78 -55 82 -87C147 -87 191 -82 222 -63C254 -44 264 -12 264 45V291L369 326L363 361L468 297C437 170 379 72 276 2C303 -21 348 -73 361 -96C469 -12 532 96 570 231C607 206 640 182 664 162L715 230C720 28 748 -91 852 -91C932 -91 966 -51 978 95C950 104 905 128 882 150C879 60 871 22 858 22C818 22 823 265 840 651H618C619 714 619 781 618 851ZM718 543C716 443 714 353 714 274C682 297 640 324 595 350C604 410 610 474 614 543Z" transform="translate(915 465) scale(0.015 -0.015)" />
    <path d="M447 793V678H935V793ZM254 850C206 780 109 689 26 636C47 612 78 564 93 537C189 604 297 707 370 802ZM404 515V401H700V52C700 37 694 33 676 33C658 32 591 32 534 35C550 0 566 -52 571 -87C660 -87 724 -85 767 -67C811 -49 823 -15 823 49V401H961V515ZM292 632C227 518 117 402 15 331C39 306 80 252 97 227C124 249 151 274 179 301V-91H299V435C339 485 376 537 406 588Z" transform="translate(930 465) scale(0.015 -0.015)" />
  </g>
  <path class="dash" d="M200 351 C230 400, 310 420, 350 448" />
  <path class="dash" d="M430 351 L430 415" />
  <path class="dash" d="M660 351 C610 390, 540 405, 500 415" />
  <path class="dash" d="M890 351 C790 400, 610 402, 520 415" />
  <path class="arrow" d="M530 448 L610 448" />
  <path class="arrow" d="M760 448 L840 448" />
</svg>
